<svg width="24" height="24" viewBox="0 0 24 24" fill="none" xmlns="http://www.w3.org/2000/svg">
<path fill-rule="evenodd" clip-rule="evenodd" d="M11.5872 0.0974518C11.8471 -0.0324839 12.1529 -0.0324839 12.4128 0.0974518L23.4897 5.63591C23.8025 5.79228 24 6.1119 24 6.46154V17.5385C24 17.8881 23.8025 18.2077 23.4897 18.3641L12.4128 23.9025C12.1529 24.0325 11.8471 24.0325 11.5872 23.9025L0.510264 18.3641C0.197541 18.2077 0 17.8881 0 17.5385V6.46154C0 6.1119 0.197541 5.79228 0.510264 5.63591L11.5872 0.0974518ZM1.84615 7.03203V16.968L12 22.0449L22.1538 16.968V7.03203L12 1.95511L1.84615 7.03203Z" fill="white"/>
<path fill-rule="evenodd" clip-rule="evenodd" d="M0.0989192 6.32089C0.329863 5.87184 0.891514 5.68983 1.3534 5.91435L12.5738 11.3686C13.0357 11.5931 13.2229 12.1392 12.992 12.5882C12.761 13.0373 12.1994 13.2193 11.7375 12.9947L0.51708 7.54049C0.0551923 7.31597 -0.132025 6.76993 0.0989192 6.32089Z" fill="white"/>
<path fill-rule="evenodd" clip-rule="evenodd" d="M12.0001 10.9091C12.6026 10.9091 13.091 11.3277 13.091 11.8442V23.0649C13.091 23.5814 12.6026 24 12.0001 24C11.3976 24 10.9092 23.5814 10.9092 23.0649V11.8442C10.9092 11.3277 11.3976 10.9091 12.0001 10.9091Z" fill="white"/>
<path fill-rule="evenodd" clip-rule="evenodd" d="M23.9012 6.32089C24.1321 6.76993 23.9449 7.31597 23.483 7.54049L12.2626 12.9947C11.8007 13.2193 11.239 13.0373 11.0081 12.5882C10.7772 12.1392 10.9644 11.5931 11.4263 11.3686L22.6467 5.91435C23.1086 5.68983 23.6702 5.87184 23.9012 6.32089Z" fill="white"/>
<path fill-rule="evenodd" clip-rule="evenodd" d="M18.0881 3.4118C18.3062 3.86084 18.1294 4.40688 17.6932 4.6314L7.09608 10.0857C6.65986 10.3102 6.12941 10.1282 5.91129 9.67911C5.69318 9.23007 5.87 8.68403 6.30622 8.45951L16.9033 3.00526C17.3395 2.78074 17.87 2.96275 18.0881 3.4118Z" fill="white"/>
</svg>
