<svg width="24" height="24" viewBox="0 0 24 24" fill="none" xmlns="http://www.w3.org/2000/svg">
<path fill-rule="evenodd" clip-rule="evenodd" d="M0.811089 0.811089C1.33042 0.291758 2.03479 0 2.76923 0H21.2308C21.9652 0 22.6696 0.291758 23.1889 0.811089C23.7082 1.33042 24 2.03478 24 2.76923V21.2308C24 21.9652 23.7082 22.6696 23.1889 23.1889C22.6696 23.7082 21.9652 24 21.2308 24H2.76923C2.03478 24 1.33042 23.7082 0.811089 23.1889C0.291758 22.6696 0 21.9652 0 21.2308V2.76923C0 2.03479 0.291758 1.33042 0.811089 0.811089ZM2.76923 1.84615C2.52442 1.84615 2.28963 1.94341 2.11652 2.11652C1.94341 2.28963 1.84615 2.52442 1.84615 2.76923V21.2308C1.84615 21.4756 1.94341 21.7104 2.11652 21.8835C2.28963 22.0566 2.52442 22.1538 2.76923 22.1538H21.2308C21.4756 22.1538 21.7104 22.0566 21.8835 21.8835C22.0566 21.7104 22.1538 21.4756 22.1538 21.2308V2.76923C22.1538 2.52442 22.0566 2.28963 21.8835 2.11652C21.7104 1.94341 21.4756 1.84615 21.2308 1.84615H2.76923ZM4.92308 6.46154C4.92308 5.95174 5.33635 5.53846 5.84615 5.53846H18.1538C18.6636 5.53846 19.0769 5.95174 19.0769 6.46154C19.0769 6.97134 18.6636 7.38462 18.1538 7.38462H5.84615C5.33635 7.38462 4.92308 6.97134 4.92308 6.46154ZM4.92308 11.3846C4.92308 10.8748 5.33635 10.4615 5.84615 10.4615H10.7692C11.279 10.4615 11.6923 10.8748 11.6923 11.3846C11.6923 11.8944 11.279 12.3077 10.7692 12.3077H5.84615C5.33635 12.3077 4.92308 11.8944 4.92308 11.3846ZM18.7305 11.8946C19.1286 12.2131 19.1931 12.7939 18.8746 13.192L13.9516 19.3459C13.6331 19.744 13.0522 19.8085 12.6541 19.49L9.5772 17.0285C9.17912 16.71 9.11457 16.1291 9.43304 15.7311C9.75151 15.333 10.3324 15.2684 10.7305 15.5869L13.0866 17.4718L17.433 12.0387C17.7515 11.6407 18.3324 11.5761 18.7305 11.8946Z" fill="white"/>
</svg>
