<svg width="297" height="216" viewBox="0 0 297 216" fill="none" xmlns="http://www.w3.org/2000/svg">
<g clip-path="url(#clip0_212_1998)">
<path d="M291.967 172.584C284.611 187.759 269.666 197.906 254.184 204.598C241.788 209.921 228.685 213.416 215.284 214.976C212.718 215.28 210.143 215.516 207.56 215.684C200.959 216.115 194.337 216.107 187.737 215.662C183.767 215.398 179.811 214.977 175.869 214.397C162.172 212.399 148.818 208.512 136.189 202.846C132.544 201.205 128.973 199.414 125.476 197.472C119.635 194.235 114.038 190.576 108.73 186.524C107.556 185.627 106.396 184.711 105.252 183.775L104.781 183.39C103.881 182.648 102.989 181.889 102.083 181.153C100.578 179.892 98.9799 178.746 97.3028 177.725C97.1892 177.659 97.0757 177.592 96.9594 177.529C96.6492 177.349 96.3334 177.18 96.0121 177.019C95.3503 176.686 94.6718 176.386 93.9792 176.122C90.7803 174.904 87.3542 174.461 83.8811 174.536C83.305 174.536 82.7289 174.574 82.1501 174.613C81.3413 174.668 80.5298 174.751 79.7211 174.857L79.422 174.898C76.8449 175.263 74.2969 175.81 71.7971 176.535C67.9363 177.642 64.1446 179.026 60.328 180.275C58.7078 180.809 57.0848 181.319 55.4479 181.776L55.0879 181.875C52.7599 182.53 50.3901 183.026 47.9948 183.359C42.5518 184.055 37.0235 183.61 31.7619 182.053L31.5791 182L31.2413 181.9L30.7787 181.756C30.0032 181.513 29.2342 181.246 28.4716 180.956L28.0091 180.779C27.2705 180.495 26.5476 180.189 25.8404 179.863L25.3779 179.652C24.6393 179.309 23.9165 178.946 23.2093 178.564C22.9545 178.431 22.7024 178.287 22.4532 178.152C21.6998 177.731 20.9613 177.29 20.2375 176.828C19.4693 176.339 18.7178 175.829 17.983 175.297C17.6432 175.053 17.3072 174.803 16.9748 174.547C15.0589 173.082 13.2648 171.464 11.61 169.71C11.5186 169.618 11.4328 169.524 11.3469 169.433C10.9065 168.957 10.4745 168.472 10.0562 167.976C9.90114 167.794 9.74604 167.611 9.59371 167.423C9.09702 166.817 8.61787 166.198 8.15627 165.565C8.08702 165.473 8.02055 165.379 7.95408 165.288C6.06169 162.672 4.49283 159.836 3.28169 156.843C3.24292 156.752 3.20691 156.658 3.17368 156.566C2.80439 155.616 2.46742 154.65 2.16276 153.668C2.03812 153.258 1.91903 152.837 1.81378 152.427C1.77777 152.305 1.74454 152.181 1.71407 152.059C0.185229 146.043 0.0107422 139.788 0.0107422 133.569C0.0107422 132.844 0.0107422 132.119 0.0107422 131.396C0.0550565 121.337 0.210156 111.107 1.69469 101.186C1.69469 101.117 1.71407 101.048 1.72515 100.981C2.22201 97.6417 2.89786 94.331 3.74976 91.0638C4.64136 87.6355 5.78084 84.2765 7.15919 81.0133C10.5742 72.9839 15.5401 65.6772 21.0545 58.9049C27.7016 50.7565 35.3182 43.2367 43.8016 37.0319C45.0202 36.1404 46.2555 35.2747 47.5074 34.4349L48.0862 34.0555C48.2884 33.9199 48.4906 33.7787 48.6928 33.6596C49.1082 33.3827 49.5237 33.1225 49.9447 32.8594L50.4155 32.566L51.3129 32.0122L51.5898 31.8544L52.069 31.5775L52.5426 31.3006C53.0965 30.9739 53.6569 30.6546 54.2238 30.3427C56.6444 28.9934 59.1223 27.7604 61.6575 26.6436C62.4053 26.3132 63.1577 25.9948 63.9147 25.6884C67.3517 24.2891 70.8824 23.1317 74.4809 22.2247C75.8104 21.8888 77.1481 21.5935 78.4941 21.3387C80.0821 21.0323 81.6783 20.7785 83.2829 20.5773C85.8362 20.2562 88.4042 20.0649 90.9769 20.0042C109.068 19.564 127.342 25.4503 141.52 36.7329C147.17 41.2293 152.247 46.5536 158.592 50.0007C164.132 53.002 170.615 54.2451 176.548 51.8834C181.45 49.9315 184.641 48.9624 190.147 49.2587C201.54 49.9002 212.773 52.2484 223.468 56.2248C223.9 56.3826 224.333 56.546 224.762 56.7093C252.655 67.3828 276.637 88.5774 289.095 115.813C289.424 116.533 289.744 117.259 290.056 117.99C297.487 135.336 300.168 155.672 291.967 172.584Z" fill="#E6E6E6"/>
<path opacity="0.1" d="M55.4401 76.8018V181.781L55.0801 181.881C52.7521 182.535 50.3822 183.031 47.987 183.365C42.544 184.06 37.0157 183.615 31.7541 182.058L31.5713 182.005L31.2334 181.906L30.7709 181.762C29.9954 181.518 29.2264 181.251 28.4638 180.962L28.0013 180.784C27.2627 180.5 26.5398 180.195 25.8326 179.868L25.3701 179.658C24.6315 179.314 23.9087 178.951 23.2015 178.569C22.9467 178.437 22.6946 178.293 22.4454 178.157C21.692 177.736 20.9534 177.295 20.2296 176.833C19.4615 176.344 18.71 175.834 17.9752 175.302C17.6354 175.059 17.2994 174.809 16.967 174.552C15.0511 173.087 13.257 171.469 11.6022 169.715C11.5108 169.624 11.4249 169.529 11.3391 169.438C10.8987 168.962 10.4666 168.477 10.0484 167.982C9.89333 167.799 9.73823 167.616 9.5859 167.428C9.08921 166.823 8.61006 166.203 8.14845 165.57C8.07921 165.479 8.01274 165.385 7.94627 165.293C6.05387 162.677 4.48502 159.842 3.27388 156.849C3.23511 156.757 3.1991 156.663 3.16586 156.572C2.79658 155.621 2.4596 154.655 2.15494 153.673C2.03031 153.263 1.91121 152.842 1.80597 152.433C1.76996 152.311 1.73673 152.186 1.70626 152.064C0.177417 146.048 0.00292969 139.793 0.00292969 133.575C0.00292969 132.849 0.00292969 132.125 0.00292969 131.401C0.047244 121.342 0.202343 111.112 1.68687 101.192C1.68687 101.122 1.70626 101.053 1.71734 100.987C2.2142 97.647 2.89004 94.3364 3.74195 91.0691H32.0256V76.8018H37.6646V65.342H49.8011V76.8018H55.4401Z" fill="#FFD747"/>
<path d="M291.967 172.583C284.611 187.759 269.666 197.906 254.184 204.598C241.788 209.921 228.685 213.416 215.284 214.975C212.718 215.28 210.143 215.516 207.56 215.684C200.959 216.114 194.337 216.107 187.737 215.662C183.768 215.398 179.812 214.976 175.87 214.397C162.172 212.399 148.818 208.512 136.189 202.846C132.544 201.205 128.973 199.413 125.476 197.472C119.635 194.235 114.038 190.576 108.731 186.524C107.556 185.627 106.397 184.71 105.252 183.775L104.781 183.39C103.881 182.648 102.989 181.889 102.083 181.153C100.578 179.892 98.9801 178.746 97.3031 177.725C97.1895 177.658 97.076 177.592 96.9596 177.528C96.6494 177.348 96.3337 177.18 96.0124 177.019C95.3505 176.685 94.672 176.386 93.9795 176.122V133.176H145.381V142.736H167.94V72.8038H194.493V100.768H207.626V84.211H218.478V66.5243H223.463V56.2246C223.895 56.3824 224.327 56.5458 224.757 56.7091V66.5243H229.609V84.222H240.452V100.779H256.441V163.859H281.856V117.984H290.045C297.487 135.336 300.168 155.672 291.967 172.583Z" fill="#FFD747"/>
<path d="M187.743 83.3279H175.875V95.1919H187.743V83.3279Z" fill="#E6E6E6"/>
<path d="M187.743 107.92H175.875V119.784H187.743V107.92Z" fill="#E6E6E6"/>
<path d="M187.743 132.514H175.875V144.378H187.743V132.514Z" fill="#E6E6E6"/>
<path d="M187.743 157.109H175.875V168.973H187.743V157.109Z" fill="#E6E6E6"/>
<path d="M187.743 181.701H175.875V193.565H187.743V181.701Z" fill="#E6E6E6"/>
<path d="M187.743 206.29V215.659C183.773 215.395 179.817 214.974 175.875 214.394V206.29H187.743Z" fill="#E6E6E6"/>
<path d="M139.435 148.509H97.8936V153.883H139.435V148.509Z" fill="#E6E6E6"/>
<path opacity="0.1" d="M139.435 164.831H97.8936V170.205H139.435V164.831Z" fill="#FFD747"/>
<path d="M139.435 181.153V186.524H108.736C107.562 185.627 106.402 184.711 105.257 183.775L104.787 183.39C103.886 182.648 102.995 181.889 102.089 181.153H139.435Z" fill="#E6E6E6"/>
<path d="M139.435 197.472V202.846H136.194C132.55 201.205 128.979 199.413 125.481 197.472H139.435Z" fill="#E6E6E6"/>
<path d="M215.29 115.453H207.565V123.175H215.29V115.453Z" fill="#E6E6E6"/>
<path opacity="0.1" d="M48.0038 79.4653H40.2793V87.1873H48.0038V79.4653Z" fill="#FFD747"/>
<path opacity="0.1" d="M48.0038 97.4067H40.2793V105.129H48.0038V97.4067Z" fill="#FFD747"/>
<path opacity="0.1" d="M48.0038 115.345H40.2793V123.067H48.0038V115.345Z" fill="#FFD747"/>
<path opacity="0.1" d="M48.0038 133.287H40.2793V141.009H48.0038V133.287Z" fill="#FFD747"/>
<path opacity="0.1" d="M48.0038 151.228H40.2793V158.95H48.0038V151.228Z" fill="#FFD747"/>
<path opacity="0.1" d="M48.0038 169.167H40.2793V176.889H48.0038V169.167Z" fill="#FFD747"/>
<path d="M244.784 115.453H237.06V123.175H244.784V115.453Z" fill="#E6E6E6"/>
<path d="M215.29 134.502H207.565V142.224H215.29V134.502Z" fill="#E6E6E6"/>
<path d="M244.784 134.502H237.06V142.224H244.784V134.502Z" fill="#E6E6E6"/>
<path d="M215.29 153.554H207.565V161.276H215.29V153.554Z" fill="#E6E6E6"/>
<path d="M244.784 153.554H237.06V161.276H244.784V153.554Z" fill="#E6E6E6"/>
<path d="M215.29 172.606H207.565V180.328H215.29V172.606Z" fill="#E6E6E6"/>
<path d="M244.784 172.606H237.06V180.328H244.784V172.606Z" fill="#E6E6E6"/>
<path d="M215.29 191.655H207.565V199.377H215.29V191.655Z" fill="#E6E6E6"/>
<path d="M244.784 191.655H237.06V199.377H244.784V191.655Z" fill="#E6E6E6"/>
<path opacity="0.1" d="M207.565 215.684V210.703H215.29V214.976L207.565 215.684Z" fill="#FFD747"/>
<path opacity="0.1" d="M1.68945 100.99V105.419H31.2332V100.99H1.68945ZM4.32061 105.143H2.15198V101.266H4.32061V105.143ZM6.95178 105.143H4.78314V101.266H6.95178V105.143ZM9.58294 105.143H7.41431V101.266H9.58294V105.143ZM12.2141 105.143H10.0455V101.266H12.2141V105.143ZM14.8453 105.143H12.6766V101.266H14.8453V105.143ZM17.4764 105.143H15.3078V101.266H17.4764V105.143ZM20.1076 105.143H17.939V101.266H20.1076V105.143ZM22.7387 105.143H20.5701V101.266H22.7387V105.143ZM25.3699 105.143H23.2013V101.266H25.3699V105.143ZM28.0011 105.143H25.8324V101.266H28.0011V105.143ZM30.7707 105.143H28.4636V101.266H30.7707V105.143Z" fill="#FFD747"/>
<path opacity="0.1" d="M1.68945 113.853V118.269H31.2332V113.853H1.68945ZM4.32061 117.992H2.15198V114.13H4.32061V117.992ZM6.95178 117.992H4.78314V114.13H6.95178V117.992ZM9.58294 117.992H7.41431V114.13H9.58294V117.992ZM12.2141 117.992H10.0455V114.13H12.2141V117.992ZM14.8453 117.992H12.6766V114.13H14.8453V117.992ZM17.4764 117.992H15.3078V114.13H17.4764V117.992ZM20.1076 117.992H17.939V114.13H20.1076V117.992ZM22.7387 117.992H20.5701V114.13H22.7387V117.992ZM25.3699 117.992H23.2013V114.13H25.3699V117.992ZM28.0011 117.992H25.8324V114.13H28.0011V117.992ZM30.7707 117.992H28.4636V114.13H30.7707V117.992Z" fill="#FFD747"/>
<path opacity="0.1" d="M1.68945 126.714V131.13H31.2332V126.714H1.68945ZM4.32061 130.853H2.15198V126.991H4.32061V130.853ZM6.95178 130.853H4.78314V126.991H6.95178V130.853ZM9.58294 130.853H7.41431V126.991H9.58294V130.853ZM12.2141 130.853H10.0455V126.991H12.2141V130.853ZM14.8453 130.853H12.6766V126.991H14.8453V130.853ZM17.4764 130.853H15.3078V126.991H17.4764V130.853ZM20.1076 130.853H17.939V126.991H20.1076V130.853ZM22.7387 130.853H20.5701V126.991H22.7387V130.853ZM25.3699 130.853H23.2013V126.991H25.3699V130.853ZM28.0011 130.853H25.8324V126.991H28.0011V130.853ZM30.7707 130.853H28.4636V126.991H30.7707V130.853Z" fill="#FFD747"/>
<path opacity="0.1" d="M1.68945 139.563V143.993H31.2332V139.563H1.68945ZM4.32061 143.717H2.15198V139.84H4.32061V143.717ZM6.95178 143.717H4.78314V139.84H6.95178V143.717ZM9.58294 143.717H7.41431V139.84H9.58294V143.717ZM12.2141 143.717H10.0455V139.84H12.2141V143.717ZM14.8453 143.717H12.6766V139.84H14.8453V143.717ZM17.4764 143.717H15.3078V139.84H17.4764V143.717ZM20.1076 143.717H17.939V139.84H20.1076V143.717ZM22.7387 143.717H20.5701V139.84H22.7387V143.717ZM25.3699 143.717H23.2013V139.84H25.3699V143.717ZM28.0011 143.717H25.8324V139.84H28.0011V143.717ZM30.7707 143.717H28.4636V139.84H30.7707V143.717Z" fill="#FFD747"/>
<path opacity="0.1" d="M1.80273 152.435C1.90798 152.851 2.02708 153.266 2.15171 153.676V152.712H4.32034V156.588H3.16263C3.19587 156.68 3.23187 156.774 3.27065 156.865H31.2441V152.435H1.80273ZM6.9515 156.588H4.78287V152.712H6.9515V156.588ZM9.58267 156.588H7.41403V152.712H9.58267V156.588ZM12.2138 156.588H10.0452V152.712H12.2138V156.588ZM14.845 156.588H12.6764V152.712H14.845V156.588ZM17.4762 156.588H15.3075V152.712H17.4762V156.588ZM20.1073 156.588H17.9387V152.712H20.1073V156.588ZM22.7385 156.588H20.5698V152.712H22.7385V156.588ZM25.3696 156.588H23.201V152.712H25.3696V156.588ZM28.0008 156.588H25.8322V152.712H28.0008V156.588ZM30.7704 156.588H28.4633V152.712H30.7704V156.588Z" fill="#FFD747"/>
<path opacity="0.1" d="M7.94336 165.296C8.00983 165.388 8.0763 165.482 8.14554 165.573H9.58299V167.431C9.73532 167.616 9.89042 167.799 10.0455 167.985V165.576H12.2142V169.452H11.3362C11.422 169.543 11.5079 169.638 11.5993 169.729H31.2333V165.299L7.94336 165.296ZM14.8453 169.449H12.6767V165.573H14.8453V169.449ZM17.4765 169.449H15.3078V165.573H17.4765V169.449ZM20.1076 169.449H17.939V165.573H20.1076V169.449ZM22.7388 169.449H20.5702V165.573H22.7388V169.449ZM25.37 169.449H23.2013V165.573H25.37V169.449ZM28.0011 169.449H25.8325V165.573H28.0011V169.449ZM30.7708 169.449H28.4637V165.573H30.7708V169.449Z" fill="#FFD747"/>
<path opacity="0.1" d="M22.4453 178.157C22.6946 178.298 22.9466 178.434 23.2014 178.57V178.434H25.3701V179.658L25.8326 179.868V178.434H28.0012V180.785L28.4638 180.962V178.434H30.7709V181.756L31.2334 181.9V178.157H22.4453Z" fill="#FFD747"/>
<path d="M113.544 62.6397C113.544 62.6397 106.942 62.241 107.728 66.8648C107.688 67.0998 107.723 67.3415 107.828 67.5554C107.934 67.7693 108.104 67.9443 108.315 68.0554C108.315 68.0554 108.315 67.712 108.991 67.8283C109.228 67.8673 109.469 67.8784 109.708 67.8616C110.032 67.8402 110.341 67.7139 110.586 67.5016C110.586 67.5016 112.442 66.7347 113.165 63.7029C113.165 63.7029 113.697 63.0412 113.677 62.8723L112.57 63.3485C112.57 63.3485 112.952 64.1515 112.653 64.8187C112.653 64.8187 112.617 63.379 112.401 63.4122C112.359 63.4122 111.822 63.6891 111.822 63.6891C111.822 63.6891 112.478 65.0901 111.982 66.1062C111.982 66.1062 112.171 64.384 111.62 63.7915L110.816 64.2539C110.816 64.2539 111.584 65.6992 111.063 66.8787C111.063 66.8787 111.199 65.0707 110.653 64.3674L109.941 64.9212C109.941 64.9212 110.661 66.3443 110.218 67.3244C110.218 67.3244 110.16 65.2174 109.783 65.0568C109.513 65.2846 109.272 65.545 109.066 65.8321C109.066 65.8321 109.559 66.8648 109.254 67.4103C109.254 67.4103 109.066 66.0093 108.911 66.001C108.911 66.001 108.293 66.9313 108.229 67.5681C108.258 66.9773 108.441 66.4044 108.761 65.9068C108.404 65.9743 108.075 66.1447 107.814 66.3969C107.814 66.3969 107.911 65.7407 108.922 65.6826C108.922 65.6826 109.434 64.9793 109.573 64.935C109.573 64.935 108.573 64.8519 107.966 65.1205C107.966 65.1205 108.501 64.5003 109.756 64.7827L110.456 64.2096C110.456 64.2096 109.141 64.0296 108.584 64.229C108.584 64.229 109.224 63.6752 110.645 64.0795L111.409 63.6226C110.822 63.4941 110.22 63.442 109.62 63.4676C109.62 63.4676 110.323 63.0883 111.633 63.5008L112.187 63.2544C112.187 63.2544 111.356 63.0938 111.127 63.0689C110.897 63.044 110.872 62.9775 110.872 62.9775C111.392 62.8908 111.926 62.9502 112.414 63.1492C112.414 63.1492 113.564 62.7117 113.544 62.6397Z" fill="#FFD747"/>
<path opacity="0.1" d="M96.2118 85.1413C96.2118 85.1413 93.9545 91.3544 98.6131 91.9219C98.8264 92.0268 99.0674 92.0617 99.3017 92.0214C99.536 91.9811 99.7516 91.8678 99.9176 91.6977C99.9176 91.6977 99.5935 91.5897 99.8926 90.9833C99.9974 90.7679 100.077 90.5413 100.131 90.3078C100.201 89.9906 100.166 89.6592 100.031 89.3636C100.031 89.3636 99.8234 87.3674 97.1202 85.8141C97.1202 85.8141 96.6383 85.1136 96.4694 85.0859L96.6078 86.2903C96.6078 86.2903 97.4858 86.1519 98.0425 86.6281C98.0425 86.6281 96.6577 86.2543 96.6217 86.4703C96.6217 86.5118 96.7242 87.1043 96.7242 87.1043C96.7242 87.1043 98.253 86.8718 99.0867 87.6359C99.0867 87.6359 97.4858 86.9659 96.7629 87.3286L96.979 88.2091C96.979 88.2091 98.5826 87.8879 99.5658 88.7185C99.5658 88.7185 97.8708 88.0789 97.0399 88.4001L97.3695 89.2307C97.3695 89.2307 98.9399 88.9539 99.7541 89.6433C99.7541 89.6433 97.7157 89.0895 97.4581 89.4162C97.6 89.7386 97.7804 90.0426 97.9954 90.3216C97.9954 90.3216 99.1282 90.1444 99.563 90.5985C99.563 90.5985 98.1644 90.3798 98.1145 90.5237C98.1145 90.5237 98.8319 91.382 99.4246 91.6312C98.868 91.4343 98.3725 91.0955 97.9871 90.6483C97.9504 91.0103 98.0207 91.3752 98.1893 91.6977C98.1893 91.6977 97.5855 91.4208 97.8154 90.4379C97.8154 90.4379 97.2836 89.7485 97.2836 89.6073C97.2836 89.6073 96.918 90.5403 97.0067 91.1993C97.0067 91.1993 96.5635 90.5099 97.1895 89.3886L96.8405 88.5579C96.8405 88.5579 96.2866 89.7679 96.3253 90.3604C96.3253 90.3604 95.9819 89.5879 96.7685 88.3392L96.5497 87.4781C96.2598 88.0011 96.0392 88.5595 95.8933 89.1394C95.8933 89.1394 95.7271 88.3558 96.4943 87.2179L96.414 86.6254C96.414 86.6254 96.0262 87.3674 95.9348 87.5916C95.8434 87.8159 95.7742 87.8076 95.7742 87.8076C95.838 87.284 96.046 86.7884 96.3752 86.3762C96.3752 86.3762 96.2866 85.1413 96.2118 85.1413Z" fill="#FFD747"/>
<path d="M139.98 79.9029C139.98 79.9029 137.726 86.127 142.382 86.6807C142.596 86.7855 142.837 86.82 143.072 86.7792C143.307 86.7384 143.523 86.6245 143.689 86.4537C143.689 86.4537 143.362 86.3457 143.664 85.7421C143.77 85.5264 143.849 85.2986 143.899 85.0638C143.97 84.7469 143.936 84.4155 143.802 84.1197C143.802 84.1197 143.595 82.1234 140.892 80.5701C140.892 80.5701 140.407 79.8724 140.238 79.8447L140.379 81.0464C140.379 81.0464 141.257 80.9107 141.814 81.3869C141.814 81.3869 140.429 81.0131 140.39 81.2263C140.39 81.2706 140.493 81.8604 140.493 81.8604C140.493 81.8604 142.022 81.6306 142.858 82.392C142.858 82.392 141.257 81.7247 140.531 82.0846L140.75 82.9679C140.75 82.9679 142.354 82.6439 143.337 83.4773C143.337 83.4773 141.639 82.835 140.808 83.1561L141.138 83.9868C141.138 83.9868 142.708 83.7099 143.523 84.3993C143.523 84.3993 141.487 83.8456 141.227 84.175C141.373 84.4987 141.559 84.8028 141.781 85.0804C141.781 85.0804 142.911 84.9004 143.348 85.3573C143.348 85.3573 141.949 85.1385 141.9 85.2853C141.9 85.2853 142.614 86.1408 143.207 86.3928C142.651 86.1967 142.156 85.8577 141.772 85.4099C141.736 85.7716 141.805 86.1362 141.972 86.4592C141.972 86.4592 141.371 86.1824 141.601 85.2022C141.601 85.2022 141.069 84.51 141.066 84.3716C141.066 84.3716 140.703 85.3074 140.789 85.9636C140.789 85.9636 140.346 85.277 140.972 84.1529L140.623 83.3223C140.623 83.3223 140.069 84.5322 140.108 85.1219C140.108 85.1219 139.764 84.3522 140.551 83.1035L140.329 82.2397C140.039 82.7627 139.819 83.3211 139.673 83.9009C139.673 83.9009 139.509 83.1174 140.277 81.9794L140.196 81.3869C140.196 81.3869 139.809 82.1289 139.714 82.3532C139.62 82.5775 139.554 82.5692 139.554 82.5692C139.619 82.0455 139.828 81.5502 140.158 81.1377C140.158 81.1377 140.058 79.9056 139.98 79.9029Z" fill="#FFD747"/>
<path opacity="0.1" d="M77.4139 130.704C77.4139 130.704 75.1567 136.92 79.8152 137.487C80.0287 137.592 80.27 137.627 80.5044 137.586C80.7388 137.545 80.9543 137.431 81.1197 137.26C81.1197 137.26 80.7957 137.152 81.0948 136.549C81.2013 136.333 81.2812 136.105 81.333 135.87C81.4045 135.553 81.3694 135.221 81.2333 134.926C81.2333 134.926 81.0255 132.93 78.3224 131.379C78.3224 131.379 77.8404 130.679 77.6715 130.651L77.81 131.853C77.81 131.853 78.6907 131.717 79.2447 132.193C79.2447 132.193 77.8598 131.82 77.8238 132.033C77.8238 132.077 77.9263 132.667 77.9263 132.667C77.9263 132.667 79.4551 132.437 80.2888 133.198C80.2888 133.198 78.688 132.531 77.9651 132.891L78.1811 133.774C78.1811 133.774 79.7847 133.45 80.768 134.284C80.768 134.284 79.0729 133.641 78.242 133.963L78.5716 134.793C78.5716 134.793 80.142 134.516 80.9563 135.206C80.9563 135.206 78.9206 134.652 78.6603 134.981C78.8021 135.304 78.9825 135.608 79.1976 135.887C79.1976 135.887 80.3304 135.707 80.768 136.164C80.768 136.164 79.3665 135.945 79.3167 136.092C79.3167 136.092 80.034 136.947 80.6267 137.199C80.07 137.004 79.5743 136.666 79.1893 136.219C79.1526 136.58 79.2229 136.944 79.3914 137.266C79.3914 137.266 78.7877 136.989 79.0175 136.009C79.0175 136.009 78.4885 135.316 78.4858 135.178C78.4858 135.178 78.1202 136.114 78.2088 136.77C78.2088 136.77 77.7657 136.083 78.3916 134.959L78.0426 134.129C78.0426 134.129 77.4887 135.339 77.5302 135.928C77.5302 135.928 77.1868 135.159 77.9734 133.91L77.7518 133.049C77.4614 133.572 77.2407 134.13 77.0954 134.71C77.0954 134.71 76.9292 133.924 77.6964 132.789L77.6161 132.193C77.6161 132.193 77.2284 132.935 77.137 133.16C77.0456 133.384 76.9763 133.376 76.9763 133.376C77.0403 132.852 77.2494 132.356 77.5801 131.944C77.5801 131.944 77.4887 130.704 77.4139 130.704Z" fill="#FFD747"/>
<path opacity="0.1" d="M68.4568 72.1201C68.4568 72.1201 66.2024 78.3331 70.8581 78.9007C71.072 79.0054 71.3134 79.0401 71.548 78.9998C71.7827 78.9596 71.9987 78.8464 72.1654 78.6764C72.1654 78.6764 71.8386 78.5685 72.1405 77.9621C72.2449 77.7459 72.3239 77.5182 72.3759 77.2838C72.4468 76.9678 72.4128 76.6373 72.2789 76.3424C72.2789 76.3424 72.0712 74.3461 69.3653 72.7929C69.3653 72.7929 68.8834 72.0924 68.7144 72.0647L68.8557 73.2691C68.8557 73.2691 69.7336 73.1307 70.2876 73.6069C70.2876 73.6069 68.9028 73.2331 68.8668 73.4491C68.8668 73.4906 68.9692 74.0831 68.9692 74.0831C68.9692 74.0831 70.4981 73.8505 71.3345 74.6147C71.3345 74.6147 69.7336 73.9447 69.008 74.3074L69.224 75.1878C69.224 75.1878 70.8277 74.8639 71.8137 75.6973C71.8137 75.6973 70.1159 75.0549 69.285 75.3789L69.6146 76.2095C69.6146 76.2095 71.1849 75.9326 71.9992 76.6248C71.9992 76.6248 69.9635 76.0711 69.7032 76.3978C69.845 76.7202 70.0255 77.0242 70.2405 77.3031C70.2405 77.3031 71.3733 77.1259 71.8109 77.58C71.8109 77.58 70.4122 77.3613 70.3624 77.5053C70.3624 77.5053 71.0769 78.3636 71.6696 78.6128C71.1134 78.4152 70.6181 78.0765 70.2322 77.6299C70.1955 77.9919 70.2658 78.3567 70.4344 78.6792C70.4344 78.6792 69.8306 78.4023 70.0632 77.4194C70.0632 77.4194 69.5315 76.73 69.5287 76.5888C69.5287 76.5888 69.1659 77.5219 69.2517 78.1808C69.2517 78.1808 68.8058 77.4914 69.4345 76.3701L69.0828 75.5395C69.0828 75.5395 68.5289 76.7494 68.5704 77.3419C68.5704 77.3419 68.227 76.5694 69.0135 75.3207L68.792 74.4597C68.5021 74.9826 68.2815 75.5411 68.1356 76.1209C68.1356 76.1209 67.9722 75.3373 68.7366 74.1994L68.659 73.6069C68.659 73.6069 68.2685 74.3489 68.1771 74.5704C68.0857 74.7919 68.0165 74.7891 68.0165 74.7891C68.0805 74.2651 68.2896 73.7693 68.6203 73.3577C68.6203 73.3577 68.5344 72.1201 68.4568 72.1201Z" fill="#FFD747"/>
<path opacity="0.1" d="M85.1973 105.954C85.1973 105.954 86.9394 112.322 91.0717 110.107C91.3065 110.07 91.5235 109.959 91.6917 109.791C91.8598 109.623 91.9705 109.406 92.0078 109.171C92.0078 109.171 91.681 109.271 91.5785 108.604C91.5395 108.367 91.4725 108.135 91.3791 107.914C91.2563 107.614 91.0371 107.362 90.7559 107.2C90.7559 107.2 89.4348 105.688 86.3245 105.976C86.3245 105.976 85.5269 105.685 85.3718 105.76L86.1805 106.66C86.1805 106.66 86.8203 106.043 87.5487 106.106C87.5487 106.106 86.1943 106.605 86.294 106.796C86.3162 106.834 86.7427 107.255 86.7427 107.255C86.7427 107.255 87.8506 106.184 88.9806 106.325C88.9806 106.325 87.2883 106.701 86.9061 107.416L87.5902 108.011C87.5902 108.011 88.7147 106.823 89.9998 106.934C89.9998 106.934 88.2411 107.388 87.7481 108.13L88.5014 108.626C88.5014 108.626 89.6093 107.488 90.6895 107.59C90.6895 107.59 88.7119 108.318 88.6815 108.728C88.984 108.91 89.3077 109.054 89.6453 109.157C89.6453 109.157 90.4762 108.36 91.0828 108.473C91.0828 108.473 89.8115 109.102 89.8558 109.249C89.8558 109.249 90.936 109.526 91.5591 109.393C90.9917 109.553 90.3921 109.563 89.8198 109.42C89.998 109.737 90.2658 109.994 90.5898 110.16C90.5898 110.16 89.9361 110.279 89.5595 109.346C89.5595 109.346 88.7286 109.088 88.6399 108.972C88.6399 108.972 88.8837 109.946 89.3323 110.434C89.3323 110.434 88.5735 110.126 88.4378 108.847L87.6706 108.368C87.6706 108.368 87.9226 109.672 88.2882 110.135C88.2882 110.135 87.5625 109.703 87.485 108.23L86.8092 107.654C86.875 108.251 87.0184 108.838 87.2357 109.398C87.2357 109.398 86.6513 108.844 86.6209 107.482L86.2137 107.042C86.2137 107.042 86.3245 107.873 86.3771 108.108C86.4298 108.343 86.3771 108.385 86.3771 108.385C86.1276 107.92 86.0126 107.394 86.0448 106.868C86.0448 106.868 85.261 105.912 85.1973 105.954Z" fill="#FFD747"/>
<path d="M132.458 111.641C132.458 111.641 134.2 118.009 138.33 115.794C138.565 115.758 138.783 115.647 138.952 115.479C139.12 115.311 139.231 115.093 139.269 114.858C139.269 114.858 138.939 114.958 138.836 114.304C138.8 114.067 138.734 113.836 138.64 113.615C138.515 113.315 138.295 113.064 138.014 112.901C138.014 112.901 136.693 111.389 133.582 111.68C133.582 111.68 132.785 111.386 132.632 111.461L133.438 112.361C133.438 112.361 134.078 111.743 134.807 111.807C134.807 111.807 133.452 112.305 133.555 112.496C133.574 112.535 134.003 112.956 134.003 112.956C134.003 112.956 135.111 111.885 136.241 112.026C136.241 112.026 134.546 112.402 134.164 113.117L134.851 113.712C134.851 113.712 135.959 112.524 137.258 112.635C137.258 112.635 135.502 113.089 135.009 113.831L135.762 114.327C135.762 114.327 136.87 113.189 137.947 113.291C137.947 113.291 135.97 114.019 135.942 114.429C136.244 114.611 136.567 114.755 136.903 114.858C136.903 114.858 137.734 114.061 138.341 114.174C138.341 114.174 137.072 114.803 137.114 114.95C137.114 114.95 138.194 115.226 138.82 115.093C138.251 115.254 137.651 115.264 137.078 115.121C137.257 115.437 137.524 115.694 137.848 115.86C137.848 115.86 137.194 115.979 136.817 115.046C136.817 115.046 135.987 114.789 135.901 114.673C135.901 114.673 136.142 115.647 136.59 116.135C136.59 116.135 135.831 115.827 135.696 114.548L134.929 114.064C134.929 114.064 135.181 115.368 135.549 115.83C135.549 115.83 134.823 115.398 134.746 113.925L134.067 113.349C134.133 113.947 134.277 114.533 134.496 115.093C134.496 115.093 133.909 114.54 133.879 113.178L133.472 112.737C133.472 112.737 133.582 113.568 133.635 113.803C133.688 114.039 133.635 114.08 133.635 114.08C133.386 113.615 133.271 113.09 133.303 112.563C133.303 112.563 132.522 111.599 132.458 111.641Z" fill="#FFD747"/>
<path d="M114.727 175.593C114.727 175.593 129.096 170.756 126.121 153.618L107.869 148.88L103.632 162.943L114.727 175.593Z" fill="#CED7E7"/>
<path opacity="0.1" d="M103.632 162.943L114.724 175.593C114.724 175.593 129.093 170.756 126.119 153.618L103.632 162.943Z" fill="black"/>
<path d="M43.2537 36.3286C43.2537 36.3286 45.1924 39.4822 47.843 37.9068C50.4935 36.3314 47.951 31.979 47.951 31.979C47.951 31.979 42.8742 31.284 43.2537 36.3286Z" fill="#FED253"/>
<path opacity="0.1" d="M47.843 37.9067C47.5304 38.1089 47.1797 38.2451 46.8125 38.307C46.4453 38.3689 46.0693 38.3552 45.7076 38.2666C44.7355 38.0202 43.9877 37.2726 43.5861 36.7826C43.4663 36.639 43.3553 36.4883 43.2537 36.3313C43.118 34.5316 43.6775 33.4601 44.453 32.8288C45.5193 31.9622 46.9955 31.9262 47.6325 31.9539C47.8292 31.9539 47.9427 31.9816 47.9427 31.9816L47.9954 32.0702C48.0701 32.2114 48.2336 32.5243 48.408 32.9423C49.0007 34.3129 49.707 36.7964 47.843 37.9067Z" fill="black"/>
<path d="M116.14 152.812L126.111 153.618L144.667 153.77L130.046 171.767C130.046 171.767 125.407 172.019 124.452 172.672C123.496 173.326 110.08 172.977 110.08 172.977L107.914 163.751L116.14 152.812Z" fill="#FFA2A2"/>
<path opacity="0.05" d="M116.14 152.812L126.111 153.618L144.667 153.77L130.046 171.767C130.046 171.767 125.407 172.019 124.452 172.672C123.496 173.326 110.08 172.977 110.08 172.977L107.914 163.751L116.14 152.812Z" fill="black"/>
<path d="M106.055 104.426L108.373 108.357L108.877 115.213C108.877 115.213 110.492 121.057 111.702 122.771C112.913 124.485 113.417 129.023 113.417 129.023C113.417 129.023 113.921 133.256 114.525 134.162C115.128 135.067 115.937 141.637 115.937 141.637C115.937 141.637 121.282 152.322 126.121 153.631C126.121 153.631 102.122 161.495 114.727 175.607C114.727 175.607 105.753 177.822 103.634 175.305C101.516 172.788 95.9707 135.488 95.9707 135.488L97.6851 104.035L106.055 104.426Z" fill="#CED7E7"/>
<path opacity="0.05" d="M106.055 104.426L108.373 108.357L108.877 115.213C108.877 115.213 110.492 121.057 111.702 122.771C112.913 124.485 113.417 129.023 113.417 129.023C113.417 129.023 113.921 133.256 114.525 134.162C115.128 135.067 115.937 141.637 115.937 141.637C115.937 141.637 121.282 152.322 126.121 153.631C126.121 153.631 102.122 161.495 114.727 175.607C114.727 175.607 105.753 177.822 103.634 175.305C101.516 172.788 95.9707 135.488 95.9707 135.488L97.6851 104.035L106.055 104.426Z" fill="black"/>
<path d="M76.9383 66.109C76.2649 69.6013 76.4647 73.2059 77.52 76.6025L73.7865 87.287C73.7865 87.287 45.3506 71.4609 47.7712 67.629C49.1422 65.4556 49.3167 59.7049 49.2059 55.1365C49.1256 51.6645 48.8791 48.8792 48.8791 48.8792C48.8791 48.8792 83.7766 52.3096 79.1319 60.2725C78.0808 62.0823 77.3394 64.055 76.9383 66.109Z" fill="#FFA2A2"/>
<path opacity="0.1" d="M79.1317 60.2725C78.0806 62.0823 77.3392 64.055 76.9382 66.109C71.7593 67.7652 66.1664 67.5772 61.1106 65.5768C56.0547 63.5764 51.848 59.8872 49.2057 55.1365C49.1254 51.6645 48.8789 48.8792 48.8789 48.8792C48.8789 48.8792 83.7681 52.3096 79.1317 60.2725Z" fill="black"/>
<path d="M93.2483 43.134C93.2507 46.8299 92.3806 50.4743 90.7089 53.7708C89.0372 57.0672 86.6109 59.9229 83.6274 62.1055C80.6438 64.2882 77.1872 65.7363 73.5384 66.332C69.8897 66.9278 66.1517 66.6545 62.6285 65.5343C59.1053 64.4141 55.8963 62.4786 53.2622 59.8852C50.6281 57.2917 48.6434 54.1135 47.4693 50.6089C46.2952 47.1044 45.9649 43.3723 46.5053 39.7161C47.0456 36.0598 48.4414 32.5827 50.5791 29.5672C50.9115 29.1002 51.2614 28.6443 51.6288 28.1995C53.7225 25.6556 56.3278 23.5803 59.2758 22.1083C60.8752 21.3084 62.5621 20.697 64.3027 20.2864C67.4456 19.5421 70.708 19.4523 73.8871 20.0225C77.0662 20.5926 80.0939 21.8107 82.7819 23.6008C85.4699 25.3909 87.7606 27.7148 89.5117 30.4279C91.2627 33.141 92.4366 36.1853 92.9602 39.3713C93.1558 40.6159 93.2522 41.8741 93.2483 43.134Z" fill="#FFA2A2"/>
<path d="M102.524 139.71C102.172 141.587 102.612 145.018 103.28 148.509C103.307 148.662 103.338 148.814 103.368 148.966C103.399 149.118 103.443 149.354 103.482 149.545C103.789 151.045 104.124 152.532 104.451 153.883C104.778 155.234 105.072 156.392 105.321 157.344C105.698 158.77 105.955 159.667 105.955 159.667C105.955 159.667 105.988 160.548 106.033 161.949C106.058 162.757 106.085 163.743 106.113 164.831C106.113 165.147 106.132 165.468 106.141 165.8C106.155 166.379 106.168 166.979 106.182 167.594C106.182 167.793 106.182 167.993 106.196 168.195C106.196 168.857 106.221 169.532 106.232 170.205C106.246 171.13 106.257 172.055 106.263 172.952C106.263 173.295 106.263 173.633 106.263 173.965C106.263 174.823 106.263 175.646 106.263 176.401C106.232 178.547 106.146 180.167 105.963 180.635C105.9 180.795 105.842 180.97 105.786 181.153C105.546 182.012 105.372 182.889 105.266 183.775L104.795 183.39C103.895 182.648 103.003 181.889 102.097 181.153C100.592 179.892 98.9937 178.746 97.3167 177.725C97.2031 177.658 97.0895 177.592 96.9732 177.528C96.663 177.348 96.3473 177.179 96.026 177.019C95.3642 176.685 94.6856 176.386 93.9931 176.122C90.7942 174.904 87.3681 174.461 83.895 174.535C82.5101 175.064 81.61 175.443 81.61 175.443L79.8485 175.975L79.5549 176.064C77.6467 176.645 74.9629 177.47 73.9963 177.814C72.4342 178.367 58.8712 181.189 58.8712 181.189C57.6322 181.527 56.3664 181.758 55.0879 181.881C52.7599 182.535 50.3901 183.031 47.9948 183.365C42.5518 184.06 37.0235 183.615 31.7619 182.058C31.6049 182.067 31.4473 182.063 31.2911 182.044C31.388 182.044 31.4822 182.022 31.5681 182.005L31.2302 181.906L30.7676 181.762C29.9921 181.518 29.2231 181.251 28.4605 180.962L27.998 180.784C27.2594 180.5 26.5366 180.195 25.8294 179.868L25.3668 179.657C24.6283 179.314 23.9054 178.951 23.1982 178.569C22.9434 178.436 22.6914 178.293 22.4421 178.157C21.6888 177.736 20.9502 177.295 20.2264 176.833C20.1045 175.79 20.0408 175.092 20.0408 175.092L18.9607 169.715L18.9053 169.438L18.1298 165.562L18.0744 165.285L16.3877 156.851L16.3323 156.575L15.5568 152.698L15.5014 152.421L13.7925 143.993L13.7371 143.717L12.9616 139.84L12.9062 139.563L11.2112 131.119L11.1558 130.842L10.3803 126.98L10.3249 126.703L10.0175 125.18L9.55494 122.874C9.55494 122.874 8.07872 120.764 6.41694 118.269L6.23137 117.992C5.75776 117.292 5.2703 116.564 4.7967 115.849C4.63883 115.614 4.4865 115.381 4.33417 115.152C4.10336 114.803 3.87994 114.462 3.66391 114.13L3.51435 113.9L3.48388 113.853C1.09645 110.16 2.69453 108.554 2.69453 108.554C2.69453 108.554 3.69715 107.197 4.99057 105.403C5.05427 105.311 5.12074 105.22 5.18998 105.126C5.74391 104.351 6.35324 103.503 6.95148 102.656L7.41401 101.997C7.5885 101.751 7.76021 101.504 7.92639 101.261C7.99286 101.169 8.05657 101.075 8.1175 100.984C9.3943 99.1399 10.4468 97.5313 10.6628 96.961C11.0007 96.0611 13.1555 93.4004 15.302 91.0663C16.9942 89.2223 18.6782 87.5832 19.4343 87.1901C21.1487 86.2847 21.8549 83.3582 21.8549 83.3582C21.8549 83.3582 25.5856 82.0513 26.0897 81.0435C26.5938 80.0357 33.6536 75.506 33.6536 75.506C33.6536 75.506 36.5091 73.6676 37.6641 72.5601C37.8276 72.4153 37.9702 72.2485 38.0878 72.0645C38.4894 71.3446 41.1123 70.7521 42.1786 70.5389C42.4555 70.4836 42.6273 70.4531 42.6273 70.4531C43.0577 69.6711 43.6019 68.9573 44.242 68.335C44.6768 67.9502 45.2197 66.6239 45.6766 65.3392C46.1724 63.9383 46.5574 62.5899 46.5574 62.5899C47.3661 59.8682 48.9781 60.6739 48.9781 60.6739C48.9759 61.0457 49.0111 61.4167 49.0833 61.7814C49.7563 65.1039 53.4123 66.4883 55.3316 68.0415C57.4504 69.7526 60.7767 74.1909 63.3996 75.0963C65.571 75.8466 68.0886 78.6762 68.8863 79.6204L68.9472 79.6924C69.0801 79.8474 69.1466 79.936 69.1466 79.936C69.1466 79.936 70.6339 79.8585 71.5396 79.8419H71.8692C72.0534 79.8234 72.2284 79.7523 72.3733 79.637C73.2734 79.0251 74.6139 77.231 75.1983 76.8184C75.9018 76.3117 76.6108 68.1467 76.6108 68.1467L76.6468 68.1301C79.1589 66.9534 81.8537 78.7316 81.8537 78.7316C81.8537 78.7316 86.5926 80.1437 86.997 81.1515C87.0745 81.3508 87.4318 81.7052 87.9691 82.1344C90.4156 84.0035 93.0196 85.657 95.7518 87.0766C95.8127 87.107 95.8709 87.1375 95.9318 87.1624C95.9868 87.192 96.0432 87.2188 96.1008 87.2427C96.2033 87.2925 96.303 87.3368 96.3971 87.3784C96.5467 87.4448 96.6852 87.5002 96.8126 87.5445L96.9788 87.6026C97.3757 87.7347 97.7495 87.928 98.0866 88.1758C98.1863 88.2477 98.286 88.3225 98.383 88.4028C98.7601 88.7166 99.1069 89.0651 99.4188 89.4438C99.4659 89.4992 99.5102 89.5574 99.5545 89.6127C99.765 89.8758 99.9534 90.136 100.108 90.3769C100.363 90.7485 100.595 91.135 100.804 91.5342C100.804 91.5342 104.936 98.5917 106.249 99.3947C107.562 100.198 108.368 108.368 108.368 108.368L103.936 124.789C103.936 124.789 103.728 128.943 103.341 133.179C103.125 135.554 102.85 137.971 102.524 139.71Z" fill="#CED7E7"/>
<path d="M69.1466 80.4344C69.1466 80.4344 66.1747 82.0458 63.8538 82.1981C63.55 82.2123 63.2455 82.1946 62.9453 82.1455C60.5136 81.7772 56.9463 79.7782 56.9463 79.7782L61.1312 75.1904L66.2218 77.7127L68.0941 79.4543L69.1466 80.4344Z" fill="#63667E"/>
<path opacity="0.1" d="M92.9493 39.3714C92.844 39.5203 92.7243 39.6585 92.592 39.7839C91.1352 41.1683 88.5483 40.5952 86.5625 40.274C84.8369 39.992 83.1512 39.5049 81.5411 38.8232C80.1397 38.2251 78.4585 37.4942 77.1983 38.3525C76.7137 38.6792 76.3813 39.2025 75.8772 39.4905C75.3731 39.7784 74.7306 39.7978 74.1351 39.8061C72.1964 39.8061 70.2576 39.8282 68.3659 39.3908C65.5437 38.7318 62.6245 37.0734 59.9407 38.167C57.8413 39.0198 56.703 41.304 56.1352 43.4996C55.8582 44.5766 55.6533 45.7146 55.0273 46.6283C54.4014 47.5419 53.1911 48.1898 52.1608 47.7607C50.6402 47.1266 50.4159 44.5462 48.5824 44.416C46.5688 44.2748 46.5938 46.3542 47.1809 47.8576C48.0506 50.0726 49.1889 52.2875 49.2388 54.5967C47.0748 50.722 46.0522 46.3141 46.2895 41.8828C46.5267 37.4515 48.014 33.1779 50.5793 29.5562C51.0257 29.2799 51.3751 28.8715 51.5791 28.3878C51.5996 28.3224 51.6163 28.2559 51.629 28.1885C51.7813 27.416 51.352 26.6048 51.3271 25.7963C51.2302 23.8222 53.3683 22.4461 55.3292 22.197C56.6337 22.0308 57.9687 22.1582 59.276 22.1167C59.9345 22.1022 60.5893 22.0149 61.2286 21.8564C62.3314 21.526 63.3641 20.9958 64.2752 20.2921C67.418 19.5477 70.6805 19.4579 73.8596 20.0281C77.0386 20.5983 80.0664 21.8163 82.7544 23.6064C85.4423 25.3965 87.7331 27.7204 89.4842 30.4335C91.2352 33.1466 92.409 36.1909 92.9327 39.3769L92.9493 39.3714Z" fill="black"/>
<path d="M93.4232 37.7407C93.2851 38.2884 92.9975 38.7868 92.5923 39.1805C91.1355 40.5648 88.5486 39.9889 86.5628 39.6678C84.8371 39.3919 83.1511 38.9085 81.5414 38.228C80.14 37.6327 78.4588 36.9018 77.1986 37.7601C76.714 38.0868 76.3816 38.6101 75.8775 38.8981C75.3734 39.186 74.7309 39.2054 74.1354 39.2109C72.1967 39.2248 70.2579 39.2358 68.3663 38.7984C65.544 38.1366 62.6248 36.4809 59.941 37.5718C57.8416 38.4246 56.7033 40.7116 56.1355 42.9072C55.8585 43.9842 55.6536 45.1222 55.0276 46.0331C54.4017 46.944 53.1914 47.5974 52.1611 47.1683C50.6405 46.5342 50.4162 43.9538 48.5827 43.8236C46.5692 43.6824 46.5941 45.7617 47.1812 47.2652C48.2115 49.8872 49.613 52.4953 49.1532 55.2751C48.6962 55.2751 47.9401 55.2585 47.4914 55.2474C47.8404 54.6521 47.1757 53.9433 46.5138 53.7412C45.8518 53.5391 45.0791 53.5419 44.575 53.0601C44.0709 52.5784 44.0682 51.8336 44.1208 51.1663C44.2357 49.7401 44.5847 48.3426 45.1539 47.0298C45.5167 46.1992 45.9848 45.2994 45.7078 44.43C45.5415 44.0359 45.3414 43.657 45.1095 43.2976C44.5335 42.1901 44.6692 40.8057 45.1622 39.6622C45.3727 39.1749 45.525 38.7153 45.6995 38.2779C45.9198 37.656 46.2387 37.0736 46.6439 36.5529C47.2782 35.7638 47.8986 34.5761 47.1979 33.8423C47.0206 33.6568 47.3751 33.5295 47.2616 33.2886C47.2415 33.2475 47.2275 33.2036 47.22 33.1585C47.1875 32.8668 47.258 32.573 47.4194 32.3278C47.4521 32.2642 47.4882 32.2022 47.5274 32.1423C47.5593 32.0791 47.5954 32.018 47.6355 31.9596C48.2488 30.936 49.0638 30.0477 50.0312 29.3487C50.6322 28.914 51.3357 28.4959 51.5739 27.7927C51.8509 26.962 51.3634 26.0788 51.3219 25.2011C51.2249 23.227 53.3631 21.851 55.324 21.6018C57.2849 21.3526 59.3178 21.7651 61.2289 21.2585C63.9404 20.5441 65.8459 18.1519 68.3081 16.8091C69.6551 16.0891 71.1488 15.6864 72.6753 15.6317C74.2017 15.577 75.7205 15.8717 77.1156 16.4935C79.9904 17.8058 82.1591 20.4583 85.1614 21.455C86.2249 21.8094 87.3771 21.9506 88.3354 22.5376C89.4432 23.2187 90.1163 24.4093 90.6923 25.5832C91.5703 27.3635 91.7476 29.1521 92.3541 31.0376C92.8361 32.5327 93.5035 34.4875 93.5589 36.2096C93.5901 36.7239 93.5443 37.2399 93.4232 37.7407Z" fill="#896363"/>
<g opacity="0.1">
<path d="M47.5567 34.2713C47.601 34.0941 47.6054 33.9093 47.5695 33.7302C47.5336 33.5511 47.4582 33.3823 47.349 33.2358C47.421 33.4518 47.108 33.5764 47.2798 33.7564C47.4166 33.9001 47.5122 34.078 47.5567 34.2713Z" fill="black"/>
<path d="M47.3414 32.6018C47.3087 32.6984 47.2892 32.799 47.2832 32.9008C47.3358 32.8122 47.4078 32.7209 47.3414 32.6018Z" fill="black"/>
<path d="M92.6691 38.5048C91.2095 39.8891 88.6255 39.316 86.6341 38.9921C84.9096 38.7145 83.2253 38.2282 81.6183 37.544C80.214 36.946 78.5356 36.215 77.2727 37.0733C76.7908 37.4 76.4584 37.9233 75.9516 38.2113C75.4447 38.4992 74.8049 38.5186 74.2095 38.5242C72.2707 38.5242 70.332 38.5491 68.4375 38.1088C65.618 37.4499 62.6988 35.7969 60.015 36.8851C57.9156 37.7406 56.7773 40.0248 56.2095 42.2204C55.9326 43.2974 55.7304 44.4354 55.1017 45.3491C54.473 46.2628 53.2626 46.9106 52.2351 46.4843C50.7146 45.8475 50.4902 43.2698 48.6567 43.1396C47.2248 43.0372 46.826 44.0616 46.9229 45.1996C47.006 44.3302 47.4769 43.6602 48.6567 43.7432C50.4902 43.8733 50.7146 46.4538 52.2351 47.0878C53.2626 47.517 54.4757 46.8719 55.1017 45.9527C55.7276 45.0334 55.9326 43.901 56.2095 42.8268C56.7773 40.6312 57.9156 38.3442 60.015 37.4914C62.6988 36.4005 65.618 38.0452 68.4375 38.7152C70.3209 39.1554 72.2762 39.1416 74.2095 39.1277C74.8049 39.1277 75.4336 39.1111 75.9516 38.8176C76.4695 38.5242 76.7825 38.0064 77.2727 37.6769C78.5356 36.8214 80.214 37.5523 81.6183 38.1476C83.2256 38.8315 84.9098 39.3186 86.6341 39.5984C88.6255 39.9196 91.2095 40.4983 92.6691 39.1084C93.4613 38.3525 93.6995 37.2588 93.6468 36.0627C93.6025 37.0124 93.3256 37.8735 92.6691 38.5048Z" fill="black"/>
<path d="M51.4184 24.7C51.4031 24.8378 51.3975 24.9766 51.4018 25.1153C51.4295 25.6912 51.6483 26.2671 51.7175 26.8291C51.82 26.1397 51.5015 25.4198 51.4184 24.7Z" fill="black"/>
<path d="M45.7906 44.3442C45.8134 44.427 45.831 44.5111 45.8432 44.5962C45.8881 44.3105 45.8702 44.0186 45.7906 43.7406C45.6255 43.3451 45.4253 42.9652 45.1924 42.6054C44.9843 42.1959 44.8609 41.7486 44.8295 41.2903C44.7732 41.9519 44.8987 42.6163 45.1924 43.2118C45.4258 43.5703 45.626 43.9493 45.7906 44.3442Z" fill="black"/>
<path d="M49.2277 54.583L47.6075 54.5581C47.6453 54.6559 47.6604 54.761 47.6518 54.8656C47.6431 54.9701 47.611 55.0713 47.5576 55.1616C48.0146 55.1616 48.7735 55.1783 49.2194 55.1893C49.2969 54.7155 49.3238 54.2347 49.2997 53.7551C49.2934 54.0323 49.2694 54.3088 49.2277 54.583Z" fill="black"/>
<path d="M46.5768 53.0518C45.9148 52.8525 45.1449 52.8497 44.6519 52.3652C44.3616 52.0478 44.198 51.635 44.1921 51.2051C44.1505 51.8419 44.1921 52.5285 44.6519 52.9715C45.1449 53.4561 45.9148 53.4588 46.5768 53.6582C46.7921 53.7208 46.9924 53.8268 47.1653 53.9696C47.3382 54.1125 47.4801 54.2891 47.5821 54.4888C47.8619 53.9157 47.2193 53.2429 46.5768 53.0518Z" fill="black"/>
</g>
<path opacity="0.1" d="M96.9648 177.528C96.6546 177.349 96.3388 177.18 96.0175 177.019C95.3557 176.685 94.6772 176.386 93.9846 176.122C90.7857 174.904 87.3596 174.461 83.8865 174.535C82.5017 175.064 81.6015 175.444 81.6015 175.444L79.8401 175.975L79.5465 176.064C79.5271 175.87 79.5049 175.676 79.4855 175.48C79.4661 175.283 79.444 175.095 79.4218 174.901C78.8014 169.028 78.314 162.995 78.314 162.995V157.785V157.178L78.2807 141.826L78.0038 136.764L77.8736 134.524L77.8487 134.098L77.7988 133.223L77.7711 132.703C77.71 132.538 77.6582 132.37 77.616 132.199C77.5966 132.13 77.5772 132.052 77.5606 131.972C77.4914 131.695 77.4166 131.338 77.3391 130.95C76.8322 128.403 76.198 124.109 76.1592 123.236C76.1093 122.074 75.1012 115.118 75.1012 115.118C74.9987 111.289 71.7776 104.079 70.9661 102.72C70.1546 101.361 69.2489 93.1928 69.5536 92.7526C69.7115 92.5173 69.8139 91.1246 69.8776 89.8399C69.8776 89.6932 69.8915 89.5492 69.897 89.408C69.9386 88.4029 69.958 87.564 69.958 87.564L73.1264 86.9383L73.9767 86.7721L74.0432 86.7583L74.0709 86.8137C74.1623 86.9826 74.4476 87.5225 74.7827 88.2313C74.8215 88.306 74.8575 88.3863 74.8962 88.4666C74.9129 88.5054 74.9322 88.5441 74.9516 88.5829C75.572 89.9396 76.2894 91.7254 76.2589 92.7526C76.209 94.5689 78.278 98.9546 78.278 98.9546C78.4774 99.9624 82.8645 109.991 82.8645 109.991C82.8645 109.991 86.4457 119.82 86.2435 121.434C86.0413 123.048 87.9579 133.733 87.9579 133.733L89.9243 144.722C90.8799 146.887 92.14 151.876 92.14 151.876L92.6192 154.706L92.7106 155.246L93.9874 162.796L94.6133 166.495C94.6133 166.495 94.8764 168.461 95.2753 170.648C95.3085 170.845 95.3473 171.044 95.3861 171.243C95.6318 172.683 95.9807 174.104 96.4302 175.493C96.6531 176.159 96.8317 176.839 96.9648 177.528Z" fill="black"/>
<path d="M97.3084 177.725C97.1948 177.659 97.0812 177.592 96.9649 177.528C96.6547 177.348 96.339 177.18 96.0177 177.019C95.3558 176.685 94.6773 176.386 93.9848 176.122C90.7858 174.904 87.3598 174.461 83.8867 174.535C82.5018 175.064 81.6017 175.444 81.6017 175.444L79.8402 175.975C79.8181 175.781 79.7987 175.588 79.7765 175.391C79.7543 175.194 79.7377 175.037 79.7211 174.859C79.1007 169.001 78.6133 162.995 78.6133 162.995V157.735V157.128L78.58 141.814L78.3031 136.98L78.2477 135.978L78.2089 135.3L78.159 134.403L78.1092 133.492L78.0732 132.835V132.692C78.0732 132.678 78.0732 132.661 78.0538 132.644C78.0012 132.495 77.9375 132.268 77.8682 131.98L77.835 131.842C77.8211 131.778 77.8045 131.709 77.7907 131.639C77.27 129.278 76.5056 124.186 76.464 123.231C76.4142 122.068 75.406 115.113 75.406 115.113C75.3035 111.284 72.0824 104.074 71.2709 102.714C70.4594 101.355 69.5565 93.1872 69.8584 92.747C70.0329 92.4701 70.1354 90.7895 70.2018 89.4024C70.2018 89.2916 70.2018 89.1836 70.2018 89.0812C70.2378 88.2257 70.2517 87.5584 70.2517 87.5584L73.1986 86.977L73.9464 86.8302L74.0627 86.8081L74.3397 86.7527C74.3397 86.7527 74.7025 87.4227 75.1374 88.3447L75.1927 88.461C75.827 89.8287 76.5776 91.6893 76.5554 92.747C76.5056 94.5633 78.5745 98.949 78.5745 98.949C78.7739 99.9568 83.161 109.985 83.161 109.985C83.161 109.985 86.7422 119.814 86.54 121.428C86.3378 123.042 88.2544 133.727 88.2544 133.727L90.2208 144.716C91.1764 146.881 92.4365 151.871 92.4365 151.871L92.8825 154.506L92.9739 155.041L93.9792 160.999L94.9071 166.489C94.9071 166.489 95.184 168.447 95.5662 170.643C95.6023 170.842 95.6383 171.041 95.677 171.243C95.9224 172.69 96.2713 174.116 96.7212 175.513C96.9667 176.236 97.1629 176.975 97.3084 177.725Z" fill="#63667E"/>
<path d="M94.8102 35.5257C94.8102 35.5257 93.7522 36.8879 92.7967 36.8879C91.8411 36.8879 88.1215 36.7356 86.1828 36.132C84.244 35.5284 74.7386 35.0716 74.7386 35.0716C74.7386 35.0716 61.2781 35.1214 60.8239 34.6673C60.3697 34.2133 52.454 31.7934 51.6481 31.9457C51.4791 31.9789 51.0664 32.0509 50.5153 32.1423L49.8838 32.2447C48.9283 32.397 47.7346 32.5742 46.6433 32.7043C45.2945 32.8621 44.1091 32.9424 43.7324 32.804V31.6439C43.7324 31.6439 45.2945 29.3735 45.3942 28.7229C45.4939 28.0722 46.8067 18.6391 50.2355 15.2641C51.6521 12.5571 53.9445 10.4099 56.7387 9.17284C61.3778 7.15444 66.017 5.44336 66.017 5.44336L66.8285 5.32707L69.4458 4.93945C69.5254 4.86027 69.6115 4.78803 69.7034 4.72349C70.429 4.16974 72.6281 2.96534 75.4947 5.55411L76.0015 6.36258C76.0015 6.36258 84.8229 8.42806 88.9053 15.6351C92.9878 22.8421 93.1927 29.8996 93.4946 33.1252C93.4946 33.1252 93.2924 34.0333 93.6968 34.3849C93.8432 34.5142 93.9828 34.651 94.115 34.7947C94.151 34.8307 94.187 34.8667 94.2203 34.9055C94.3366 35.0217 94.4446 35.1436 94.5332 35.2432C94.5438 35.251 94.5531 35.2604 94.5609 35.2709C94.5826 35.2972 94.6057 35.3221 94.6302 35.3457L94.8102 35.5257Z" fill="#FED253"/>
<path opacity="0.05" d="M94.8109 35.5255C94.8109 35.5255 93.7529 36.8877 92.7973 36.8877C91.8418 36.8877 88.1222 36.7354 86.1834 36.1319C84.2447 35.5283 74.7393 35.0714 74.7393 35.0714C74.7393 35.0714 61.2788 35.1213 60.8246 34.6672C60.3704 34.2131 52.4547 31.7933 51.6487 31.9455C51.4798 31.9788 51.0671 32.0508 50.516 32.1421L50.3719 31.2561L50.3359 31.0374C50.3359 31.0374 65.6133 27.762 75.7973 29.4786C85.9813 31.1952 93.4953 33.1056 93.4953 33.1056C93.4953 33.1056 93.2931 34.0138 93.6975 34.3654C93.8439 34.4947 93.9835 34.6315 94.1157 34.7752C94.1517 34.8112 94.1877 34.8472 94.2209 34.8859C94.3373 35.0022 94.4453 35.124 94.5339 35.2237C94.5445 35.2315 94.5538 35.2408 94.5616 35.2514C94.5833 35.2776 94.6064 35.3025 94.6309 35.3262L94.8109 35.5255Z" fill="black"/>
<path opacity="0.1" d="M93.4227 37.7406C91.5366 37.8874 88.0607 37.4277 86.5402 37.2035C86.1081 37.1398 85.6843 37.0623 85.2578 36.9681C83.6265 36.6137 78.6107 35.6198 75.5641 36.0794C71.8832 36.6331 61.497 35.6253 61.497 35.6253C61.497 35.6253 55.0936 34.3157 52.5206 33.258C51.5762 32.8676 49.9975 32.7458 48.4271 32.9396C48.0266 32.9896 47.6291 33.0607 47.2362 33.1528C45.0924 33.6595 43.2839 34.8141 43.5968 36.7826C43.477 36.639 43.366 36.4883 43.2645 36.3313C43.1288 34.5316 43.6882 33.4601 44.4637 32.8289L44.6465 32.7541C45.5939 32.485 46.558 32.2788 47.5325 32.1367C47.6848 32.1118 47.8427 32.0896 48.0033 32.0702C50.7591 31.6992 54.7447 31.6162 58.107 33.3079C58.107 33.3079 61.2312 34.7725 63.3499 34.7725C65.4687 34.7725 82.7098 34.9248 86.7451 36.0821C87.5485 36.3142 88.3677 36.4872 89.1963 36.5999C90.6675 36.7895 92.1625 36.6486 93.5723 36.1874C93.6011 36.7097 93.5507 37.2334 93.4227 37.7406Z" fill="black"/>
<path opacity="0.1" d="M94.8102 35.5257C94.8102 35.5257 93.7522 36.8879 92.7967 36.8879C91.8411 36.8879 88.1215 36.7356 86.1828 36.132C84.244 35.5284 74.7386 35.0716 74.7386 35.0716C74.7386 35.0716 61.2781 35.1214 60.8239 34.6674C60.3697 34.2133 52.454 31.7934 51.6481 31.9457C51.4791 31.9789 51.0664 32.0509 50.5153 32.1423L49.8838 32.2447C48.787 32.2391 47.6953 32.394 46.6433 32.7043C45.2945 32.8621 44.1091 32.9424 43.7324 32.804V32.5742C44.0228 32.4057 44.3256 32.2595 44.6381 32.1367C46.5071 31.6135 48.4316 31.3143 50.3713 31.2452C52.7892 31.1566 55.617 31.439 58.1013 32.6905C58.1013 32.6905 61.2255 34.1551 63.3443 34.1551C65.4631 34.1551 82.7041 34.3047 86.7395 35.4648C87.5432 35.6946 88.3623 35.8667 89.1906 35.9797C91.008 36.2087 92.8537 35.9437 94.5332 35.2128C94.5438 35.2206 94.5531 35.2299 94.5609 35.2405C94.5826 35.2667 94.6057 35.2916 94.6302 35.3152L94.8102 35.5257Z" fill="black"/>
<path d="M43.6359 36.7356C43.6359 36.7356 40.2569 34.1635 44.6441 32.4496C44.6441 32.4496 52.3077 30.0823 58.1073 33.0034C58.1073 33.0034 61.2315 34.4625 63.3502 34.4625C65.469 34.4625 82.7101 34.6148 86.7454 35.7749C87.5491 36.005 88.3682 36.1771 89.1966 36.2898C91.3435 36.5501 93.5182 36.1369 95.42 35.1076C95.6969 34.9553 95.9462 34.8778 96.021 34.9664C96.273 35.2709 96.0736 37.0346 93.8551 37.3863C92.1241 37.6631 88.1912 37.1398 86.5377 36.899C86.1084 36.8353 85.6819 36.755 85.2581 36.6636C83.6268 36.3092 78.611 35.3152 75.5505 35.7749C71.8724 36.3286 61.4835 35.3208 61.4835 35.3208C61.4835 35.3208 55.0829 34.0112 52.5099 32.9507C49.9369 31.8903 42.6776 32.804 43.6359 36.7356Z" fill="#FED253"/>
<path opacity="0.1" d="M72.1212 9.70989C71.8443 9.31119 68.2853 6.46216 66.834 5.31037L69.4513 4.92275C69.5309 4.84357 69.617 4.77132 69.7089 4.70679C71.6116 6.70304 72.1212 9.70989 72.1212 9.70989Z" fill="black"/>
<path opacity="0.1" d="M60.5775 24.9905L59.417 26.7044L63.854 26.5549L63.9537 24.6389L60.5775 24.9905Z" fill="black"/>
<path opacity="0.1" d="M87.6514 27.0588L88.1554 28.6204L90.9805 29.0745L89.7701 27.2083L87.6514 27.0588Z" fill="black"/>
<path opacity="0.1" d="M39.1484 79.4819C39.4503 79.9858 49.3823 93.0487 52.0051 92.686C54.628 92.3233 39.1484 79.4819 39.1484 79.4819Z" fill="black"/>
<path opacity="0.1" d="M72.4258 91.4209C72.4258 91.4209 74.8465 93.7411 74.4919 94.6465C74.1374 95.5518 72.4258 91.4209 72.4258 91.4209Z" fill="black"/>
<path opacity="0.1" d="M46.0069 107.349C46.0069 107.349 43.8881 117.278 44.9988 117.594C46.1094 117.909 46.0069 107.349 46.0069 107.349Z" fill="black"/>
<path opacity="0.1" d="M73.2324 145.907C73.5842 146.915 76.5089 153.468 77.1653 153.82C77.8217 154.171 73.2324 145.907 73.2324 145.907Z" fill="black"/>
<path opacity="0.1" d="M107.216 118.992C107.113 119.344 104.593 121.412 105.147 122.168C105.701 122.924 107.216 118.992 107.216 118.992Z" fill="black"/>
<path opacity="0.1" d="M87.6514 137.387C87.6015 137.642 87.0975 142.925 88.0558 143.941C89.014 144.957 87.6514 137.387 87.6514 137.387Z" fill="black"/>
<path opacity="0.1" d="M113.486 164.831C112.755 165.238 111.999 165.631 111.229 166.008C110.398 166.412 109.567 166.797 108.72 167.16C108.382 167.306 108.044 167.45 107.709 167.589C107.199 167.799 106.695 168.001 106.196 168.195C104.681 168.788 103.222 169.303 101.923 169.737C101.419 169.906 100.937 170.061 100.488 170.205C98.2281 170.922 96.727 171.313 96.727 171.313C96.3841 171.239 96.0331 171.21 95.6828 171.227C95.5859 171.227 95.4862 171.227 95.3837 171.227C94.9146 171.261 94.4477 171.32 93.985 171.404C90.8913 171.958 86.5208 173.511 83.8869 174.527C82.5021 175.056 81.6019 175.435 81.6019 175.435L79.8405 175.967L79.5469 176.056C77.6386 176.637 74.9548 177.462 73.9882 177.805C72.4261 178.359 58.8632 181.18 58.8632 181.18C57.6241 181.519 56.3584 181.75 55.0798 181.873C51.9293 182.162 48.7626 182.234 45.6021 182.089C42.4281 182.294 37.2932 181.596 34.3047 181.125L33.8284 181.05C32.6734 180.862 31.9395 180.726 31.9395 180.726L32.3272 180.192L40.2789 169.225L40.3259 169.159L47.7347 158.945L48.0117 158.574L48.6847 157.646C48.6847 157.646 49.0891 157.092 50.6456 157.057C50.8284 157.057 51.0278 157.057 51.2466 157.057C52.5541 157.162 53.844 157.425 55.0881 157.84L55.4482 157.948C60.813 159.485 69.1053 159.1 69.1053 159.1C69.1053 159.1 74.2651 158.269 78.3199 157.771L78.6218 157.732C79.9468 157.545 81.2809 157.429 82.6184 157.386C85.0889 157.436 90.4343 156.126 90.4343 156.126C91.5837 155.88 92.0684 155.672 92.7165 155.21C92.8024 155.149 92.8938 155.082 92.9935 155.01C93.2705 154.803 93.589 154.548 93.9989 154.232C94.7467 153.659 95.7964 152.881 97.4471 151.79C97.5911 151.696 97.7434 151.602 97.9068 151.513C98.0702 151.425 98.278 151.306 98.4774 151.206C100.076 150.449 101.761 149.891 103.496 149.545C104.935 149.236 106.395 149.035 107.864 148.944H108.083C112.237 148.723 116.48 149.434 118.962 151.768C119.396 152.178 119.774 152.644 120.086 153.153C120.238 153.394 120.373 153.646 120.491 153.906C120.717 154.401 120.885 154.922 120.992 155.456C121.012 155.556 121.029 155.656 121.042 155.755C121.042 155.786 121.042 155.813 121.042 155.844C121.042 155.924 121.058 156.004 121.064 156.085C121.285 159.399 117.845 162.395 113.486 164.831Z" fill="black"/>
<path d="M31.9395 180.131C31.9395 180.131 40.9131 181.792 45.6021 181.491C45.6021 181.491 54.224 181.945 58.8632 180.585C58.8632 180.585 72.4344 177.761 73.9882 177.207C75.542 176.654 81.6019 174.837 81.6019 174.837C81.6019 174.837 93.4006 169.898 96.727 170.704C96.727 170.704 122.845 163.951 120.978 154.828C119.111 145.705 102.626 147.773 97.436 151.198C92.2457 154.623 93.0046 154.98 90.4288 155.534C90.4288 155.534 85.0834 156.843 82.6129 156.794C80.1423 156.744 69.0998 158.507 69.0998 158.507C69.0998 158.507 60.428 158.912 55.0854 157.248C49.7427 155.584 48.682 157.045 48.682 157.045L31.9395 180.131Z" fill="#FFA2A2"/>
<path opacity="0.1" d="M51.3992 156.453C51.4006 156.464 51.4006 156.475 51.3992 156.486C51.3799 156.692 51.3265 156.893 51.2413 157.081C50.1778 159.69 44.14 166.725 44.14 166.725C43.8647 167.561 43.5325 168.377 43.1457 169.167C42.3137 170.856 41.3555 172.481 40.2791 174.026C38.6836 176.338 36.9416 178.546 35.0638 180.635H35.05C34.8111 180.812 34.5623 180.976 34.305 181.125C33.6541 181.513 32.6764 181.992 31.7541 182.05C31.5971 182.059 31.4395 182.055 31.2833 182.036C31.3802 182.036 31.4744 182.014 31.5602 181.997L31.2223 181.898L30.7598 181.754C29.9843 181.51 29.2153 181.243 28.4527 180.953L27.9902 180.776C27.2516 180.492 26.5287 180.187 25.8215 179.86L25.359 179.649C24.6204 179.306 23.8976 178.943 23.1904 178.561C22.9356 178.428 22.6835 178.284 22.4343 178.149C21.6809 177.728 20.9424 177.287 20.2186 176.825C19.4504 176.336 18.6989 175.826 17.9641 175.294C17.4101 174.267 16.9531 173.356 16.7039 172.866C16.2497 171.955 16.2109 170.651 16.2663 169.707C16.2663 169.61 16.2663 169.519 16.2829 169.43C16.33 168.838 16.402 168.431 16.402 168.431C15.9916 167.882 15.6213 167.305 15.2941 166.703C15.1061 166.404 14.9992 166.061 14.9839 165.709C14.9965 165.567 14.9833 165.425 14.9451 165.288C14.7319 164.413 13.8151 162.91 12.9676 161.965C12.3361 161.271 12.2974 158.673 12.3583 156.832C12.3943 155.725 12.4635 154.911 12.4635 154.911C12.3394 154.831 12.2466 154.711 12.2004 154.57C11.9777 153.964 11.8271 153.334 11.7517 152.693C11.7517 152.602 11.7268 152.51 11.713 152.416C11.5357 151.145 11.4554 149.869 11.4554 149.869C9.40586 148.377 8.43094 146.048 7.97672 143.972L7.91856 143.695C7.66911 142.418 7.5632 141.118 7.60282 139.818C7.60282 139.694 7.60282 139.6 7.60282 139.542C7.60282 139.483 7.60282 139.472 7.60282 139.472C7.60282 139.472 7.87425 133.472 8.63313 131.13C8.6636 131.03 8.69683 130.939 8.73007 130.853C8.78598 130.706 8.85845 130.566 8.9461 130.435C9.22306 130.067 9.41971 129.372 9.58312 128.55C9.69667 127.979 9.79084 127.345 9.86008 126.714C9.92378 126.188 9.97364 125.665 10.0124 125.18C10.1204 123.884 10.1537 122.874 10.1537 122.874L9.64128 120.349C9.50003 119.659 9.39201 118.964 9.31723 118.269C9.31723 118.178 9.29507 118.087 9.284 117.992C9.15446 116.709 9.1313 115.417 9.21475 114.13C9.21475 114.036 9.21476 113.945 9.23137 113.853C9.44763 110.921 10.2143 108.057 11.4914 105.409L11.6299 105.132C11.8145 104.763 12.0084 104.4 12.2115 104.044C12.3583 103.781 12.5134 103.52 12.674 103.263C13.0999 102.573 13.5622 101.907 14.0589 101.267C14.1309 101.172 14.2057 101.081 14.2804 100.99C15.1447 99.9186 16.1051 98.9288 17.1498 98.0327C19.9471 95.6294 22.5146 94.5856 24.8466 94.5053C35.0445 94.1454 40.7638 112.175 41.6888 115.334C41.7775 115.639 41.8218 115.805 41.8218 115.805C41.8218 115.805 45.9541 119.939 44.7438 121.752C44.5091 122.152 44.3662 122.598 44.3255 123.059C43.9932 125.499 44.9459 129.516 44.9459 129.516C44.9459 129.516 45.2838 130.623 46.2698 133.276L46.5606 134.051C47.1783 135.712 47.3223 138.5 46.9678 140.998C46.6271 143.39 45.8267 145.505 44.5443 146.048C41.9215 147.156 42.6277 148.263 43.2315 149.174C43.5903 149.827 43.8897 150.511 44.1261 151.217C44.5056 152.239 44.8573 153.313 44.9902 153.731C45.029 153.848 45.0484 153.911 45.0484 153.911C45.4158 153.769 45.7974 153.667 46.1867 153.607C46.6825 153.537 47.1727 153.587 47.2669 154.011C47.3167 154.238 47.602 154.507 48.0036 154.775C49.1946 155.595 51.3992 156.453 51.3992 156.453Z" fill="black"/>
<path d="M50.7957 156.453C50.7787 156.663 50.7253 156.87 50.6378 157.062C49.5798 159.673 43.5365 166.725 43.5365 166.725C43.26 167.56 42.9278 168.376 42.5421 169.167C41.8738 170.531 41.1179 171.851 40.2793 173.118C38.5431 175.736 36.6197 178.225 34.524 180.566L34.4603 180.635C34.4603 180.635 34.2166 180.82 33.8288 181.059C33.136 181.501 32.3726 181.821 31.5716 182.005L31.2337 181.906L30.7712 181.762C29.9957 181.518 29.2266 181.251 28.464 180.962L28.0015 180.784C27.2629 180.5 26.5401 180.195 25.8329 179.868L25.3704 179.658C24.6318 179.314 23.9089 178.952 23.2017 178.569C22.9469 178.437 22.6949 178.293 22.4456 178.157C21.6923 177.736 20.9537 177.295 20.2299 176.833C19.4618 176.344 18.7103 175.834 17.9754 175.302C17.6357 175.059 17.2996 174.809 16.9673 174.552C16.5934 173.843 16.2942 173.245 16.1087 172.874C15.6544 171.963 15.6157 170.659 15.6711 169.715C15.6711 169.618 15.6711 169.527 15.6877 169.438C15.7348 168.846 15.8068 168.439 15.8068 168.439C15.8068 168.439 15.5824 168.137 15.311 167.727C15.1587 167.5 14.9953 167.237 14.8485 166.977C14.5715 166.489 14.3555 165.997 14.397 165.717C14.4026 165.669 14.4026 165.621 14.397 165.573C14.3929 165.48 14.3789 165.387 14.3555 165.296C14.1422 164.421 13.2227 162.918 12.3752 161.974C11.7437 161.279 11.7049 158.682 11.7631 156.84C11.7631 156.746 11.7631 156.655 11.7631 156.564C11.8019 155.608 11.86 154.919 11.86 154.919C11.5471 154.783 11.3061 153.778 11.151 152.704L11.1095 152.427C10.9322 151.156 10.8519 149.88 10.8519 149.88C8.80234 148.388 7.82743 146.059 7.37598 143.982C7.06146 142.528 6.9404 141.039 7.01592 139.552C7.01592 139.508 7.01592 139.483 7.01592 139.483C7.01592 139.483 7.25411 133.453 8.01299 131.108C8.04346 131.008 8.0767 130.917 8.10993 130.831C8.17639 130.687 8.2591 130.552 8.35643 130.427C8.77742 129.84 9.05715 128.428 9.23995 126.982L9.27318 126.706C9.50306 124.767 9.56677 122.865 9.56677 122.865L9.05161 120.34C8.91128 119.648 8.80326 118.955 8.72756 118.261C8.71371 118.17 8.70541 118.075 8.69433 117.984C8.56482 116.701 8.54166 115.409 8.62509 114.122C8.62509 114.028 8.62509 113.936 8.64447 113.845C8.85942 110.913 9.62619 108.048 10.9045 105.4C10.9488 105.306 10.9931 105.215 11.043 105.123C11.3991 104.404 11.7948 103.705 12.2284 103.03C12.378 102.795 12.5303 102.562 12.6909 102.332C12.943 101.967 13.2061 101.607 13.4803 101.258L13.7018 100.981C14.5587 99.9142 15.5107 98.9273 16.5463 98.0325C19.5929 95.4216 22.3625 94.4138 24.8552 94.5052C34.6736 94.8568 40.1852 112.239 41.0909 115.334C41.1795 115.639 41.2238 115.805 41.2238 115.805C41.2238 115.805 45.3589 119.939 44.1485 121.752C43.9139 122.151 43.771 122.598 43.7303 123.059C43.3952 125.498 44.3507 129.516 44.3507 129.516C44.3507 129.516 44.6886 130.623 45.6746 133.276C45.7632 133.522 45.8602 133.78 45.9516 134.051C46.5692 135.712 46.7132 138.5 46.3587 140.998C46.0181 143.393 45.2204 145.505 43.9353 146.048C41.3152 147.155 42.0187 148.263 42.6252 149.174C42.984 149.827 43.2834 150.511 43.5198 151.217C43.999 152.521 44.4394 153.911 44.4394 153.911C44.6206 153.841 44.8055 153.781 44.9933 153.731C45.3786 153.604 45.7866 153.562 46.1898 153.607C46.3013 153.615 46.4073 153.659 46.4924 153.732C46.5775 153.804 46.6373 153.902 46.6634 154.011C46.7382 154.343 47.3115 154.756 48.0067 155.146C48.9093 155.637 49.8407 156.073 50.7957 156.453Z" fill="#CED7E7"/>
<path opacity="0.1" d="M14.3408 129.829C15.2991 129.779 25.5856 125.797 27.7044 127.157C29.8231 128.516 42.9374 137.337 42.9374 137.337C42.9374 137.337 34.7199 126.603 27.5603 124.084C20.4008 121.564 14.3408 129.829 14.3408 129.829Z" fill="black"/>
<path opacity="0.1" d="M29.1279 146.059C29.1279 146.059 39.4144 148.125 40.9765 149.537L29.1279 146.059Z" fill="black"/>
<path opacity="0.1" d="M27.1482 161.437C26.9986 161.589 23.2707 169.953 23.5698 169.953C23.8689 169.953 27.0485 164.969 27.0485 164.969L27.1482 161.437Z" fill="black"/>
<path opacity="0.1" d="M34.1582 151.4C34.1582 151.4 31.1338 152.46 31.4855 152.56C31.8372 152.66 34.0557 151.854 34.1582 151.4Z" fill="black"/>
<path opacity="0.1" d="M31.1338 164.053C31.6379 165.111 33.2498 168.286 33.6043 167.782C33.9588 167.279 31.1338 164.053 31.1338 164.053Z" fill="black"/>
<path opacity="0.1" d="M68.8894 80.2214L68.4573 80.836C68.4573 80.836 65.0257 78.4189 63.616 77.209C62.2062 75.999 58.8771 81.542 56.2543 83.0538C53.6314 84.5655 49.1972 84.9697 49.1972 84.9697C49.1972 84.9697 45.7684 81.542 45.8737 80.5398C45.9789 79.5375 44.2617 79.2302 44.1593 78.5241C44.0568 77.8181 43.453 75.8025 42.647 74.7946C42.2205 74.263 42.1596 72.599 42.1983 71.151C42.4753 71.0956 42.647 71.0652 42.647 71.0652C43.0775 70.2832 43.6217 69.5694 44.2617 68.9471C45.1702 68.1414 46.5799 63.202 46.5799 63.202C47.3859 60.4803 48.9978 61.286 48.9978 61.286C48.9978 65.4197 53.2354 66.9314 55.3514 68.6453C57.4674 70.3591 60.7965 74.7946 63.4194 75.7028C65.5714 76.4365 68.089 79.2745 68.8894 80.2214Z" fill="black"/>
<path d="M68.8896 79.615L68.4575 80.2325C68.4575 80.2325 65.0121 77.8209 63.6023 76.6026C62.1926 75.3844 58.8635 80.9357 56.2406 82.4474C53.6178 83.9592 49.1836 84.3662 49.1836 84.3662C49.1836 84.3662 45.7547 80.9357 45.86 79.9362C45.9652 78.9367 44.2481 78.6266 44.1456 77.9178C44.0431 77.209 43.4393 75.1961 42.6334 74.1883C42.2068 73.6567 42.1459 71.9927 42.1847 70.5447L42.6334 70.4616C43.0638 69.6796 43.608 68.9658 44.2481 68.3435C45.1565 67.535 46.5662 62.5984 46.5662 62.5984C47.3722 59.8767 48.9841 60.6797 48.9841 60.6797C48.9841 64.8134 53.2217 66.3279 55.3377 68.0417C57.4537 69.7556 60.7828 74.1883 63.4057 75.0965C65.5715 75.8412 68.0891 78.6681 68.8896 79.615Z" fill="#CED7E7"/>
<path opacity="0.1" d="M69.1465 80.4346C69.1465 80.4346 66.1747 82.046 63.8538 82.1982C63.5499 82.2124 63.2455 82.1948 62.9453 82.1456C62.9453 82.1456 65.5072 80.2324 67.8864 79.842L69.1465 80.4346Z" fill="black"/>
<path opacity="0.1" d="M75.1983 88.6494C75.1983 88.6494 71.4509 87.1902 70.2129 89.3858C70.2544 88.378 70.2711 87.5419 70.2711 87.5419L74.3563 86.7334C74.3563 86.7334 74.7496 87.4616 75.2093 88.4417C75.1983 88.5718 75.1983 88.6494 75.1983 88.6494Z" fill="black"/>
<path d="M62.9453 82.1456C62.9453 82.1456 67.4349 79.4516 69.5925 79.6786C71.8553 79.914 76.2396 80.0801 76.2396 80.0801C76.2396 80.0801 74.7274 83.5078 74.9296 84.2138C75.1317 84.9198 75.1816 88.3475 75.1816 88.3475C75.1816 88.3475 70.6449 86.5839 69.8888 89.8593C69.8888 89.8593 67.4183 86.1796 65.7537 85.0693C64.6492 84.2716 63.6978 83.2812 62.9453 82.1456Z" fill="#63667E"/>
<path opacity="0.1" d="M88.3071 85.2743C86.9971 85.2743 82.3579 82.3477 81.3498 80.4345C80.3416 78.5213 78.9291 80.6339 77.6191 81.3427C76.7882 81.7967 73.4951 80.8471 71.7197 80.1576C72.6199 79.5458 74.614 77.8236 75.1984 77.4111C75.9019 76.9044 76.6109 68.7394 76.6109 68.7394C79.1313 67.4298 81.8539 79.3243 81.8539 79.3243C81.8539 79.3243 86.5955 80.7363 86.9971 81.7441C87.0746 81.9435 87.4319 82.2979 87.9692 82.727C88.5232 84.1225 88.8278 85.2743 88.3071 85.2743Z" fill="black"/>
<path d="M88.3078 84.6678C86.9977 84.6678 82.3586 81.744 81.3504 79.8308C80.3423 77.9176 78.9298 80.0302 77.6197 80.7362C76.7888 81.1903 74.1494 80.3126 72.374 79.6287C73.2742 79.0196 74.6147 77.2255 75.1991 76.8102C75.9025 76.3062 76.6116 68.1412 76.6116 68.1412C79.132 66.8316 81.8545 78.7261 81.8545 78.7261C81.8545 78.7261 86.5961 80.1382 86.9977 81.146C87.0753 81.3453 87.4326 81.6997 87.9699 82.1289C88.5238 83.516 88.8285 84.6678 88.3078 84.6678Z" fill="#CED7E7"/>
<path d="M106.224 172.982L150.071 136.435C150.508 136.065 151.066 135.869 151.638 135.881L167.996 136.31C167.996 136.31 169.129 137.141 167.467 138.957L126.105 172.888C125.658 173.253 125.103 173.462 124.526 173.481L106.64 174.073C106.511 174.077 106.385 174.041 106.278 173.97C106.171 173.899 106.089 173.796 106.043 173.676C105.998 173.556 105.991 173.424 106.023 173.3C106.055 173.176 106.126 173.065 106.224 172.982Z" fill="#2F2E41"/>
<path d="M127.435 168.486C127.435 168.486 137.012 182.197 147.653 169.444C158.294 156.691 155.217 149.991 151.99 149.636C148.764 149.282 130.609 163.245 127.435 168.486Z" fill="#FFA2A2"/>
<path d="M192.03 15.1367C192.03 15.1367 204.375 -8.81283 218.965 3.5385C218.965 3.5385 222.15 4.6986 221.909 8.06538C221.909 8.06538 220.682 7.39257 219.707 9.96473C219.349 10.8774 218.884 11.7445 218.323 12.548C217.576 13.6333 216.497 14.4474 215.248 14.8682C215.248 14.8682 208.701 19.7716 196.572 15.9895C196.572 15.9895 193.144 16.4823 192.59 16.0559L196.575 13.1432C196.575 13.1432 198.6 16.1473 201.561 16.4906C201.561 16.4906 196.575 13.362 197.146 12.6836C197.262 12.5452 199.328 11.2356 199.328 11.2356C199.328 11.2356 202.871 16.4436 207.463 16.8284C207.463 16.8284 201.029 13.8963 200.107 10.7372L203.339 8.93476C203.339 8.93476 206.812 14.6245 212.027 15.2613C212.027 15.2613 205.408 11.9638 204.073 8.58867L207.493 7.25414C207.493 7.25414 210.991 12.7362 215.331 13.2374C215.331 13.2374 208.069 8.65512 208.296 6.99941C208.296 6.99941 211.512 5.96391 212.498 6.09957C212.498 6.09957 215.099 9.9758 217.647 10.045C217.647 10.045 213.118 6.46782 213.417 5.91684C213.417 5.91684 217.965 5.6815 220.342 6.78068C220.342 6.78068 216.963 4.90071 213.417 5.20527C213.417 5.20527 215.021 3.31977 217.112 2.90446C217.112 2.90446 214.606 1.87449 212.315 5.27449C212.315 5.27449 208.778 5.59843 208.341 5.99159C208.341 5.99159 210.13 2.31472 212.332 0.750381C212.332 0.750381 209.05 1.32905 207.424 6.31277L203.956 7.57808C203.956 7.57808 206.064 2.59436 207.922 1.05494C207.922 1.05494 204.665 2.16243 203.109 7.97678L199.918 9.71C199.918 9.71 201.406 5.28003 203.103 3.11765C203.103 3.11765 200.303 4.7955 199.021 10.2388L197.027 11.6426C197.027 11.6426 198.171 8.42531 198.583 7.53101C198.996 6.63671 198.788 6.4512 198.788 6.4512C197.402 8.08951 196.498 10.0803 196.176 12.2019C196.176 12.2019 192.26 15.3582 192.03 15.1367Z" fill="#FFD747"/>
<path d="M243.083 27.9448C243.083 27.9448 248.661 17.1219 255.253 22.7036C255.253 22.7036 256.693 23.2269 256.582 24.7469C256.582 24.7469 256.028 24.4452 255.588 25.608C255.428 26.0199 255.22 26.4112 254.968 26.7737C254.63 27.2629 254.145 27.6308 253.583 27.823C253.583 27.823 250.622 30.038 245.141 28.3297C245.141 28.3297 243.593 28.5512 243.343 28.3601L245.144 27.0422C245.144 27.0422 246.058 28.4017 247.398 28.554C247.398 28.554 245.149 27.1419 245.404 26.8346C245.454 26.7737 246.387 26.1812 246.387 26.1812C246.387 26.1812 247.988 28.5346 250.065 28.709C250.065 28.709 247.157 27.3828 246.742 25.9403L248.204 25.129C248.204 25.129 249.772 27.7012 252.129 27.9891C252.129 27.9891 249.137 26.4996 248.528 24.974L250.074 24.3704C250.074 24.3704 251.652 26.8484 253.613 27.0755C253.613 27.0755 250.331 25.0044 250.436 24.2569C250.436 24.2569 251.888 23.789 252.334 23.8499C252.334 23.8499 253.508 25.6025 254.66 25.6302C254.66 25.6302 252.613 24.016 252.749 23.7668C252.749 23.7668 254.804 23.6616 255.873 24.1572C255.873 24.1572 254.347 23.3072 252.749 23.4456C253.19 22.9444 253.767 22.5826 254.411 22.4046C254.411 22.4046 253.278 21.9395 252.242 23.4761C252.242 23.4761 250.644 23.6228 250.447 23.8C250.447 23.8 251.256 22.1388 252.251 21.4328C252.251 21.4328 250.766 21.693 250.035 23.9468L248.484 24.5282C248.484 24.5282 249.434 22.2772 250.276 21.5795C250.276 21.5795 248.802 22.0807 248.099 24.7054L246.659 25.4862C246.659 25.4862 247.329 23.4816 248.096 22.507C248.096 22.507 246.83 23.2657 246.254 25.7243L245.351 26.3584C245.351 26.3584 245.869 24.9048 246.055 24.5005C246.24 24.0963 246.146 24.0132 246.146 24.0132C245.52 24.7561 245.111 25.6579 244.966 26.6186C244.966 26.6186 243.18 28.0445 243.083 27.9448Z" fill="#FFD747"/>
<path d="M182.642 40.5371C182.642 40.5371 188.22 29.7141 194.828 35.2959C194.828 35.2959 196.265 35.8192 196.157 37.342C196.157 37.342 195.604 37.0374 195.163 38.2003C195.003 38.6117 194.794 39.003 194.543 39.3659C194.202 39.8575 193.711 40.2257 193.144 40.4153C193.144 40.4153 190.186 42.6303 184.705 40.922C184.705 40.922 183.157 41.1462 182.907 40.9524L184.708 39.6345C184.708 39.6345 185.622 40.994 186.959 41.149C186.959 41.149 184.711 39.7342 184.965 39.4269C185.018 39.3659 185.951 38.7734 185.951 38.7734C185.951 38.7734 187.552 41.1269 189.627 41.3013C189.627 41.3013 186.721 39.9751 186.303 38.5326L187.765 37.7241C187.765 37.7241 189.336 40.2935 191.693 40.5814C191.693 40.5814 188.702 39.0918 188.092 37.5663L189.638 36.9627C189.638 36.9627 191.219 39.4407 193.18 39.6677C193.18 39.6677 189.898 37.5967 190.001 36.8492C190.001 36.8492 191.455 36.3812 191.901 36.4422C191.901 36.4422 193.075 38.1948 194.227 38.2252C194.227 38.2252 192.18 36.6083 192.316 36.3591C192.316 36.3591 194.368 36.2539 195.44 36.7495C195.44 36.7495 193.911 35.8995 192.313 36.0379C192.754 35.5367 193.332 35.1749 193.975 34.9969C193.975 34.9969 192.845 34.5317 191.809 36.0684C191.809 36.0684 190.211 36.2151 190.014 36.3923C190.014 36.3923 190.82 34.7311 191.817 34.0251C191.817 34.0251 190.333 34.2853 189.602 36.5391L188.031 37.1205C188.031 37.1205 188.984 34.8695 189.823 34.1746C189.823 34.1746 188.353 34.6729 187.649 37.2977L186.206 38.0785C186.206 38.0785 186.879 36.0739 187.646 35.0993C187.646 35.0993 186.381 35.858 185.802 38.3166L184.899 38.9506C184.899 38.9506 185.417 37.497 185.602 37.0928C185.788 36.6886 185.697 36.6055 185.697 36.6055C185.069 37.3476 184.66 38.2498 184.517 39.2109C184.517 39.2109 182.739 40.6368 182.642 40.5371Z" fill="#FFD747"/>
</g>
<defs>
<clipPath id="clip0_212_1998">
<rect width="297" height="216" fill="white"/>
</clipPath>
</defs>
</svg>
