<svg width="337" height="141" viewBox="0 0 337 141" fill="none" xmlns="http://www.w3.org/2000/svg">
<g clip-path="url(#clip0_212_2111)">
<path d="M253.943 60.6417V34.3854C253.943 31.7674 256.075 29.6377 258.695 29.6377H275.886C278.506 29.6377 280.637 31.7674 280.637 34.3854V60.6417C280.637 63.2597 278.506 65.3894 275.886 65.3894H258.695C256.075 65.3894 253.943 63.2597 253.943 60.6417Z" fill="#FFD747"/>
<path d="M262.747 40.9875H271.834V38.7176H262.747V40.9875Z" fill="#3F3D56"/>
<path d="M265.019 37.0151H269.562V29.6378H265.019V37.0151Z" fill="#3F3D56"/>
<path d="M265.019 65.3894H269.562V58.0121H265.019V65.3894Z" fill="#3F3D56"/>
<path d="M241.732 61.7029H215.454C212.834 61.7029 210.702 59.5732 210.702 56.9552V39.7787C210.702 37.1608 212.834 35.031 215.454 35.031H241.732C244.352 35.031 246.483 37.1607 246.483 39.7787V56.9552C246.483 59.5732 244.352 61.7029 241.732 61.7029Z" fill="#FFD747"/>
<path d="M233.704 38.7197H224.617V40.9897H233.704V38.7197Z" fill="#3F3D56"/>
<path d="M218.086 50.6368V46.0969H210.703V50.6368H218.086Z" fill="#3F3D56"/>
<path d="M246.483 50.6368V46.0969H239.1V50.6368H246.483Z" fill="#3F3D56"/>
<path d="M28.5714 110.801L24.1846 85.2325C22.2353 73.8709 30.6513 63.3572 42.1726 62.761L104.711 59.5246L119.636 34.9454C121.615 31.6869 125.153 29.697 128.967 29.697H173.903C177.435 29.697 180.419 32.3142 180.878 35.8136L182.019 55.4808L294.048 55.8159L308.141 102.222L295.06 101.585L295.73 115.661L278.624 116.331L272.922 100.22C271.848 97.1865 267.143 93.7659 262.252 90.9041C251.288 84.4883 237.203 86.5475 228.906 96.1622C226.948 98.4304 225.58 100.794 225.198 103.01L222.61 118.007L97.164 115.996L80.7232 93.0166C75.8658 87.7351 52.9361 85.7951 50.8711 93.0166L38.4662 111.304L28.5714 110.801H28.5714Z" fill="#E6E6E6"/>
<path d="M164.917 44.6531L168.608 62.0382L121.649 63.0436L131.567 41.7671C132.467 39.8369 134.442 38.6386 136.571 38.7311L159.073 39.7086C161.921 39.8324 164.325 41.8662 164.917 44.6531V44.6531Z" fill="white"/>
<path d="M115.277 61.703L124.669 37.5728L122.21 35.116L106.892 58.3516L110.004 63.0436L115.277 61.703Z" fill="white"/>
<path d="M249.778 140.126C262.004 140.126 271.916 130.223 271.916 118.007C271.916 105.791 262.004 95.8875 249.778 95.8875C237.552 95.8875 227.641 105.791 227.641 118.007C227.641 130.223 237.552 140.126 249.778 140.126Z" fill="#3F3D56"/>
<path d="M234.517 118.007C234.517 109.598 241.363 102.758 249.778 102.758C258.193 102.758 265.039 109.598 265.039 118.007C265.039 126.415 258.193 133.256 249.778 133.256C241.363 133.256 234.517 126.415 234.517 118.007ZM234.852 118.007C234.852 126.23 241.548 132.921 249.778 132.921C258.008 132.921 264.704 126.23 264.704 118.007C264.704 109.783 258.008 103.093 249.778 103.093C241.548 103.093 234.852 109.783 234.852 118.007Z" fill="white"/>
<path d="M236.697 118.007C236.697 125.225 242.554 131.077 249.778 131.077C257.003 131.077 262.86 125.225 262.86 118.007C262.86 110.788 257.003 104.936 249.778 104.936C242.554 104.936 236.697 110.788 236.697 118.007ZM258.282 114.877L255.964 116.386L255.074 115.021L258.282 114.877ZM254.753 122.553L255.37 121.045L257.314 123.599L254.753 122.553ZM248.818 127.726L250.449 124.962V127.726H248.818ZM248.818 111.722L250.449 108.958V111.722H248.818ZM241.572 123.599L243.516 121.045L244.133 122.553L241.572 123.599ZM240.604 114.877L243.813 115.021L242.922 116.386L240.604 114.877Z" fill="#E6E6E6"/>
<path d="M63.9578 140.126C76.184 140.126 86.0952 130.223 86.0952 118.007C86.0952 105.791 76.184 95.8875 63.9578 95.8875C51.7316 95.8875 41.8203 105.791 41.8203 118.007C41.8203 130.223 51.7316 140.126 63.9578 140.126Z" fill="#3F3D56"/>
<path d="M48.6963 118.007C48.6963 109.598 55.5425 102.758 63.9577 102.758C72.3729 102.758 79.2192 109.598 79.2192 118.007C79.2192 126.415 72.3729 133.256 63.9577 133.256C55.5425 133.256 48.6963 126.415 48.6963 118.007ZM49.0317 118.007C49.0317 126.23 55.7274 132.921 63.9577 132.921C72.188 132.921 78.8837 126.23 78.8837 118.007C78.8837 109.783 72.188 103.093 63.9577 103.093C55.7274 103.093 49.0317 109.783 49.0317 118.007Z" fill="white"/>
<path d="M50.877 118.007C50.877 125.225 56.7336 131.077 63.9582 131.077C71.1828 131.077 77.0394 125.225 77.0394 118.007C77.0394 110.788 71.1828 104.936 63.9582 104.936C56.7336 104.936 50.877 110.788 50.877 118.007ZM72.4614 114.877L70.1437 116.386L69.2532 115.021L72.4614 114.877ZM68.9329 122.553L69.5502 121.045L71.4936 123.599L68.9329 122.553ZM62.9982 127.726L64.629 124.962V127.726H62.9982ZM62.9982 111.722L64.629 108.958V111.722H62.9982ZM55.7519 123.599L57.6954 121.045L58.3126 122.553L55.7519 123.599ZM54.7841 114.877L57.9923 115.021L57.1018 116.386L54.7841 114.877Z" fill="#E6E6E6"/>
<path d="M156.366 70.9194H169.111V68.2383H156.366V70.9194Z" fill="#3F3D56"/>
<path d="M336.016 123.552C335.897 123.188 334.996 123.348 334.91 123.023C334.824 122.7 335.688 122.428 336.35 121.516C336.47 121.351 337.223 120.315 336.934 119.879C336.387 119.052 332.578 121.111 331.663 119.955C331.463 119.702 331.38 119.267 330.782 118.457C330.545 118.134 330.392 117.979 330.21 117.983C329.951 117.99 329.859 118.313 329.452 118.899C328.842 119.777 328.622 119.667 328.221 120.387C327.923 120.921 327.887 121.262 327.672 121.282C327.368 121.311 327.242 120.646 326.871 120.62C326.491 120.594 326.112 121.251 325.924 121.764C325.57 122.728 325.789 123.464 325.838 124.198C325.89 124.996 325.767 126.164 324.899 127.662L316.718 140.686C318.475 138.031 323.462 130.791 325.472 128.135C326.052 127.369 326.675 126.599 327.635 126.454C328.559 126.315 329.682 126.771 331.251 126.745C331.435 126.742 331.944 126.727 332.069 126.456C332.171 126.233 331.916 126.039 332.009 125.829C332.133 125.548 332.692 125.669 333.454 125.482C333.991 125.35 334.356 125.132 334.67 124.945C334.764 124.888 336.174 124.035 336.016 123.552H336.016Z" fill="#F2F2F2"/>
<path d="M314.587 126.592C314.375 126.546 314.193 127.033 314.009 126.982C313.825 126.931 313.941 126.429 313.684 125.841C313.638 125.735 313.346 125.066 313.048 125.082C312.484 125.112 312.396 127.574 311.565 127.689C311.383 127.714 311.145 127.629 310.575 127.689C310.348 127.712 310.227 127.742 310.177 127.833C310.106 127.962 310.238 128.1 310.408 128.469C310.664 129.021 310.546 129.097 310.784 129.502C310.96 129.802 311.117 129.918 311.065 130.029C310.992 130.187 310.629 130.056 310.509 130.231C310.386 130.41 310.599 130.785 310.797 131.026C311.169 131.477 311.594 131.582 311.968 131.77C312.375 131.975 312.913 132.372 313.399 133.23L317.436 141C316.639 139.372 314.521 134.837 313.797 133.086C313.587 132.58 313.389 132.052 313.595 131.54C313.793 131.047 314.342 130.627 314.781 129.85C314.832 129.759 314.972 129.505 314.875 129.366C314.795 129.251 314.626 129.32 314.55 129.214C314.448 129.072 314.668 128.833 314.796 128.405C314.886 128.104 314.885 127.862 314.883 127.654C314.883 127.592 314.87 126.654 314.587 126.592V126.592V126.592Z" fill="#F2F2F2"/>
<path d="M318.615 128.488L318.742 127.318L318.82 127.244C319.18 126.904 319.405 126.544 319.49 126.173C319.503 126.114 319.514 126.055 319.524 125.994C319.566 125.753 319.619 125.454 319.85 125.143C319.98 124.97 320.323 124.579 320.676 124.715C320.772 124.751 320.836 124.813 320.881 124.878C320.892 124.867 320.904 124.856 320.916 124.843C321.069 124.695 321.176 124.641 321.279 124.588C321.358 124.548 321.439 124.507 321.578 124.396C321.638 124.348 321.687 124.304 321.728 124.268C321.852 124.157 322.01 124.027 322.228 124.079C322.458 124.142 322.537 124.361 322.59 124.507C322.683 124.766 322.712 124.944 322.731 125.063C322.738 125.106 322.746 125.155 322.752 125.17C322.803 125.297 323.436 125.33 323.674 125.344C324.209 125.373 324.673 125.398 324.784 125.765C324.864 126.027 324.698 126.313 324.275 126.637C324.143 126.738 324.011 126.807 323.897 126.859C323.967 126.926 324.023 127.017 324.027 127.14C324.035 127.433 323.734 127.657 323.135 127.808C322.986 127.846 322.786 127.896 322.523 127.884C322.4 127.878 322.292 127.859 322.199 127.841C322.186 127.893 322.16 127.948 322.115 128C321.982 128.153 321.766 128.191 321.474 128.105C321.151 128.015 320.896 127.893 320.67 127.786C320.474 127.692 320.304 127.612 320.162 127.59C319.897 127.553 319.651 127.716 319.355 127.934L318.615 128.488L318.615 128.488Z" fill="#F2F2F2"/>
<path d="M320.726 121.821L319.561 121.995L319.47 121.938C319.049 121.676 318.643 121.55 318.263 121.563C318.203 121.564 318.142 121.57 318.081 121.575C317.837 121.595 317.534 121.62 317.175 121.475C316.974 121.394 316.508 121.162 316.551 120.785C316.561 120.684 316.605 120.606 316.657 120.546C316.643 120.538 316.629 120.53 316.614 120.521C316.432 120.411 316.352 120.322 316.275 120.236C316.216 120.169 316.155 120.101 316.013 119.995C315.951 119.949 315.897 119.913 315.851 119.883C315.712 119.791 315.546 119.671 315.541 119.447C315.543 119.209 315.736 119.077 315.864 118.989C316.091 118.833 316.256 118.76 316.366 118.711C316.406 118.694 316.451 118.674 316.465 118.664C316.575 118.583 316.446 117.963 316.399 117.729C316.291 117.204 316.198 116.75 316.525 116.549C316.758 116.405 317.077 116.494 317.498 116.82C317.629 116.922 317.73 117.032 317.81 117.129C317.856 117.044 317.93 116.967 318.049 116.932C318.33 116.851 318.623 117.084 318.921 117.625C318.996 117.759 319.095 117.94 319.15 118.197C319.175 118.318 319.184 118.427 319.19 118.521C319.245 118.521 319.304 118.531 319.366 118.562C319.547 118.652 319.64 118.851 319.63 119.155C319.625 119.49 319.572 119.768 319.525 120.012C319.484 120.226 319.449 120.41 319.464 120.554C319.496 120.819 319.716 121.016 320.002 121.246L320.726 121.821H320.726L320.726 121.821Z" fill="#F2F2F2"/>
<path d="M320.884 118.324L321.011 117.153L321.089 117.08C321.449 116.74 321.674 116.379 321.758 116.009C321.772 115.95 321.782 115.89 321.793 115.829C321.835 115.589 321.887 115.289 322.119 114.979C322.249 114.805 322.591 114.414 322.945 114.551C323.04 114.587 323.105 114.648 323.15 114.714C323.161 114.703 323.172 114.691 323.185 114.679C323.337 114.531 323.444 114.476 323.547 114.424C323.626 114.384 323.708 114.342 323.846 114.232C323.907 114.183 323.955 114.14 323.996 114.103C324.12 113.992 324.279 113.863 324.496 113.914C324.727 113.977 324.806 114.197 324.858 114.342C324.952 114.602 324.981 114.78 325 114.898C325.007 114.941 325.015 114.99 325.021 115.006C325.071 115.133 325.704 115.166 325.943 115.179C326.478 115.208 326.941 115.234 327.053 115.6C327.133 115.862 326.966 116.148 326.543 116.472C326.412 116.573 326.28 116.643 326.165 116.695C326.236 116.761 326.292 116.852 326.295 116.976C326.303 117.268 326.003 117.492 325.403 117.644C325.255 117.682 325.054 117.732 324.792 117.719C324.668 117.713 324.56 117.694 324.468 117.676C324.454 117.729 324.429 117.784 324.384 117.835C324.25 117.988 324.035 118.027 323.742 117.941C323.419 117.851 323.164 117.729 322.939 117.621C322.742 117.527 322.573 117.447 322.43 117.426C322.166 117.389 321.919 117.552 321.624 117.769L320.884 118.324L320.884 118.324Z" fill="#F2F2F2"/>
<path d="M317.105 140.753L316.899 140.55L316.903 140.26L316.899 140.55L316.613 140.519C316.614 140.492 316.612 140.429 316.61 140.331C316.599 139.793 316.565 138.154 316.793 135.636C316.953 133.878 317.219 132.093 317.585 130.331C317.952 128.566 318.333 127.253 318.638 126.197C318.869 125.401 319.102 124.646 319.329 123.911C319.936 121.946 320.509 120.09 320.864 117.972C320.943 117.5 321.108 116.516 320.77 115.355C320.574 114.681 320.239 114.047 319.773 113.471L320.224 113.107C320.738 113.744 321.109 114.446 321.326 115.194C321.701 116.481 321.521 117.553 321.435 118.068C321.074 120.223 320.495 122.097 319.883 124.081C319.656 124.814 319.424 125.566 319.195 126.358C318.892 127.404 318.514 128.706 318.152 130.448C317.79 132.189 317.527 133.952 317.37 135.688C317.144 138.174 317.178 139.789 317.189 140.319C317.195 140.602 317.196 140.662 317.105 140.753V140.753Z" fill="#F2F2F2"/>
<path d="M318.536 114.137C318.513 114.132 318.49 114.126 318.467 114.119C317.991 113.986 317.61 113.599 317.333 112.969C317.203 112.672 317.172 112.361 317.111 111.739C317.102 111.643 317.059 111.157 317.111 110.514C317.145 110.094 317.19 109.925 317.305 109.793C317.432 109.645 317.603 109.56 317.784 109.518C317.789 109.462 317.807 109.408 317.843 109.356C317.992 109.142 318.242 109.23 318.377 109.276C318.445 109.3 318.53 109.332 318.625 109.348C318.775 109.374 318.865 109.347 319.001 109.308C319.13 109.27 319.292 109.223 319.515 109.227C319.955 109.234 320.281 109.431 320.388 109.496C320.954 109.836 321.149 110.378 321.375 111.005C321.42 111.131 321.569 111.586 321.604 112.171C321.629 112.594 321.574 112.767 321.51 112.89C321.381 113.144 321.182 113.262 320.689 113.51C320.174 113.77 319.915 113.9 319.703 113.967C319.21 114.121 318.901 114.218 318.536 114.137V114.137V114.137Z" fill="#F2F2F2"/>
<path d="M0 140.25C0 140.471 0.310354 140.649 0.696831 140.649H333.353C333.739 140.649 334.05 140.471 334.05 140.25C334.05 140.029 333.739 139.851 333.353 139.851H0.696831C0.310354 139.851 0 140.029 0 140.25Z" fill="#CCCCCC"/>
<path d="M169.029 137.732L173.686 137.731L175.902 119.783L169.028 119.783L169.029 137.732Z" fill="#FFB6B6"/>
<path d="M184.985 137.626C185.13 137.87 185.207 138.658 185.207 138.942C185.207 139.814 184.499 140.521 183.626 140.521L169.204 140.521C168.608 140.521 168.125 140.039 168.125 139.444V138.844C168.125 138.844 167.412 137.04 168.881 134.818C168.881 134.818 170.706 136.558 173.435 133.832L174.239 132.376L180.062 136.632L183.29 137.029C183.996 137.115 184.622 137.015 184.985 137.626H184.985L184.985 137.626Z" fill="#2F2E41"/>
<path d="M148.105 137.732L152.763 137.731L154.978 119.783L148.104 119.783L148.105 137.732Z" fill="#FFB6B6"/>
<path d="M164.062 137.626C164.207 137.87 164.283 138.658 164.283 138.942C164.283 139.814 163.575 140.521 162.702 140.521L148.28 140.521C147.684 140.521 147.202 140.039 147.202 139.444V138.844C147.202 138.844 146.488 137.04 147.957 134.818C147.957 134.818 149.783 136.558 152.511 133.832L153.315 132.376L159.138 136.632L162.366 137.029C163.072 137.115 163.698 137.015 164.062 137.626H164.062L164.062 137.626Z" fill="#2F2E41"/>
<path d="M168.292 15.1736L169.176 23.4186L158.861 22.5352L160.63 14.8792L168.292 15.1736Z" fill="#FFB6B6"/>
<path opacity="0.1" d="M168.292 15.1736L169.176 23.4186L158.861 22.5352L160.63 14.8792L168.292 15.1736Z" fill="black"/>
<path d="M164.608 16.2043C168.352 16.2043 171.387 13.1721 171.387 9.43163C171.387 5.69117 168.352 2.65894 164.608 2.65894C160.865 2.65894 157.83 5.69117 157.83 9.43163C157.83 13.1721 160.865 16.2043 164.608 16.2043Z" fill="#FFB6B6"/>
<path d="M169.03 20.0323L180.376 26.6577L176.658 44.6201L179.197 68.7662L177.429 127.954L166.525 126.776L165.051 76.4223L156.505 128.543H145.916L147.663 72.2998L152.968 48.4481L149.726 22.5352L159.599 19.4434L169.03 20.0323Z" fill="#63667E"/>
<path d="M169.471 11.3457C169.471 11.3457 170.06 9.28442 171.386 9.43165C172.712 9.57889 173.007 8.40103 172.712 7.8121C172.418 7.22317 171.828 4.27852 171.828 4.27852C171.828 4.27852 172.123 2.21726 170.355 1.9228C168.587 1.62834 167.997 1.33387 167.702 0.744944C167.408 0.156013 162.987 -0.432915 161.514 0.450478C160.04 1.33387 158.861 3.02878 157.83 3.50642C156.798 3.98406 155.914 4.86745 156.504 6.33978C157.093 7.8121 157.948 10.6917 157.948 10.6917C157.948 10.6917 159.451 10.1678 159.745 11.0512C160.04 11.9346 158.861 10.7567 160.335 8.40103C161.808 6.04531 161.808 3.68959 164.166 4.57299C166.524 5.45638 169.176 5.16192 168.881 6.92871C168.587 8.6955 169.471 11.3457 169.471 11.3457L169.471 11.3457Z" fill="#2F2E41"/>
<path d="M174.525 63.484C173.106 64.9848 172.731 66.9326 173.687 67.8344C174.643 68.7363 176.568 68.2507 177.987 66.7492C178.562 66.1572 178.987 65.4362 179.226 64.6465L185.156 58.212L182.074 55.4958L176.555 62.1275C175.78 62.4112 175.084 62.8763 174.525 63.484Z" fill="#FFB6B6"/>
<path d="M180.256 26.5105L190.242 43.51L191.722 51.2706L182.105 63.4658L178.037 58.2921L182.845 51.2706L175.078 37.5971L180.256 26.5105Z" fill="#63667E"/>
<path d="M152.179 61.901V41.8577C152.179 38.8028 154.666 36.3176 157.723 36.3176H188.387C191.444 36.3176 193.932 38.8028 193.932 41.8577V61.901C193.932 64.9559 191.444 67.4411 188.387 67.4411H157.723C154.666 67.4411 152.179 64.9559 152.179 61.901Z" fill="#FFD747"/>
<path d="M167.09 48.9683H177.694V46.3195H167.09V48.9683Z" fill="#3F3D56"/>
<path d="M176.825 67.2637V61.9661H168.21V67.2637H176.825Z" fill="#3F3D56"/>
<path d="M177.229 41.7927V36.4951H168.614V41.7927H177.229Z" fill="#3F3D56"/>
<path d="M155.282 59.6559C156.701 61.1566 157.076 63.1044 156.119 64.0063C155.163 64.9082 153.239 64.4225 151.82 62.9211C151.245 62.3291 150.82 61.6081 150.581 60.8184L144.651 54.3839L147.733 51.6677L153.251 58.2994C154.027 58.5831 154.723 59.0482 155.282 59.6559Z" fill="#63667E"/>
<path d="M149.551 22.6826L139.564 39.6821L138.085 47.4427L147.701 59.638L151.77 54.4642L146.962 47.4427L154.728 33.7692L149.551 22.6826Z" fill="#63667E"/>
<path d="M25.3795 103.741C30.3811 103.741 34.4357 100.215 34.4357 95.8653C34.4357 91.5156 30.3811 87.9895 25.3795 87.9895C20.3779 87.9895 16.3232 91.5156 16.3232 95.8653C16.3232 100.215 20.3779 103.741 25.3795 103.741Z" fill="#E6E6E6"/>
</g>
<defs>
<clipPath id="clip0_212_2111">
<rect width="337" height="141" fill="white"/>
</clipPath>
</defs>
</svg>
