<svg width="28" height="28" viewBox="0 0 28 28" fill="none" xmlns="http://www.w3.org/2000/svg">
<path d="M21.9539 21.9539C22.6818 21.9539 23.3798 22.2431 23.8944 22.7577C24.4091 23.2724 24.6982 23.9704 24.6982 24.6982C24.6982 25.426 24.4091 26.124 23.8944 26.6387C23.3798 27.1533 22.6818 27.4424 21.9539 27.4424C21.2261 27.4424 20.5281 27.1533 20.0135 26.6387C19.4988 26.124 19.2097 25.426 19.2097 24.6982C19.2097 23.1751 20.4309 21.9539 21.9539 21.9539ZM0 0H4.48684L5.77663 2.74424H26.0703C26.4342 2.74424 26.7832 2.88881 27.0405 3.14613C27.2979 3.40345 27.4424 3.75245 27.4424 4.11636C27.4424 4.34962 27.3738 4.58288 27.2778 4.80242L22.3656 13.68C21.8991 14.517 20.9935 15.0933 19.9644 15.0933H9.74206L8.50715 17.3299L8.46599 17.4945C8.46599 17.5855 8.50213 17.6728 8.56646 17.7371C8.63079 17.8014 8.71804 17.8376 8.80902 17.8376H24.6982V20.5818H8.23273C7.50491 20.5818 6.8069 20.2927 6.29225 19.778C5.77761 19.2634 5.48848 18.5654 5.48848 17.8376C5.48848 17.3573 5.61198 16.9045 5.81779 16.5203L7.68388 13.1586L2.74424 2.74424H0V0ZM8.23273 21.9539C8.96055 21.9539 9.65855 22.2431 10.1732 22.7577C10.6878 23.2724 10.977 23.9704 10.977 24.6982C10.977 25.426 10.6878 26.124 10.1732 26.6387C9.65855 27.1533 8.96055 27.4424 8.23273 27.4424C7.50491 27.4424 6.8069 27.1533 6.29225 26.6387C5.77761 26.124 5.48848 25.426 5.48848 24.6982C5.48848 23.1751 6.70967 21.9539 8.23273 21.9539ZM20.5818 12.3491L24.3963 5.48848H7.0527L10.2909 12.3491H20.5818Z" fill="#A3A3A3"/>
</svg>
