<svg width="29" height="29" viewBox="0 0 29 29" fill="none" xmlns="http://www.w3.org/2000/svg">
<path d="M20.1991 21.4019L19.5977 20.8005C19.3855 20.5883 19.1322 20.4821 18.8379 20.4821C18.5436 20.4821 18.2898 20.5883 18.0766 20.8005C17.8644 21.0128 17.7582 21.2604 17.7582 21.5434C17.7582 21.8264 17.8644 22.074 18.0766 22.2863L19.4562 23.6659C19.6685 23.8781 19.9161 23.9843 20.1991 23.9843C20.4821 23.9843 20.7297 23.8781 20.942 23.6659L24.3734 20.3053C24.5856 20.093 24.6917 19.8392 24.6917 19.544C24.6917 19.2487 24.5856 18.9954 24.3734 18.7841C24.1611 18.5719 23.9074 18.4657 23.6121 18.4657C23.3168 18.4657 23.0636 18.5719 22.8522 18.7841L20.1991 21.4019ZM5.66 8.49H19.81C20.2109 8.49 20.5472 8.35416 20.8189 8.08248C21.0906 7.8108 21.2259 7.47498 21.225 7.075C21.225 6.67409 21.0892 6.33779 20.8175 6.06611C20.5458 5.79443 20.21 5.65906 19.81 5.66H5.66C5.25908 5.66 4.92278 5.79584 4.6511 6.06752C4.37942 6.3392 4.24406 6.67503 4.245 7.075C4.245 7.47592 4.38084 7.81222 4.65252 8.0839C4.9242 8.35558 5.26003 8.49095 5.66 8.49ZM21.225 28.3C19.2676 28.3 17.5988 27.61 16.2187 26.2299C14.8386 24.8498 14.1491 23.1815 14.15 21.225C14.15 19.2676 14.84 17.5988 16.2201 16.2187C17.6002 14.8386 19.2685 14.1491 21.225 14.15C23.1824 14.15 24.8512 14.84 26.2313 16.2201C27.6114 17.6002 28.3009 19.2685 28.3 21.225C28.3 23.1824 27.6099 24.8512 26.2299 26.2313C24.8498 27.6114 23.1815 28.3009 21.225 28.3ZM0 26.7081V2.83C0 2.05175 0.27734 1.38529 0.83202 0.830607C1.3867 0.275927 2.05269 -0.000940931 2.83 2.40238e-06H22.64C23.4182 2.40238e-06 24.0847 0.277342 24.6394 0.832022C25.1941 1.3867 25.4709 2.0527 25.47 2.83V12.2751C25.0219 12.0629 24.562 11.886 24.0904 11.7445C23.6187 11.603 23.1352 11.4969 22.64 11.4261V2.83H2.83V22.7107H11.4261C11.544 23.4418 11.727 24.1375 11.9751 24.7979C12.2232 25.4582 12.5473 26.0832 12.9472 26.6728C12.8293 26.6963 12.7053 26.6784 12.5751 26.619C12.4449 26.5596 12.3331 26.4831 12.2397 26.3897L11.1077 25.2578C10.9662 25.1163 10.8012 25.0455 10.6125 25.0455C10.4238 25.0455 10.2587 25.1163 10.1172 25.2578L8.98525 26.3897C8.84375 26.5312 8.67867 26.602 8.49 26.602C8.30133 26.602 8.13625 26.5312 7.99475 26.3897L6.86275 25.2578C6.72125 25.1163 6.55617 25.0455 6.3675 25.0455C6.17883 25.0455 6.01375 25.1163 5.87225 25.2578L4.74025 26.3897C4.59875 26.5312 4.43367 26.602 4.245 26.602C4.05633 26.602 3.89125 26.5312 3.74975 26.3897L2.61775 25.2578C2.47625 25.1163 2.31117 25.0455 2.1225 25.0455C1.93383 25.0455 1.76875 25.1163 1.62725 25.2578L0.49525 26.3897L0 26.7081ZM5.66 19.81H11.4261C11.4969 19.3148 11.603 18.8313 11.7445 18.3596C11.886 17.888 12.0629 17.4281 12.2751 16.98H5.66C5.25908 16.98 4.92278 17.1158 4.6511 17.3875C4.37942 17.6592 4.24406 17.995 4.245 18.395C4.245 18.7959 4.38084 19.1322 4.65252 19.4039C4.9242 19.6756 5.26003 19.8109 5.66 19.81ZM5.66 14.15H14.2915C15.1877 13.2774 16.2315 12.5874 17.4229 12.0799C18.6143 11.5723 19.8817 11.3191 21.225 11.32H5.66C5.25908 11.32 4.92278 11.4558 4.6511 11.7275C4.37942 11.9992 4.24406 12.335 4.245 12.735C4.245 13.1359 4.38084 13.4722 4.65252 13.7439C4.9242 14.0156 5.26003 14.1509 5.66 14.15Z" fill="#A3A3A3"/>
</svg>
