<svg width="32" height="31" viewBox="0 0 32 31" fill="none" xmlns="http://www.w3.org/2000/svg">
<g clip-path="url(#clip0_40_7)">
<path d="M21.9539 24.9539C22.6818 24.9539 23.3798 25.2431 23.8944 25.7577C24.4091 26.2724 24.6982 26.9704 24.6982 27.6982C24.6982 28.426 24.4091 29.124 23.8944 29.6387C23.3798 30.1533 22.6818 30.4424 21.9539 30.4424C21.2261 30.4424 20.5281 30.1533 20.0135 29.6387C19.4988 29.124 19.2097 28.426 19.2097 27.6982C19.2097 26.1751 20.4309 24.9539 21.9539 24.9539ZM0 3H4.48684L5.77663 5.74424H26.0703C26.4342 5.74424 26.7832 5.88881 27.0405 6.14613C27.2979 6.40345 27.4424 6.75245 27.4424 7.11636C27.4424 7.34962 27.3738 7.58288 27.2778 7.80242L22.3656 16.68C21.8991 17.517 20.9935 18.0933 19.9644 18.0933H9.74206L8.50715 20.3299L8.46599 20.4945C8.46599 20.5855 8.50213 20.6728 8.56646 20.7371C8.63079 20.8014 8.71804 20.8376 8.80902 20.8376H24.6982V23.5818H8.23273C7.50491 23.5818 6.8069 23.2927 6.29225 22.778C5.77761 22.2634 5.48848 21.5654 5.48848 20.8376C5.48848 20.3573 5.61198 19.9045 5.81779 19.5203L7.68388 16.1586L2.74424 5.74424H0V3ZM8.23273 24.9539C8.96055 24.9539 9.65855 25.2431 10.1732 25.7577C10.6878 26.2724 10.977 26.9704 10.977 27.6982C10.977 28.426 10.6878 29.124 10.1732 29.6387C9.65855 30.1533 8.96055 30.4424 8.23273 30.4424C7.50491 30.4424 6.8069 30.1533 6.29225 29.6387C5.77761 29.124 5.48848 28.426 5.48848 27.6982C5.48848 26.1751 6.70967 24.9539 8.23273 24.9539ZM20.5818 15.3491L24.3963 8.48848H7.0527L10.2909 15.3491H20.5818Z" fill="#A3A3A3"/>
</g>
<circle cx="25" cy="7" r="5.83333" fill="#F1C424" stroke="white" stroke-width="2.33333"/>
<defs>
<clipPath id="clip0_40_7">
<rect width="28" height="28" fill="white" transform="translate(0 3)"/>
</clipPath>
</defs>
</svg>
