<svg width="33" height="29" viewBox="0 0 33 29" fill="none" xmlns="http://www.w3.org/2000/svg">
<path d="M16.9934 0.232359C16.8003 0.0817774 16.5624 0 16.3175 0C16.0726 0 15.8347 0.0817774 15.6415 0.232359L0 12.4288L1.35299 14.1399L3.26545 12.6487V26.123C3.2666 26.7 3.49633 27.2531 3.90434 27.6611C4.31235 28.0691 4.8654 28.2988 5.44242 28.3H27.2121C27.7891 28.2988 28.3422 28.0691 28.7502 27.6611C29.1582 27.2531 29.3879 26.7 29.3891 26.123V12.6585L31.3015 14.1497L32.6545 12.4386L16.9934 0.232359ZM18.5042 26.123H14.1503V17.4152H18.5042V26.123ZM20.6812 26.123V17.4152C20.6806 16.838 20.4511 16.2846 20.0429 15.8765C19.6348 15.4683 19.0814 15.2388 18.5042 15.2382H14.1503C13.5731 15.2388 13.0197 15.4683 12.6116 15.8765C12.2034 16.2846 11.9739 16.838 11.9733 17.4152V26.123H5.44242V10.9517L16.3273 2.47246L27.2121 10.9626V26.123H20.6812Z" fill="#A3A3A3"/>
</svg>
