<svg width="28" height="28" viewBox="0 0 28 28" fill="none" xmlns="http://www.w3.org/2000/svg">
<path d="M26.195 4.98953H1.24738C0.916556 4.98953 0.59928 5.12095 0.36535 5.35488C0.13142 5.58881 0 5.90609 0 6.23691V11.2264C0.00216984 11.9985 0.243088 12.751 0.689726 13.3808C1.13636 14.0105 1.76686 14.4867 2.49477 14.7441V26.195C2.49477 26.5259 2.62619 26.8431 2.86012 27.0771C3.09405 27.311 3.41132 27.4424 3.74215 27.4424H23.7003C24.0311 27.4424 24.3484 27.311 24.5823 27.0771C24.8162 26.8431 24.9477 26.5259 24.9477 26.195V14.7441C25.6756 14.4867 26.3061 14.0105 26.7527 13.3808C27.1993 12.751 27.4403 11.9985 27.4424 11.2264V6.23691C27.4424 5.90609 27.311 5.58881 27.0771 5.35488C26.8431 5.12095 26.5259 4.98953 26.195 4.98953ZM17.4634 7.4843H19.9581V11.2264C19.9581 11.5573 19.8267 11.8746 19.5928 12.1085C19.3588 12.3424 19.0416 12.4738 18.7107 12.4738C18.3799 12.4738 18.0626 12.3424 17.8287 12.1085C17.5948 11.8746 17.4634 11.5573 17.4634 11.2264V7.4843ZM12.4738 7.4843H14.9686V11.2264C14.9686 11.5573 14.8372 11.8746 14.6032 12.1085C14.3693 12.3424 14.052 12.4738 13.7212 12.4738C13.3904 12.4738 13.0731 12.3424 12.8392 12.1085C12.6053 11.8746 12.4738 11.5573 12.4738 11.2264V7.4843ZM7.4843 7.4843H9.97906V11.2264C9.97906 11.5573 9.84764 11.8746 9.61371 12.1085C9.37978 12.3424 9.06251 12.4738 8.73168 12.4738C8.40085 12.4738 8.08358 12.3424 7.84965 12.1085C7.61572 11.8746 7.4843 11.5573 7.4843 11.2264V7.4843ZM3.74215 12.4738C3.41132 12.4738 3.09405 12.3424 2.86012 12.1085C2.62619 11.8746 2.49477 11.5573 2.49477 11.2264V7.4843H4.98953V11.2264C4.98953 11.5573 4.85811 11.8746 4.62418 12.1085C4.39025 12.3424 4.07298 12.4738 3.74215 12.4738ZM16.216 24.9477H11.2264V22.4529C11.2264 21.7912 11.4893 21.1567 11.9571 20.6888C12.425 20.221 13.0596 19.9581 13.7212 19.9581C14.3829 19.9581 15.0174 20.221 15.4853 20.6888C15.9531 21.1567 16.216 21.7912 16.216 22.4529V24.9477ZM22.4529 24.9477H18.7107V22.4529C18.7107 21.1296 18.1851 19.8605 17.2493 18.9248C16.3136 17.989 15.0445 17.4634 13.7212 17.4634C12.3979 17.4634 11.1288 17.989 10.1931 18.9248C9.25736 19.8605 8.73168 21.1296 8.73168 22.4529V24.9477H4.98953V14.7441C5.44803 14.5739 5.87098 14.3201 6.23691 13.9956C6.923 14.6093 7.8112 14.9486 8.73168 14.9486C9.65217 14.9486 10.5404 14.6093 11.2264 13.9956C11.9125 14.6093 12.8007 14.9486 13.7212 14.9486C14.6417 14.9486 15.5299 14.6093 16.216 13.9956C16.9021 14.6093 17.7903 14.9486 18.7107 14.9486C19.6312 14.9486 20.5194 14.6093 21.2055 13.9956C21.5714 14.3201 21.9944 14.5739 22.4529 14.7441V24.9477ZM24.9477 11.2264C24.9477 11.5573 24.8162 11.8746 24.5823 12.1085C24.3484 12.3424 24.0311 12.4738 23.7003 12.4738C23.3695 12.4738 23.0522 12.3424 22.8182 12.1085C22.5843 11.8746 22.4529 11.5573 22.4529 11.2264V7.4843H24.9477V11.2264ZM4.11636 2.49477H23.7003C24.0311 2.49477 24.3484 2.36335 24.5823 2.12942C24.8162 1.89549 24.9477 1.57821 24.9477 1.24738C24.9477 0.916556 24.8162 0.59928 24.5823 0.36535C24.3484 0.13142 24.0311 0 23.7003 0H4.11636C3.78554 0 3.46826 0.13142 3.23433 0.36535C3.0004 0.59928 2.86898 0.916556 2.86898 1.24738C2.86898 1.57821 3.0004 1.89549 3.23433 2.12942C3.46826 2.36335 3.78554 2.49477 4.11636 2.49477Z" fill="#A3A3A3"/>
</svg>
