<svg width="11" height="18" viewBox="0 0 11 18" fill="none" xmlns="http://www.w3.org/2000/svg">
<path d="M8.56989 1.40223L5.9225 0.694171C5.73538 0.643592 5.54012 0.630482 5.34792 0.655593C5.15572 0.680704 4.97038 0.743542 4.80255 0.840497C4.46045 1.03801 4.21622 1.35769 4.11427 1.73815L3.35071 4.58789C3.30014 4.775 3.28703 4.97027 3.31214 5.16247C3.33726 5.35466 3.40009 5.54001 3.49705 5.70785C3.69456 6.04995 4.01424 6.29419 4.3947 6.39614L6.47854 6.95451C6.56283 7.81467 6.4909 8.68298 6.26621 9.51753C6.04433 10.3539 5.67344 11.1434 5.17135 11.8481L3.08752 11.2897C2.9004 11.2391 2.70514 11.226 2.51294 11.2511C2.32075 11.2762 2.13541 11.3391 1.96757 11.436C1.62547 11.6335 1.38124 11.9532 1.2793 12.3337L0.513249 15.1827C0.462653 15.3702 0.449616 15.5657 0.474886 15.7582C0.500157 15.9507 0.563238 16.1363 0.660499 16.3043C0.858011 16.6464 1.17769 16.8906 1.55815 16.9926L4.20149 17.7009C4.80914 17.865 5.46693 17.7774 6.0124 17.4625C6.12748 17.3961 6.23237 17.3229 6.33023 17.2412C8.25326 15.6643 9.7084 13.317 10.4282 10.6354C11.1474 7.95637 11.0601 5.19847 10.1843 2.86225C9.91555 2.14926 9.31274 1.60394 8.56989 1.40223Z" fill="white"/>
</svg>
