<svg width="73" height="73" viewBox="0 0 73 73" fill="none" xmlns="http://www.w3.org/2000/svg"> <circle cx="36.6404" cy="36.3597" r="36.1011" fill="black" fill-opacity="0.6"/> <path d="M50.3933 26.045H45.9477L41.2941 21.3914C41.1347 21.2314 40.9453 21.1046 40.7367 21.0182C40.5281 20.9317 40.3045 20.8874 40.0787 20.8877H33.2023C32.9765 20.8874 32.7528 20.9317 32.5443 21.0182C32.3357 21.1046 32.1462 21.2314 31.9869 21.3914L27.3333 26.045H22.8877C20.9915 26.045 19.4495 27.587 19.4495 29.4832V48.3933C19.4495 50.2895 20.9915 51.8315 22.8877 51.8315H50.3933C52.2895 51.8315 53.8315 50.2895 53.8315 48.3933V29.4832C53.8315 27.587 52.2895 26.045 50.3933 26.045ZM36.6405 46.6742C31.9817 46.6742 28.045 42.7375 28.045 38.0787C28.045 33.4182 31.9817 29.4832 36.6405 29.4832C41.2992 29.4832 45.236 33.4182 45.236 38.0787C45.236 42.7375 41.2992 46.6742 36.6405 46.6742Z" fill="#C4BFBF" fill-opacity="0.75"/> </svg>