<svg width="79" height="94" viewBox="0 0 79 94" fill="none" xmlns="http://www.w3.org/2000/svg">
<g filter="url(#filter0_d_188_895)">
<path fill-rule="evenodd" clip-rule="evenodd" d="M39.5 6.992C27.2074 6.992 16.7889 17.8528 16.7889 31.832C16.7889 41.7666 14.5013 51.5864 12.2662 58.8371C11.39 61.6793 10.5135 64.1532 9.76876 66.1173H69.2313C68.4865 64.1532 67.61 61.6793 66.7339 58.8371C64.4987 51.5864 62.2111 41.7666 62.2111 31.832C62.2111 17.8528 51.7926 6.992 39.5 6.992ZM77.6117 68.1463C78.1118 69.2287 78.026 70.4914 77.3842 71.4961C76.7422 72.5012 75.6323 73.1093 74.4402 73.1093H56.0966V74.336C56.0966 83.8311 48.9164 92 39.5 92C30.0836 92 22.9034 83.8311 22.9034 74.336V73.1093H4.55982C3.3677 73.1093 2.25785 72.5012 1.61581 71.4961C0.974058 70.4915 0.888256 69.229 1.38811 68.1468C1.38815 68.1467 1.38818 68.1466 1.38822 68.1465L1.38831 68.1463C1.38845 68.146 1.3886 68.1457 1.38875 68.1454L1.39069 68.1411L1.40497 68.1099L1.46896 67.9679C1.52683 67.8386 1.6144 67.6407 1.72743 67.3788C1.95354 66.8549 2.28122 66.0756 2.67673 65.0777C3.46837 63.0804 4.52822 60.2159 5.58854 56.7763C7.72092 49.8589 9.80085 40.7881 9.80085 31.832C9.80085 14.5121 22.8472 0 39.5 0C56.1528 0 69.1992 14.5121 69.1992 31.832C69.1992 40.7881 71.2791 49.8589 73.4115 56.7763C74.4718 60.2159 75.5316 63.0804 76.3233 65.0777C76.7188 66.0756 77.0465 66.8549 77.2726 67.3788C77.3856 67.6407 77.4732 67.8386 77.5311 67.9679L77.595 68.1099L77.6093 68.1411L77.6113 68.1454L77.6117 68.1463ZM29.8915 73.1093V74.336C29.8915 80.4904 34.4437 85.008 39.5 85.008C44.5563 85.008 49.1086 80.4904 49.1086 74.336V73.1093H29.8915Z" fill="#A0B0BB"/>
</g>
<defs>
<filter id="filter0_d_188_895" x="0.0657959" y="0" width="78.8684" height="94" filterUnits="userSpaceOnUse" color-interpolation-filters="sRGB">
<feFlood flood-opacity="0" result="BackgroundImageFix"/>
<feColorMatrix in="SourceAlpha" type="matrix" values="0 0 0 0 0 0 0 0 0 0 0 0 0 0 0 0 0 0 127 0" result="hardAlpha"/>
<feOffset dy="1"/>
<feGaussianBlur stdDeviation="0.5"/>
<feComposite in2="hardAlpha" operator="out"/>
<feColorMatrix type="matrix" values="0 0 0 0 0 0 0 0 0 0 0 0 0 0 0 0 0 0 0.1 0"/>
<feBlend mode="normal" in2="BackgroundImageFix" result="effect1_dropShadow_188_895"/>
<feBlend mode="normal" in="SourceGraphic" in2="effect1_dropShadow_188_895" result="shape"/>
</filter>
</defs>
</svg>
