<svg width="20" height="15" viewBox="0 0 20 15" fill="none" xmlns="http://www.w3.org/2000/svg">
<path d="M5.56779 14.0001C6.57685 14.0001 7.39486 13.1821 7.39486 12.173C7.39486 11.164 6.57685 10.3459 5.56779 10.3459C4.55873 10.3459 3.74072 11.164 3.74072 12.173C3.74072 13.1821 4.55873 14.0001 5.56779 14.0001Z" stroke="#132E3F" stroke-width="1.5" stroke-linecap="round" stroke-linejoin="round"/>
<path d="M14.703 14.0001C15.7121 14.0001 16.5301 13.1821 16.5301 12.173C16.5301 11.164 15.7121 10.3459 14.703 10.3459C13.694 10.3459 12.876 11.164 12.876 12.173C12.876 13.1821 13.694 14.0001 14.703 14.0001Z" stroke="#132E3F" stroke-width="1.5" stroke-linecap="round" stroke-linejoin="round"/>
<path d="M3.7406 12.1729H1.91353V8.51872M1 1.21045H11.0489V12.1729M7.39474 12.1729H12.8759M16.5301 12.1729H18.3571V6.69165H11.0489M11.0489 2.12398H15.6165L18.3571 6.69165M1.91353 4.86458H5.56767" stroke="#132E3F" stroke-width="1.5" stroke-linecap="round" stroke-linejoin="round"/>
</svg>
