<svg width="26" height="26" viewBox="0 0 26 26" fill="none" xmlns="http://www.w3.org/2000/svg">
<path d="M13.8125 22.0767V10.6221H12.1875V22.0767L9.55289 19.4421L8.40381 20.5911L13 25.1874L17.5962 20.5911L16.4472 19.4421L13.8125 22.0767Z" fill="#132E3F"/>
<path d="M20.3125 8.18457C20.3125 4.15254 17.032 0.87207 13 0.87207C8.96797 0.87207 5.6875 4.15254 5.6875 8.18457C4.39457 8.18457 3.15459 8.69818 2.24035 9.61242C1.32611 10.5267 0.8125 11.7666 0.8125 13.0596C0.8125 14.3525 1.32611 15.5925 2.24035 16.5067C3.15459 17.421 4.39457 17.9346 5.6875 17.9346H9.75V16.3096H5.6875C4.82555 16.3096 3.9989 15.9672 3.3894 15.3577C2.77991 14.7482 2.4375 13.9215 2.4375 13.0596C2.4375 12.1976 2.77991 11.371 3.3894 10.7615C3.9989 10.152 4.82555 9.80957 5.6875 9.80957H7.3125V8.18457C7.3125 6.67615 7.91172 5.22951 8.97833 4.1629C10.0449 3.09629 11.4916 2.49707 13 2.49707C14.5084 2.49707 15.9551 3.09629 17.0217 4.1629C18.0883 5.22951 18.6875 6.67615 18.6875 8.18457V9.80957H20.3125C21.1745 9.80957 22.0011 10.152 22.6106 10.7615C23.2201 11.371 23.5625 12.1976 23.5625 13.0596C23.5625 13.9215 23.2201 14.7482 22.6106 15.3577C22.0011 15.9672 21.1745 16.3096 20.3125 16.3096H16.25V17.9346H20.3125C21.6054 17.9346 22.8454 17.421 23.7596 16.5067C24.6739 15.5925 25.1875 14.3525 25.1875 13.0596C25.1875 11.7666 24.6739 10.5267 23.7596 9.61242C22.8454 8.69818 21.6054 8.18457 20.3125 8.18457Z" fill="#132E3F"/>
</svg>
