<svg width="9" height="5" viewBox="0 0 9 5" fill="none" xmlns="http://www.w3.org/2000/svg">
<path d="M8.75078 1.16334C8.7511 1.25671 8.73049 1.34896 8.69047 1.43333C8.65046 1.51769 8.59204 1.59201 8.51953 1.65084L4.76953 4.66959C4.6577 4.76151 4.51742 4.81177 4.37266 4.81177C4.22789 4.81177 4.08762 4.76151 3.97578 4.66959L0.225783 1.54459C0.0981471 1.4385 0.0178819 1.28606 0.00264453 1.12079C-0.0125928 0.955523 0.0384459 0.790972 0.144532 0.663337C0.250619 0.535701 0.403064 0.455436 0.56833 0.440199C0.733596 0.424962 0.898147 0.476 1.02578 0.582087L4.37578 3.37584L7.72578 0.675837C7.81752 0.59941 7.92924 0.550861 8.0477 0.535937C8.16617 0.521012 8.28644 0.540335 8.39427 0.59162C8.5021 0.642905 8.59298 0.724005 8.65616 0.825324C8.71934 0.926643 8.75218 1.04394 8.75078 1.16334Z" fill="#132E3F"/>
</svg>
