<svg width="22" height="11" viewBox="0 0 22 11" fill="none" xmlns="http://www.w3.org/2000/svg">
<path d="M0.00010641 9.17485C-0.000690851 8.94004 0.0511166 8.70804 0.151723 8.49589C0.25233 8.28374 0.399181 8.09684 0.581482 7.94891L10.0092 0.357545C10.2903 0.126375 10.643 -4.96431e-07 11.0069 -4.80523e-07C11.3709 -4.64614e-07 11.7235 0.126375 12.0047 0.357545L21.4324 8.2161C21.7533 8.48288 21.955 8.86624 21.9934 9.28184C22.0317 9.69745 21.9033 10.1112 21.6366 10.4322C21.3699 10.7532 20.9867 10.955 20.5712 10.9934C20.1557 11.0317 19.742 10.9033 19.4211 10.6365L10.9991 3.61099L2.57701 10.4008C2.34637 10.593 2.06551 10.7151 1.76768 10.7526C1.46985 10.7901 1.16749 10.7415 0.896404 10.6126C0.625314 10.4836 0.396833 10.2797 0.237993 10.0249C0.0791507 9.77007 -0.00339931 9.4751 0.00010641 9.17485Z" fill="#132E3F"/>
</svg>
