<svg width="20" height="17" viewBox="0 0 20 17" fill="none" xmlns="http://www.w3.org/2000/svg">
<path d="M17.6042 13.7727C17.9918 13.7729 18.3643 13.9189 18.6448 14.1804C18.9252 14.4419 19.0921 14.7989 19.1107 15.1775C19.1293 15.556 18.9983 15.927 18.7448 16.2137C18.4913 16.5003 18.1348 16.6806 17.7491 16.7172L17.6042 16.724H1.50894C1.12142 16.7239 0.74884 16.5779 0.468387 16.3164C0.187934 16.0548 0.021113 15.6978 0.00249049 15.3193C-0.016132 14.9408 0.114872 14.5698 0.368357 14.2831C0.621841 13.9965 0.978375 13.8162 1.36408 13.7796L1.50894 13.7727H17.6042ZM17.6042 6.88637C18.0044 6.88637 18.3882 7.04184 18.6712 7.31858C18.9542 7.59531 19.1132 7.97065 19.1132 8.36202C19.1132 8.75339 18.9542 9.12872 18.6712 9.40546C18.3882 9.6822 18.0044 9.83767 17.6042 9.83767H1.50894C1.10874 9.83767 0.724937 9.6822 0.441957 9.40546C0.158977 9.12872 0 8.75339 0 8.36202C0 7.97065 0.158977 7.59531 0.441957 7.31858C0.724937 7.04184 1.10874 6.88637 1.50894 6.88637H17.6042ZM17.6042 0C18.0044 0 18.3882 0.15547 18.6712 0.432208C18.9542 0.708946 19.1132 1.08428 19.1132 1.47565C19.1132 1.86702 18.9542 2.24235 18.6712 2.51909C18.3882 2.79583 18.0044 2.9513 17.6042 2.9513H1.50894C1.10874 2.9513 0.724937 2.79583 0.441957 2.51909C0.158977 2.24235 0 1.86702 0 1.47565C0 1.08428 0.158977 0.708946 0.441957 0.432208C0.724937 0.15547 1.10874 0 1.50894 0H17.6042Z" fill="white"/>
</svg>
