<svg width="110" height="101" viewBox="0 0 110 101" fill="none" xmlns="http://www.w3.org/2000/svg">
<path d="M49.9046 23.7636C49.8016 22.6855 49.9148 21.5966 50.237 20.5673C50.5591 19.5379 51.0831 18.5909 51.7751 17.7874C52.4671 16.9839 53.3117 16.3416 54.2544 15.902C55.1972 15.4625 56.2172 15.2354 57.2487 15.2354C58.2801 15.2354 59.3001 15.4625 60.2429 15.902C61.1857 16.3416 62.0303 16.9839 62.7222 17.7874C63.4142 18.5909 63.9382 19.5379 64.2604 20.5673C64.5825 21.5966 64.6958 22.6855 64.5927 23.7636L61.7289 73.0006C61.6183 74.1681 61.0985 75.2508 60.2706 76.0383C59.4426 76.8258 58.3656 77.2619 57.2487 77.2619C56.1318 77.2619 55.0547 76.8258 54.2268 76.0383C53.3988 75.2508 52.879 74.1681 52.7684 73.0006L49.9046 23.7636ZM49.8677 92.7729C49.8677 90.7165 50.6453 88.7442 52.0295 87.2901C53.4137 85.836 55.2911 85.0191 57.2487 85.0191C59.2062 85.0191 61.0836 85.836 62.4678 87.2901C63.852 88.7442 64.6297 90.7165 64.6297 92.7729C64.6297 94.8294 63.852 96.8016 62.4678 98.2557C61.0836 99.7098 59.2062 100.527 57.2487 100.527C55.2911 100.527 53.4137 99.7098 52.0295 98.2557C50.6453 96.8016 49.8677 94.8294 49.8677 92.7729Z" fill="#98A3AB"/>
<path d="M4.12293 12.3577C3.61666 11.6468 3.25697 10.8413 3.06708 9.9932C2.87718 9.14507 2.86129 8.27312 3.02043 7.43358C3.17957 6.59403 3.5102 5.80554 3.99101 5.11895C4.47182 4.43236 5.09212 3.86291 5.81191 3.44734C6.53171 3.03176 7.33501 2.77929 8.17002 2.70619C9.00503 2.6331 9.8532 2.74101 10.6598 3.02296C11.4665 3.30492 12.2137 3.75466 12.8532 4.34317C13.4928 4.93169 14.0105 5.64592 14.373 6.43981L32.2121 41.9534C32.6053 42.8127 32.6788 43.7777 32.4183 44.6608C32.1578 45.544 31.5819 46.2822 30.8025 46.7322C30.023 47.1822 29.0957 47.3118 28.2007 47.0959C27.3056 46.8799 26.5066 46.3338 25.959 45.5636L4.12293 12.3577ZM31.9011 60.5303C31.0725 59.0952 30.8206 57.4056 31.2007 55.8331C31.5808 54.2607 32.5617 52.9342 33.9278 52.1455C35.2939 51.3568 36.9331 51.1705 38.485 51.6275C40.0368 52.0846 41.3741 53.1476 42.2026 54.5827C43.0312 56.0178 43.2831 57.7074 42.903 59.2798C42.5229 60.8523 41.5419 62.1788 40.1759 62.9675C38.8098 63.7562 37.1705 63.9425 35.6187 63.4854C34.0669 63.0284 32.7296 61.9654 31.9011 60.5303Z" fill="#98A3AB"/>
<path d="M100.604 25.8849C100.852 25.3409 101.207 24.8515 101.645 24.4482C102.083 24.0449 102.595 23.7367 103.148 23.5434C103.701 23.3502 104.282 23.2763 104.854 23.3264C105.427 23.3765 105.977 23.5495 106.47 23.8343C106.964 24.119 107.389 24.5093 107.718 24.9798C108.048 25.4503 108.274 25.9906 108.383 26.5659C108.492 27.1413 108.481 27.7388 108.351 28.32C108.221 28.9012 107.975 29.4532 107.628 29.9403L92.6639 52.6955C92.2887 53.2233 91.7412 53.5976 91.1278 53.7455C90.5144 53.8935 89.879 53.8047 89.3448 53.4964C88.8107 53.188 88.4161 52.6821 88.2376 52.0769C88.059 51.4717 88.1094 50.8104 88.3789 50.2215L100.604 25.8849ZM81.5326 58.8761C82.1004 57.8927 83.0168 57.1642 84.0802 56.851C85.1436 56.5378 86.267 56.6655 87.2031 57.2059C88.1392 57.7464 88.8115 58.6554 89.072 59.733C89.3324 60.8106 89.1598 61.9684 88.592 62.9518C88.0242 63.9353 87.1078 64.6637 86.0444 64.9769C84.9809 65.2901 83.8576 65.1625 82.9215 64.622C81.9853 64.0815 81.3131 63.1725 81.0526 62.0949C80.7922 61.0174 80.9648 59.8595 81.5326 58.8761Z" fill="#98A3AB"/>
</svg>
