<svg width="17" height="13" viewBox="0 0 17 13" fill="none" xmlns="http://www.w3.org/2000/svg">
<path d="M16 2.77415L7.00002 2.77415M2.87503 4.54834C1.8395 4.54834 1.00003 3.754 1.00004 2.77414C1.00004 1.79428 1.8395 0.99995 2.87503 0.99995C3.91056 0.999951 4.75003 1.79428 4.75003 2.77414C4.75003 3.754 3.91056 4.54834 2.87503 4.54834Z" stroke="#FFD747" stroke-width="1.5" stroke-linecap="round"/>
<path d="M1 10.2259L9.99998 10.2259M14.125 8.45166C15.1605 8.45166 16 9.24599 16 10.2259C16 11.2057 15.1605 12 14.125 12C13.0894 12 12.25 11.2057 12.25 10.2259C12.25 9.24599 13.0894 8.45166 14.125 8.45166Z" stroke="#FFD747" stroke-width="1.5" stroke-linecap="round"/>
</svg>
