<svg width="61" height="49" viewBox="0 0 61 49" fill="none" xmlns="http://www.w3.org/2000/svg">
<path d="M58.8214 0H2.17857C0.973549 0 0 0.995312 0 2.22727V46.7727C0 48.0047 0.973549 49 2.17857 49H58.8214C60.0265 49 61 48.0047 61 46.7727V2.22727C61 0.995312 60.0265 0 58.8214 0ZM18.654 10.0227C21.0573 10.0227 23.0112 12.0203 23.0112 14.4773C23.0112 16.9342 21.0573 18.9318 18.654 18.9318C16.2508 18.9318 14.2969 16.9342 14.2969 14.4773C14.2969 12.0203 16.2508 10.0227 18.654 10.0227ZM53.6405 40.4459C53.5413 40.531 53.416 40.5779 53.2865 40.5781H7.7067C7.40714 40.5781 7.16205 40.3276 7.16205 40.0213C7.16205 39.8891 7.20971 39.7638 7.29141 39.6594L18.8855 25.5997C19.0761 25.3631 19.4233 25.3352 19.6548 25.5301C19.6752 25.551 19.7025 25.5719 19.7229 25.5997L26.4901 33.8128L37.2536 20.7624C37.4442 20.5257 37.7914 20.4979 38.0229 20.6928C38.0433 20.7136 38.0705 20.7345 38.091 20.7624L53.7222 39.6663C53.8992 39.896 53.872 40.251 53.6405 40.4459Z" fill="#D3DFE7"/>
</svg>
