<svg width="40" height="40" viewBox="0 0 40 40" fill="none" xmlns="http://www.w3.org/2000/svg">
<path d="M10.1438 39.858C8.59664 39.8408 7.06408 39.557 5.61333 39.0192C4.55393 38.6276 3.59544 38.0042 2.80794 37.1946C1.99611 36.4087 1.37179 35.4499 0.981335 34.3896C0.444002 32.9389 0.16065 31.4065 0.143717 29.8595C0.0248973 27.2879 0.000976562 26.5165 0.000976562 20.0003C0.000976562 13.484 0.0272502 12.7154 0.14254 10.1418C0.161529 8.59549 0.445229 7.06386 0.981335 5.61333C1.37369 4.55376 1.99713 3.59489 2.80637 2.80637C3.5929 1.99527 4.55184 1.37153 5.61215 0.981335C7.0629 0.443556 8.59547 0.159806 10.1426 0.14254C12.715 0.0248973 13.4876 0.000976562 20.0003 0.000976562C26.513 0.000976562 27.2851 0.0272502 29.8588 0.14254C31.4055 0.161395 32.9375 0.445097 34.3884 0.981335C35.4483 1.37204 36.4069 1.99557 37.1938 2.80598C38.0045 3.5931 38.6282 4.55203 39.0192 5.61215C39.5571 7.06288 39.841 8.59545 39.8584 10.1426C39.9761 12.7162 40 13.4868 40 20.0011C40 26.5153 39.9761 27.2859 39.8584 29.8595C39.8397 31.4064 39.5559 32.9387 39.0192 34.3896C38.6133 35.4418 37.9915 36.3973 37.1939 37.1947C36.3964 37.992 35.4407 38.6135 34.3884 39.0192C32.9377 39.5571 31.4051 39.841 29.858 39.8584C27.2867 39.9761 26.5138 40 19.9995 40C13.4852 40 12.7147 39.9772 10.1434 39.8584" fill="url(#paint0_radial_216_3087)"/>
<path d="M10.1438 39.858C8.59664 39.8408 7.06408 39.557 5.61333 39.0192C4.55393 38.6276 3.59544 38.0042 2.80794 37.1946C1.99611 36.4087 1.37179 35.4499 0.981335 34.3896C0.444002 32.9389 0.16065 31.4065 0.143717 29.8595C0.0248973 27.2879 0.000976562 26.5165 0.000976562 20.0003C0.000976562 13.484 0.0272502 12.7154 0.14254 10.1418C0.161529 8.59549 0.445229 7.06386 0.981335 5.61333C1.37369 4.55376 1.99713 3.59489 2.80637 2.80637C3.5929 1.99527 4.55184 1.37153 5.61215 0.981335C7.0629 0.443556 8.59547 0.159806 10.1426 0.14254C12.715 0.0248973 13.4876 0.000976562 20.0003 0.000976562C26.513 0.000976562 27.2851 0.0272502 29.8588 0.14254C31.4055 0.161395 32.9375 0.445097 34.3884 0.981335C35.4483 1.37204 36.4069 1.99557 37.1938 2.80598C38.0045 3.5931 38.6282 4.55203 39.0192 5.61215C39.5571 7.06288 39.841 8.59545 39.8584 10.1426C39.9761 12.7162 40 13.4868 40 20.0011C40 26.5153 39.9761 27.2859 39.8584 29.8595C39.8397 31.4064 39.5559 32.9387 39.0192 34.3896C38.6133 35.4418 37.9915 36.3973 37.1939 37.1947C36.3964 37.992 35.4407 38.6135 34.3884 39.0192C32.9377 39.5571 31.4051 39.841 29.858 39.8584C27.2867 39.9761 26.5138 40 19.9995 40C13.4852 40 12.7147 39.9772 10.1434 39.8584" fill="url(#paint1_radial_216_3087)"/>
<path d="M15.0895 20.0853C15.0896 19.1056 15.3801 18.148 15.9245 17.3335C16.4688 16.5189 17.2425 15.8841 18.1476 15.5093C19.0527 15.1345 20.0487 15.0365 21.0095 15.2278C21.9703 15.419 22.8528 15.8908 23.5455 16.5836C24.2381 17.2765 24.7097 18.1591 24.9007 19.12C25.0917 20.0808 24.9935 21.0767 24.6185 21.9818C24.2435 22.8868 23.6085 23.6603 22.7938 24.2045C21.9792 24.7486 21.0215 25.039 20.0419 25.0388C18.7283 25.0386 17.4685 24.5166 16.5398 23.5876C15.6111 22.6587 15.0894 21.3988 15.0895 20.0853ZM12.4115 20.0853C12.4115 21.5944 12.859 23.0696 13.6975 24.3244C14.5359 25.5792 15.7276 26.5572 17.1219 27.1348C18.5161 27.7123 20.0503 27.8634 21.5305 27.569C23.0106 27.2746 24.3702 26.5478 25.4373 25.4807C26.5044 24.4136 27.2311 23.054 27.5256 21.5739C27.82 20.0937 27.6689 18.5595 27.0914 17.1653C26.5138 15.771 25.5358 14.5793 24.281 13.7409C23.0262 12.9024 21.551 12.4549 20.0419 12.4549C19.0398 12.4549 18.0476 12.6522 17.1218 13.0357C16.196 13.4191 15.3548 13.9811 14.6463 14.6897C13.9377 15.3982 13.3757 16.2394 12.9923 17.1652C12.6088 18.091 12.4115 19.0832 12.4115 20.0853ZM26.1911 12.1526C26.1909 12.5052 26.2953 12.85 26.4911 13.1433C26.6869 13.4367 26.9653 13.6653 27.291 13.8004C27.6168 13.9355 27.9753 13.971 28.3212 13.9023C28.6671 13.8337 28.9849 13.664 29.2344 13.4148C29.4839 13.1655 29.6538 12.8479 29.7228 12.502C29.7917 12.1562 29.7566 11.7976 29.6218 11.4717C29.487 11.1459 29.2585 10.8673 28.9654 10.6712C28.6723 10.4752 28.3276 10.3705 27.9749 10.3703C27.5022 10.3705 27.0489 10.5583 26.7146 10.8925C26.3803 11.2267 26.1922 11.6799 26.1918 12.1526M14.0393 32.1809C13.097 32.1706 12.1636 31.9981 11.2798 31.6711C10.6389 31.4241 10.0568 31.0456 9.57097 30.56C9.08517 30.0744 8.70642 29.4924 8.45912 28.8516C8.13198 27.9679 7.95954 27.0344 7.94934 26.0921C7.87718 24.5259 7.86306 24.0553 7.86306 20.0872C7.86306 16.1191 7.87875 15.6497 7.94934 14.0819C7.96077 13.1398 8.13317 12.2065 8.45912 11.3224C8.70614 10.6813 9.08477 10.0991 9.5706 9.61322C10.0564 9.12739 10.6387 8.74876 11.2798 8.50174C12.1635 8.17461 13.097 8.00216 14.0393 7.99196C15.6055 7.9198 16.0761 7.90569 20.0426 7.90569C24.0092 7.90569 24.4801 7.92098 26.0479 7.99235C26.9901 8.00378 27.9234 8.17619 28.8074 8.50213C29.4485 8.74918 30.0308 9.12781 30.5166 9.61364C31.0024 10.0995 31.3811 10.6817 31.6281 11.3228C31.9552 12.2066 32.1277 13.1401 32.1379 14.0823C32.2101 15.6509 32.2242 16.1191 32.2242 20.0876C32.2242 24.0561 32.2097 24.5251 32.1379 26.0929C32.1269 27.0351 31.9545 27.9685 31.6281 28.8524C31.3808 29.4932 31.0021 30.0752 30.5163 30.5608C30.0305 31.0464 29.4484 31.4249 28.8074 31.6719C27.9237 31.999 26.9902 32.1715 26.0479 32.1817C24.4817 32.2539 24.0111 32.268 20.0426 32.268C16.0741 32.268 15.6051 32.2535 14.0393 32.1817M13.9162 5.31636C12.6832 5.34061 11.4633 5.57397 10.3085 6.00653C9.32125 6.38823 8.42468 6.97201 7.67625 7.72044C6.92782 8.46887 6.34404 9.36544 5.96234 10.3527C5.52984 11.5075 5.29648 12.7274 5.27218 13.9604C5.19884 15.5446 5.18237 16.0513 5.18237 20.0868C5.18237 24.1224 5.19924 24.6286 5.27218 26.2133C5.29647 27.4462 5.52983 28.6661 5.96234 29.821C6.34406 30.8082 6.92785 31.7048 7.67628 32.4532C8.42471 33.2016 9.32126 33.7854 10.3085 34.1671C11.4634 34.5995 12.6832 34.8329 13.9162 34.8573C15.5012 34.9295 16.0071 34.9471 20.0426 34.9471C24.0782 34.9471 24.5844 34.9302 26.1691 34.8573C27.402 34.833 28.6219 34.5996 29.7768 34.1671C30.764 33.7854 31.6606 33.2016 32.409 32.4532C33.1574 31.7048 33.7412 30.8082 34.1229 29.821C34.556 28.6663 34.7894 27.4463 34.8131 26.2133C34.8853 24.6278 34.9017 24.1224 34.9017 20.0868C34.9017 16.0513 34.8849 15.545 34.8131 13.9604C34.7889 12.7274 34.5555 11.5075 34.1229 10.3527C33.7412 9.36562 33.1576 8.4692 32.4094 7.72079C31.6612 6.97238 30.7649 6.38849 29.778 6.00653C28.6232 5.57369 27.4033 5.34032 26.1703 5.31636C24.5856 5.24382 24.0794 5.22656 20.0446 5.22656C16.0098 5.22656 15.5024 5.24343 13.917 5.31636" fill="white"/>
<defs>
<radialGradient id="paint0_radial_216_3087" cx="0" cy="0" r="1" gradientUnits="userSpaceOnUse" gradientTransform="translate(2.58951 39.1235) scale(50.7833)">
<stop offset="0.09" stop-color="#FA8F21"/>
<stop offset="0.78" stop-color="#D82D7E"/>
</radialGradient>
<radialGradient id="paint1_radial_216_3087" cx="0" cy="0" r="1" gradientUnits="userSpaceOnUse" gradientTransform="translate(27.7067 37.8389) scale(44.6898)">
<stop offset="0.64" stop-color="#8C3AAA" stop-opacity="0"/>
<stop offset="1" stop-color="#8C3AAA"/>
</radialGradient>
</defs>
</svg>
