<svg width="17" height="15" viewBox="0 0 17 15" fill="none" xmlns="http://www.w3.org/2000/svg">
<path fill-rule="evenodd" clip-rule="evenodd" d="M9.05163 0.775862C9.05163 0.570091 8.96988 0.372747 8.82438 0.227245C8.67888 0.0817424 8.48154 0 8.27577 0C8.06999 0 7.87265 0.0817424 7.72715 0.227245C7.58165 0.372747 7.4999 0.570091 7.4999 0.775862V2.06897H6.48197C6.16645 2.06897 5.85714 2.15172 5.58301 2.3069L4.25059 3.06931C4.21123 3.09183 4.16663 3.1036 4.12128 3.10345H1.81025C1.60448 3.10345 1.40713 3.18519 1.26163 3.33069C1.11613 3.4762 1.03439 3.67354 1.03439 3.87931C1.03439 4.08508 1.11613 4.28243 1.26163 4.42793C1.40713 4.57343 1.60448 4.65517 1.81025 4.65517H2.25301L0.0681792 9.50897C0.00364619 9.65256 -0.015676 9.81239 0.0127789 9.96723C0.0412337 10.1221 0.116119 10.2646 0.22749 10.3759L0.775765 9.82759L0.22749 10.3759V10.3769L0.229559 10.379L0.231628 10.381L0.237834 10.3872L0.254386 10.4028L0.300938 10.4441C0.518502 10.6265 0.756676 10.7827 1.01059 10.9097C1.66201 11.2273 2.37869 11.3881 3.10335 11.3793C4.0137 11.3793 4.71301 11.1517 5.19611 10.9097C5.45002 10.7827 5.6882 10.6265 5.90577 10.4441L5.95232 10.4028L5.96887 10.3872L5.97508 10.381L5.97714 10.379L5.97818 10.3769L5.43094 9.82759L5.97921 10.3759C6.09058 10.2646 6.16547 10.1221 6.19392 9.96723C6.22238 9.81239 6.20306 9.65256 6.13852 9.50897L3.9537 4.65517H4.12128C4.4368 4.65517 4.74611 4.57241 5.02025 4.41724L6.3537 3.65483C6.39276 3.63248 6.43697 3.62071 6.48197 3.62069H7.4999V13.4483H4.9137C4.70792 13.4483 4.51058 13.53 4.36508 13.6755C4.21958 13.821 4.13783 14.0184 4.13783 14.2241C4.13783 14.4299 4.21958 14.6273 4.36508 14.7728C4.51058 14.9183 4.70792 15 4.9137 15H11.6378C11.8436 15 12.0409 14.9183 12.1865 14.7728C12.332 14.6273 12.4137 14.4299 12.4137 14.2241C12.4137 14.0184 12.332 13.821 12.1865 13.6755C12.0409 13.53 11.8436 13.4483 11.6378 13.4483H9.05163V3.62069H10.0696C10.1146 3.62071 10.1588 3.63248 10.1978 3.65483L11.5323 4.41621C11.8054 4.57345 12.1147 4.65517 12.4302 4.65517H12.5978L10.413 9.50897C10.3485 9.65256 10.3292 9.81239 10.3576 9.96723C10.3861 10.1221 10.4609 10.2646 10.5723 10.3759L11.1206 9.82759L10.5723 10.3759V10.3769L10.5744 10.379L10.5765 10.381L10.5827 10.3872L10.5992 10.4028L10.6458 10.4441C10.8633 10.6265 11.1015 10.7827 11.3554 10.9097C12.0068 11.2273 12.7235 11.3881 13.4482 11.3793C14.3585 11.3793 15.0578 11.1517 15.5409 10.9097C15.7949 10.7827 16.033 10.6265 16.2506 10.4441L16.2971 10.4028L16.3075 10.3924L16.3137 10.3872L16.3199 10.381L16.322 10.379L16.323 10.3769L15.7758 9.82759L16.324 10.3759C16.4354 10.2646 16.5103 10.1221 16.5388 9.96723C16.5672 9.81239 16.5479 9.65256 16.4834 9.50897L14.2996 4.65517H14.7413C14.9471 4.65517 15.1444 4.57343 15.2899 4.42793C15.4354 4.28243 15.5171 4.08508 15.5171 3.87931C15.5171 3.67354 15.4354 3.4762 15.2899 3.33069C15.1444 3.18519 14.9471 3.10345 14.7413 3.10345H12.4302C12.3852 3.10342 12.341 3.09166 12.302 3.06931L10.9675 2.30793C10.6944 2.15169 10.3852 2.06932 10.0706 2.06897H9.05163V0.775862ZM1.75335 9.54517C2.04818 9.68483 2.49611 9.82759 3.10335 9.82759C3.71059 9.82759 4.15852 9.68483 4.45335 9.54517L3.10335 6.54517L1.75335 9.54517ZM12.0982 9.54517C12.393 9.68483 12.8409 9.82759 13.4482 9.82759C14.0554 9.82759 14.5034 9.68483 14.7982 9.54517L13.4482 6.54517L12.0982 9.54517Z" fill="#132E3F"/>
</svg>
