<svg width="8" height="8" viewBox="0 0 8 8" fill="none" xmlns="http://www.w3.org/2000/svg">
<path d="M7.86667 2.52006C7.04 1.77339 6.21333 1.01339 5.38667 0.266724C4.17333 2.10672 2.12 3.74672 0.173333 4.93339C0.12 5.18672 0.0666667 5.42672 0 5.66672C0.853333 6.44006 1.70667 7.22672 2.56 8.00006C4.57333 6.89339 6.70667 5.32006 8 3.53339C7.96 3.20006 7.90667 2.86672 7.86667 2.52006Z" fill="#699635"/>
<path d="M2.71995 7.01333C1.87995 6.24 1.03995 5.46667 0.199951 4.70667C2.29328 3.52 4.05328 1.90667 5.34662 0C6.18662 0.773333 7.02662 1.53333 7.86662 2.30667C6.57328 4.21333 4.81328 5.82667 2.71995 7.01333Z" fill="#83BF4F"/>
<path d="M2.50666 6.50667C1.94666 6 1.38666 5.48 0.82666 4.97334C0.86666 4.94667 0.893327 4.93334 0.933327 4.90667C1.03999 4.84 1.06666 4.72 0.973327 4.62667L0.893327 4.54667C2.58666 3.50667 4.05333 2.17334 5.19999 0.62667L5.27999 0.70667C5.37333 0.78667 5.50666 0.773337 5.58666 0.680003C5.61333 0.653337 5.62666 0.613337 5.65333 0.58667C6.21333 1.09334 6.77333 1.61334 7.33333 2.12C7.30666 2.14667 7.29333 2.18667 7.26666 2.21334C7.18666 2.32 7.19999 2.46667 7.29333 2.56L7.37333 2.64C6.22666 4.17334 4.75999 5.50667 3.06666 6.54667L2.98666 6.46667C2.89333 6.38667 2.73333 6.37334 2.61333 6.44C2.57333 6.46667 2.54666 6.48 2.50666 6.50667ZM1.18666 4.98667C1.63999 5.4 2.09333 5.81334 2.55999 6.24C2.73333 6.18667 2.93333 6.2 3.09333 6.28C4.63999 5.29334 5.98666 4.06667 7.06666 2.64C6.97333 2.49334 6.95999 2.30667 7.02666 2.14667C6.57333 1.73334 6.11999 1.32 5.65333 0.893337C5.53333 1 5.35999 1.01334 5.21333 0.933337C4.13333 2.37334 2.78666 3.6 1.23999 4.58667C1.31999 4.72 1.30666 4.88 1.18666 4.98667Z" fill="#699635"/>
<path d="M2.40001 4.70662C2.54667 4.65329 2.70667 4.66662 2.81334 4.75995C2.74667 4.81329 2.66667 4.86662 2.60001 4.91995C2.57334 4.89329 2.50667 4.89329 2.48001 4.91995C2.44001 4.94662 2.42667 4.98662 2.46667 5.01329C2.49334 5.03995 2.56001 5.03995 2.60001 5.01329C2.76001 4.90662 2.98667 4.89329 3.10667 5.01329C3.20001 5.10662 3.21334 5.23995 3.12001 5.34662C3.14667 5.37329 3.17334 5.38662 3.20001 5.41329C3.13334 5.45329 3.06667 5.50662 3.00001 5.54662C2.97334 5.51995 2.94667 5.49329 2.92001 5.47995C2.77334 5.51995 2.61334 5.50662 2.52001 5.41329C2.60001 5.35995 2.66667 5.31995 2.74667 5.26662C2.77334 5.29329 2.84001 5.29329 2.88001 5.26662C2.92001 5.23995 2.92001 5.19995 2.89334 5.17329C2.86667 5.14662 2.81334 5.14662 2.77334 5.17329C2.68001 5.23995 2.56001 5.26662 2.45334 5.25329C2.37334 5.23995 2.30667 5.21329 2.25334 5.17329C2.16001 5.07995 2.16001 4.95995 2.24001 4.85329C2.21334 4.83995 2.20001 4.81329 2.17334 4.78662C2.24001 4.74662 2.30667 4.69329 2.37334 4.65329C2.36001 4.66662 2.38667 4.67995 2.40001 4.70662ZM5.49334 1.85329C5.61334 1.77329 5.76001 1.77329 5.85334 1.86662L5.69334 2.06662C5.66667 2.03995 5.61334 2.03995 5.58667 2.07995C5.56001 2.11995 5.56001 2.17329 5.58667 2.19995C5.61334 2.22662 5.66667 2.22662 5.69334 2.18662C5.81334 2.03995 6.01334 2.01329 6.13334 2.11995C6.22667 2.21329 6.25334 2.35995 6.20001 2.49329C6.22667 2.51995 6.25334 2.53329 6.28001 2.55995C6.22667 2.62662 6.18667 2.67995 6.13334 2.74662C6.10667 2.71995 6.08001 2.69329 6.05334 2.67995C5.93334 2.74662 5.80001 2.74662 5.70667 2.65329C5.76001 2.58662 5.82667 2.51995 5.88001 2.45329C5.90667 2.47995 5.96001 2.47995 5.98667 2.43995C6.01334 2.39995 6.01334 2.34662 5.98667 2.31995C5.96001 2.29329 5.90667 2.29329 5.88001 2.33329C5.81334 2.41329 5.70667 2.46662 5.61334 2.46662C5.54667 2.46662 5.48001 2.43995 5.42667 2.39995C5.33334 2.30662 5.30667 2.17329 5.36001 2.03995C5.33334 2.02662 5.32001 1.99995 5.29334 1.97329C5.34667 1.91995 5.40001 1.85329 5.44001 1.78662C5.44001 1.81329 5.46667 1.82662 5.49334 1.85329ZM5.09334 4.46662C4.66667 4.85329 3.94667 4.83995 3.53334 4.46662C3.12001 4.07995 3.14667 3.47995 3.57334 3.09329C4.00001 2.70662 4.66667 2.66662 5.08001 3.05329C5.50667 3.42662 5.52001 4.07995 5.09334 4.46662Z" fill="#699635"/>
<path d="M2.64001 2.99999L5.16001 5.30666C5.45335 5.06666 5.72002 4.81332 5.98668 4.54666L3.48001 2.23999C3.21335 2.49332 2.93335 2.74666 2.64001 2.99999Z" fill="#FFDD7D"/>
<path d="M5.17334 6.31999C5.45334 6.10666 5.73334 5.87999 6.00001 5.65333V4.53333C5.73334 4.79999 5.45334 5.05333 5.17334 5.29333V6.31999Z" fill="#DBB471"/>
</svg>
