<svg width="8" height="17" viewBox="0 0 8 17" fill="none" xmlns="http://www.w3.org/2000/svg">
<path d="M1.32739 8.334e-05C1.49815 -0.000496479 1.66688 0.0371918 1.82117 0.110381C1.97546 0.183569 2.11139 0.290398 2.21897 0.423017L7.73997 7.28139C7.90809 7.48593 8 7.74248 8 8.00724C8 8.272 7.90809 8.52855 7.73997 8.73308L2.02465 15.5915C1.83063 15.8249 1.55183 15.9717 1.24957 15.9996C0.947313 16.0274 0.646366 15.9341 0.412933 15.7401C0.179501 15.546 0.0327044 15.2672 0.00483665 14.965C-0.0230311 14.6627 0.0703136 14.3618 0.264335 14.1283L5.37383 8.00152L0.435797 1.87471C0.296019 1.70692 0.207229 1.50261 0.179934 1.28594C0.152638 1.06928 0.187978 0.849324 0.281773 0.652114C0.375568 0.454904 0.523892 0.288691 0.709194 0.173138C0.894496 0.0575851 1.10902 -0.00246871 1.32739 8.334e-05Z" fill="#132E3F" fill-opacity="0.5"/>
</svg>
