<svg width="18" height="22" viewBox="0 0 18 22" fill="none" xmlns="http://www.w3.org/2000/svg">
<path d="M2.91132 8.64527H2.00117H2.91132ZM8.64527 2.91132V2.00117V2.91132ZM1 16.3361C0.497337 16.3361 0.0898483 16.7435 0.0898483 17.2462C0.0898483 17.7489 0.497337 18.1564 1 18.1564V16.3361ZM16.2905 18.1564C16.7932 18.1564 17.2007 17.7489 17.2007 17.2462C17.2007 16.7435 16.7932 16.3361 16.2905 16.3361V18.1564ZM7.68961 19.203C7.18695 19.203 6.77946 19.6105 6.77946 20.1132C6.77946 20.6158 7.18695 21.0233 7.68961 21.0233V19.203ZM9.60093 21.0233C10.1036 21.0233 10.5111 20.6158 10.5111 20.1132C10.5111 19.6105 10.1036 19.203 9.60093 19.203V21.0233ZM3.82147 17.2462V8.64527H2.00117V17.2462H3.82147ZM3.82147 8.64527C3.82147 7.36592 4.32969 6.13897 5.23433 5.23433L3.94718 3.94718C2.70117 5.19319 2.00117 6.88315 2.00117 8.64527H3.82147ZM5.23433 5.23433C6.13897 4.32969 7.36592 3.82147 8.64527 3.82147V2.00117C6.88315 2.00117 5.19319 2.70117 3.94718 3.94718L5.23433 5.23433ZM8.64527 3.82147C9.92463 3.82147 11.1516 4.32969 12.0562 5.23433L13.3434 3.94718C12.0974 2.70117 10.4074 2.00117 8.64527 2.00117V3.82147ZM12.0562 5.23433C12.9609 6.13897 13.4691 7.36592 13.4691 8.64527H15.2894C15.2894 6.88315 14.5894 5.19319 13.3434 3.94718L12.0562 5.23433ZM13.4691 8.64527V17.2462H15.2894V8.64527H13.4691ZM2.91132 18.1564H14.3792V16.3361H2.91132V18.1564ZM2.91132 16.3361H1V18.1564H2.91132V16.3361ZM14.3792 18.1564H16.2905V16.3361H14.3792V18.1564ZM7.68961 21.0233H9.60093V19.203H7.68961V21.0233ZM8.69078 1.95566C8.69078 1.98079 8.67041 2.00117 8.64527 2.00117V3.82147C9.67573 3.82147 10.5111 2.98612 10.5111 1.95566H8.69078ZM8.64527 2.00117C8.62014 2.00117 8.59977 1.98079 8.59977 1.95566H6.77946C6.77946 2.98612 7.61481 3.82147 8.64527 3.82147V2.00117ZM8.59977 1.95566C8.59977 1.93053 8.62014 1.91015 8.64527 1.91015V0.0898483C7.61481 0.0898483 6.77946 0.9252 6.77946 1.95566H8.59977ZM8.64527 1.91015C8.67041 1.91015 8.69078 1.93053 8.69078 1.95566H10.5111C10.5111 0.925201 9.67573 0.0898483 8.64527 0.0898483V1.91015Z" fill="white"/>
</svg>
