<svg width="19" height="22" viewBox="0 0 19 22" fill="none" xmlns="http://www.w3.org/2000/svg">
<g filter="url(#filter0_d_35_8)">
<path d="M2 15.1842L1.31932 14.8693C1.21187 15.1015 1.23025 15.3725 1.36806 15.5881C1.50588 15.8037 1.74411 15.9342 2 15.9342V15.1842ZM17 15.1842V15.9342C17.2559 15.9342 17.4941 15.8037 17.6319 15.5881C17.7698 15.3725 17.7881 15.1015 17.6807 14.8693L17 15.1842ZM4.625 7.07895C4.625 4.07998 6.86136 1.75 9.5 1.75V0.25C5.92544 0.25 3.125 3.3633 3.125 7.07895H4.625ZM9.5 1.75C12.1386 1.75 14.375 4.07998 14.375 7.07895H15.875C15.875 3.3633 13.0746 0.25 9.5 0.25V1.75ZM3.125 7.07895C3.125 9.0003 2.67854 10.9463 2.22082 12.4303C1.99322 13.1682 1.76572 13.7827 1.59579 14.2112C1.51089 14.4253 1.44055 14.5924 1.39202 14.7048C1.36776 14.761 1.34896 14.8035 1.33654 14.8312C1.33033 14.8451 1.32571 14.8553 1.3228 14.8617C1.32135 14.8649 1.3199 14.868 1.31932 14.8693C1.31939 14.8691 1.31903 14.8699 1.31932 14.8693C1.31936 14.8692 1.31932 14.8693 2 15.1842C2.68068 15.4991 2.68074 15.499 2.68082 15.4988C2.68075 15.499 2.68085 15.4988 2.68082 15.4988C2.68095 15.4985 2.6813 15.4978 2.68149 15.4974C2.68187 15.4965 2.68237 15.4955 2.68298 15.4941C2.6842 15.4915 2.68586 15.4879 2.68795 15.4833C2.69214 15.4741 2.69805 15.461 2.70558 15.4442C2.72062 15.4106 2.74211 15.362 2.76911 15.2995C2.82312 15.1744 2.89926 14.9933 2.99015 14.7641C3.17178 14.3061 3.41303 13.6542 3.65418 12.8724C4.13396 11.3169 4.625 9.21023 4.625 7.07895H3.125ZM2 15.9342H17V14.4342H2V15.9342ZM17 15.1842C17.6807 14.8693 17.6806 14.8692 17.6807 14.8693C17.681 14.8699 17.6806 14.8691 17.6807 14.8693C17.6801 14.868 17.6787 14.8649 17.6772 14.8617C17.6743 14.8553 17.6697 14.8451 17.6635 14.8312C17.651 14.8035 17.6322 14.761 17.608 14.7048C17.5594 14.5924 17.4891 14.4253 17.4042 14.2112C17.2343 13.7827 17.0068 13.1682 16.7792 12.4303C16.3215 10.9463 15.875 9.0003 15.875 7.07895H14.375C14.375 9.21023 14.866 11.3169 15.3458 12.8724C15.587 13.6542 15.8282 14.3061 16.0099 14.7641C16.1007 14.9933 16.1769 15.1744 16.2309 15.2995C16.2579 15.362 16.2794 15.4106 16.2944 15.4442C16.3019 15.461 16.3079 15.4741 16.312 15.4833C16.3141 15.4879 16.3158 15.4915 16.317 15.4941C16.3176 15.4955 16.3181 15.4965 16.3185 15.4974C16.3187 15.4978 16.3189 15.4981 16.319 15.4984C16.3189 15.4984 16.3191 15.4986 16.319 15.4984C16.3191 15.4986 16.3193 15.4991 17 15.1842ZM11.5625 16.1974C11.5625 17.5177 10.5853 18.4868 9.5 18.4868V19.9868C11.5213 19.9868 13.0625 18.2344 13.0625 16.1974H11.5625ZM9.5 18.4868C8.41466 18.4868 7.4375 17.5177 7.4375 16.1974H5.9375C5.9375 18.2344 7.47874 19.9868 9.5 19.9868V18.4868ZM7.4375 16.1974V15.1842H5.9375V16.1974H7.4375ZM13.0625 16.1974V15.1842H11.5625V16.1974H13.0625Z" fill="white"/>
</g>
<circle cx="14" cy="5" r="2.5" fill="#F1C424" stroke="#346780"/>
<defs>
<filter id="filter0_d_35_8" x="0.25" y="0.25" width="18.5" height="21.7368" filterUnits="userSpaceOnUse" color-interpolation-filters="sRGB">
<feFlood flood-opacity="0" result="BackgroundImageFix"/>
<feColorMatrix in="SourceAlpha" type="matrix" values="0 0 0 0 0 0 0 0 0 0 0 0 0 0 0 0 0 0 127 0" result="hardAlpha"/>
<feOffset dy="1"/>
<feGaussianBlur stdDeviation="0.5"/>
<feComposite in2="hardAlpha" operator="out"/>
<feColorMatrix type="matrix" values="0 0 0 0 0 0 0 0 0 0 0 0 0 0 0 0 0 0 0.1 0"/>
<feBlend mode="normal" in2="BackgroundImageFix" result="effect1_dropShadow_35_8"/>
<feBlend mode="normal" in="SourceGraphic" in2="effect1_dropShadow_35_8" result="shape"/>
</filter>
</defs>
</svg>
