<svg width="14" height="17" viewBox="0 0 14 17" fill="none" xmlns="http://www.w3.org/2000/svg">
<path fill-rule="evenodd" clip-rule="evenodd" d="M7.27 2.14C5.26463 2.14 3.565 3.91078 3.565 6.19C3.565 7.80977 3.19181 9.41083 2.82718 10.593C2.68425 11.0564 2.54126 11.4598 2.41977 11.78H12.1202C11.9987 11.4598 11.8558 11.0564 11.7128 10.593C11.3482 9.41083 10.975 7.80977 10.975 6.19C10.975 3.91078 9.27537 2.14 7.27 2.14ZM13.4874 12.1108C13.569 12.2873 13.555 12.4932 13.4503 12.657C13.3455 12.8208 13.1645 12.92 12.97 12.92H9.9775V13.12C9.9775 14.6681 8.80616 16 7.27 16C5.73384 16 4.5625 14.6681 4.5625 13.12V12.92H1.57C1.37552 12.92 1.19447 12.8208 1.08973 12.657C0.985034 12.4932 0.971037 12.2873 1.05258 12.1109C1.05259 12.1109 1.05259 12.1109 1.0526 12.1108L1.05261 12.1108C1.05264 12.1108 1.05266 12.1107 1.05269 12.1107L1.053 12.11L1.05533 12.1049L1.06577 12.0817C1.07521 12.0606 1.0895 12.0284 1.10794 11.9857C1.14482 11.9003 1.19828 11.7732 1.2628 11.6105C1.39195 11.2848 1.56485 10.8178 1.73782 10.257C2.08569 9.12917 2.425 7.65023 2.425 6.19C2.425 3.36611 4.55333 1 7.27 1C9.98667 1 12.115 3.36611 12.115 6.19C12.115 7.65023 12.4543 9.12917 12.8022 10.257C12.9752 10.8178 13.1481 11.2848 13.2772 11.6105C13.3417 11.7732 13.3952 11.9003 13.4321 11.9857C13.4505 12.0284 13.4648 12.0606 13.4742 12.0817L13.4847 12.1049L13.487 12.11L13.4873 12.1107L13.4874 12.1108ZM5.7025 12.92V13.12C5.7025 14.1234 6.44514 14.86 7.27 14.86C8.09486 14.86 8.8375 14.1234 8.8375 13.12V12.92H5.7025Z" fill="#132E3F" stroke="#132E3F" stroke-width="0.3"/>
</svg>
