<svg width="15" height="19" viewBox="0 0 15 19" fill="none" xmlns="http://www.w3.org/2000/svg">
<path d="M13.125 19H1.875C1.37772 19 0.900805 18.7998 0.549175 18.4435C0.197544 18.0872 0 17.604 0 17.1001V1.90075C0 1.39686 0.197544 0.913612 0.549175 0.557308C0.900805 0.201005 1.37772 0.000835891 1.875 0.000835891H8.4375C8.4459 -0.00027863 8.45441 -0.00027863 8.46281 0.000835891H8.46844C8.47729 0.00363986 8.4864 0.00554912 8.49563 0.00653568C8.57813 0.0122354 8.65969 0.0283846 8.73844 0.0549834H8.77781C8.79511 0.0672559 8.81142 0.0809158 8.82656 0.0958316C8.92869 0.14185 9.02175 0.206218 9.10125 0.285823L14.7262 5.98557C14.8048 6.06612 14.8684 6.16042 14.9138 6.26391C14.9219 6.28445 14.9291 6.30537 14.9353 6.32661L14.9447 6.35321C14.9709 6.43205 14.9859 6.5147 14.9906 6.5983C14.9914 6.60776 14.9937 6.61705 14.9972 6.62584V6.63154C14.9987 6.63778 14.9996 6.64414 15 6.65054V17.1001C15 17.604 14.8025 18.0872 14.4508 18.4435C14.0992 18.7998 13.6223 19 13.125 19ZM9.7725 11.4003V16.1501H10.6538V14.2122H12.0225V13.4161H10.6538V12.1993H12.1875V11.4003H9.7725ZM6.30375 11.4003V16.1501H7.43438C7.66855 16.1619 7.90233 16.1201 8.11847 16.0281C8.33461 15.936 8.52757 15.7959 8.68313 15.6181C9.00647 15.2001 9.16844 14.677 9.13875 14.1467V13.3772C9.16056 12.8525 8.99404 12.3375 8.67 11.9276C8.36531 11.5761 7.92 11.3823 7.45781 11.4003H6.30375ZM2.8125 11.4003V16.1501H3.69375V14.4791H4.28062C4.6725 14.501 5.055 14.3538 5.33437 14.0745C5.60052 13.7727 5.73862 13.3768 5.71875 12.9725C5.73615 12.5585 5.59814 12.1533 5.3325 11.8383C5.20273 11.6924 5.04271 11.5776 4.86392 11.5018C4.68513 11.4261 4.49201 11.3915 4.29844 11.4003H2.8125ZM8.4375 1.90075V6.65054H13.125L8.4375 1.90075ZM7.44938 15.3541H7.185V12.1993H7.50562C7.61767 12.1926 7.72959 12.2144 7.83113 12.2629C7.93267 12.3114 8.0206 12.3848 8.08687 12.4766C8.22469 12.7645 8.28375 13.0846 8.2575 13.4038V14.2293C8.27812 14.5333 8.21344 14.8373 8.07 15.1042C7.99431 15.1938 7.89826 15.2633 7.79014 15.3068C7.68201 15.3503 7.56506 15.3665 7.44938 15.3541ZM4.29844 13.6802H3.69281V12.1993H4.30687C4.38229 12.2001 4.45626 12.2203 4.52185 12.258C4.58744 12.2957 4.6425 12.3497 4.68188 12.4149C4.78313 12.5849 4.83188 12.7806 4.8225 12.9792C4.83426 13.1639 4.78584 13.3475 4.68469 13.5016C4.63872 13.5601 4.57978 13.6068 4.51266 13.6378C4.44554 13.6688 4.37215 13.6834 4.29844 13.6802Z" fill="#989797"/>
</svg>
