<svg width="19" height="16" viewBox="0 0 19 16" fill="none" xmlns="http://www.w3.org/2000/svg">
<path d="M7.10526 6.60526C5.42272 6.60526 4.05263 5.23517 4.05263 3.55263C4.05263 1.87009 5.42272 0.5 7.10526 0.5C8.78781 0.5 10.1579 1.87009 10.1579 3.55263C10.1579 5.23517 8.78781 6.60526 7.10526 6.60526ZM13.7105 14.2105V14.5H13.4211H0.5V14.2105C0.5 11.44 2.75514 9.18421 5.52632 9.18421H8.68421C11.4546 9.18421 13.7105 11.4401 13.7105 14.2105Z" stroke="#132E3F"/>
<mask id="path-2-outside-1_216_3040" maskUnits="userSpaceOnUse" x="11" y="8" width="8" height="8" fill="black">
<rect fill="white" x="11" y="8" width="8" height="8"/>
<path d="M15.563 15H14.4375C14.3669 15 14.2985 14.9766 14.2436 14.9337C14.1886 14.8909 14.1504 14.831 14.1354 14.7642L14.0095 14.199C13.8416 14.1276 13.6824 14.0384 13.5348 13.9329L12.9668 14.1084C12.8996 14.1292 12.827 14.1271 12.7612 14.1023C12.6954 14.0776 12.6403 14.0318 12.605 13.9725L12.041 13.0272C12.0061 12.9678 11.993 12.8987 12.0038 12.8312C12.0147 12.7637 12.0488 12.7017 12.1007 12.6555L12.5413 12.2655C12.5213 12.0888 12.5213 11.9106 12.5413 11.7339L12.1007 11.3448C12.0487 11.2985 12.0145 11.2365 12.0037 11.1689C11.9929 11.1013 12.006 11.0322 12.041 10.9728L12.6038 10.0269C12.639 9.96759 12.6941 9.92178 12.76 9.89706C12.8258 9.87234 12.8983 9.8702 12.9656 9.891L13.5336 10.0665C13.6091 10.0125 13.6876 9.9621 13.7686 9.9165C13.8468 9.8739 13.9272 9.8352 14.0095 9.8007L14.1357 9.2361C14.1507 9.16926 14.1888 9.10941 14.2437 9.06646C14.2986 9.02352 14.3669 9.00007 14.4375 9H15.563C15.6336 9.00007 15.7019 9.02352 15.7568 9.06646C15.8117 9.10941 15.8498 9.16926 15.8648 9.2361L15.9922 9.801C16.16 9.87237 16.3191 9.96162 16.4666 10.0671L17.0349 9.8916C17.1021 9.87087 17.1746 9.87305 17.2404 9.89777C17.3061 9.92249 17.3612 9.96826 17.3964 10.0275L17.9592 10.9734C18.031 11.0955 18.0062 11.25 17.8995 11.3451L17.4589 11.7351C17.4789 11.9118 17.4789 12.09 17.4589 12.2667L17.8995 12.6567C18.0062 12.7521 18.031 12.9063 17.9592 13.0284L17.3964 13.9743C17.3612 14.0336 17.306 14.0794 17.2402 14.1041C17.1744 14.1289 17.1019 14.131 17.0346 14.1102L16.4666 13.9347C16.3191 14.0401 16.16 14.1293 15.9922 14.2005L15.8648 14.7642C15.8498 14.831 15.8116 14.8908 15.7567 14.9337C15.7018 14.9765 15.6335 14.9999 15.563 15ZM13.6458 13.2687L13.8994 13.4487C13.9566 13.4895 14.016 13.527 14.0778 13.5612C14.136 13.5939 14.1953 13.6233 14.2569 13.65L14.5454 13.7727L14.6867 14.4H15.3144L15.4557 13.7724L15.7442 13.6497C15.8701 13.5957 15.9898 13.5288 16.1008 13.4499L16.3543 13.2699L16.9858 13.4649L17.2996 12.9375L16.8101 12.5046L16.8448 12.201C16.8602 12.0681 16.8602 11.934 16.8448 11.8014L16.8101 11.4978L17.2999 11.064L16.9858 10.5363L16.3546 10.7313L16.1008 10.5513C15.9897 10.472 15.8702 10.4045 15.7442 10.35L15.4557 10.2273L15.3144 9.6H14.6867L14.5445 10.2276L14.2569 10.35C14.1308 10.4036 14.0112 10.4706 13.9003 10.5498L13.6465 10.7298L13.0157 10.5348L12.7012 11.064L13.1907 11.4963L13.156 11.8002C13.1406 11.9331 13.1406 12.0672 13.156 12.1998L13.1907 12.5034L12.7012 12.9363L13.015 13.4637L13.6458 13.2687ZM14.999 13.2C14.671 13.2 14.3564 13.0736 14.1244 12.8485C13.8924 12.6235 13.7621 12.3183 13.7621 12C13.7621 11.6817 13.8924 11.3765 14.1244 11.1515C14.3564 10.9264 14.671 10.8 14.999 10.8C15.3271 10.8 15.6417 10.9264 15.8736 11.1515C16.1056 11.3765 16.2359 11.6817 16.2359 12C16.2359 12.3183 16.1056 12.6235 15.8736 12.8485C15.6417 13.0736 15.3271 13.2 14.999 13.2ZM14.999 11.4C14.8779 11.4001 14.7595 11.4347 14.6585 11.4995C14.5575 11.5644 14.4783 11.6565 14.4308 11.7646C14.3833 11.8727 14.3695 11.9919 14.3912 12.1075C14.4129 12.2231 14.4691 12.3299 14.5528 12.4148C14.6365 12.4997 14.7441 12.5589 14.8622 12.585C14.9803 12.6111 15.1037 12.603 15.217 12.5617C15.3304 12.5204 15.4288 12.4477 15.5 12.3527C15.5712 12.2576 15.612 12.1444 15.6175 12.027V12.147V12C15.6175 11.8409 15.5523 11.6883 15.4363 11.5757C15.3203 11.4632 15.163 11.4 14.999 11.4Z"/>
</mask>
<path d="M15.563 15H14.4375C14.3669 15 14.2985 14.9766 14.2436 14.9337C14.1886 14.8909 14.1504 14.831 14.1354 14.7642L14.0095 14.199C13.8416 14.1276 13.6824 14.0384 13.5348 13.9329L12.9668 14.1084C12.8996 14.1292 12.827 14.1271 12.7612 14.1023C12.6954 14.0776 12.6403 14.0318 12.605 13.9725L12.041 13.0272C12.0061 12.9678 11.993 12.8987 12.0038 12.8312C12.0147 12.7637 12.0488 12.7017 12.1007 12.6555L12.5413 12.2655C12.5213 12.0888 12.5213 11.9106 12.5413 11.7339L12.1007 11.3448C12.0487 11.2985 12.0145 11.2365 12.0037 11.1689C11.9929 11.1013 12.006 11.0322 12.041 10.9728L12.6038 10.0269C12.639 9.96759 12.6941 9.92178 12.76 9.89706C12.8258 9.87234 12.8983 9.8702 12.9656 9.891L13.5336 10.0665C13.6091 10.0125 13.6876 9.9621 13.7686 9.9165C13.8468 9.8739 13.9272 9.8352 14.0095 9.8007L14.1357 9.2361C14.1507 9.16926 14.1888 9.10941 14.2437 9.06646C14.2986 9.02352 14.3669 9.00007 14.4375 9H15.563C15.6336 9.00007 15.7019 9.02352 15.7568 9.06646C15.8117 9.10941 15.8498 9.16926 15.8648 9.2361L15.9922 9.801C16.16 9.87237 16.3191 9.96162 16.4666 10.0671L17.0349 9.8916C17.1021 9.87087 17.1746 9.87305 17.2404 9.89777C17.3061 9.92249 17.3612 9.96826 17.3964 10.0275L17.9592 10.9734C18.031 11.0955 18.0062 11.25 17.8995 11.3451L17.4589 11.7351C17.4789 11.9118 17.4789 12.09 17.4589 12.2667L17.8995 12.6567C18.0062 12.7521 18.031 12.9063 17.9592 13.0284L17.3964 13.9743C17.3612 14.0336 17.306 14.0794 17.2402 14.1041C17.1744 14.1289 17.1019 14.131 17.0346 14.1102L16.4666 13.9347C16.3191 14.0401 16.16 14.1293 15.9922 14.2005L15.8648 14.7642C15.8498 14.831 15.8116 14.8908 15.7567 14.9337C15.7018 14.9765 15.6335 14.9999 15.563 15ZM13.6458 13.2687L13.8994 13.4487C13.9566 13.4895 14.016 13.527 14.0778 13.5612C14.136 13.5939 14.1953 13.6233 14.2569 13.65L14.5454 13.7727L14.6867 14.4H15.3144L15.4557 13.7724L15.7442 13.6497C15.8701 13.5957 15.9898 13.5288 16.1008 13.4499L16.3543 13.2699L16.9858 13.4649L17.2996 12.9375L16.8101 12.5046L16.8448 12.201C16.8602 12.0681 16.8602 11.934 16.8448 11.8014L16.8101 11.4978L17.2999 11.064L16.9858 10.5363L16.3546 10.7313L16.1008 10.5513C15.9897 10.472 15.8702 10.4045 15.7442 10.35L15.4557 10.2273L15.3144 9.6H14.6867L14.5445 10.2276L14.2569 10.35C14.1308 10.4036 14.0112 10.4706 13.9003 10.5498L13.6465 10.7298L13.0157 10.5348L12.7012 11.064L13.1907 11.4963L13.156 11.8002C13.1406 11.9331 13.1406 12.0672 13.156 12.1998L13.1907 12.5034L12.7012 12.9363L13.015 13.4637L13.6458 13.2687ZM14.999 13.2C14.671 13.2 14.3564 13.0736 14.1244 12.8485C13.8924 12.6235 13.7621 12.3183 13.7621 12C13.7621 11.6817 13.8924 11.3765 14.1244 11.1515C14.3564 10.9264 14.671 10.8 14.999 10.8C15.3271 10.8 15.6417 10.9264 15.8736 11.1515C16.1056 11.3765 16.2359 11.6817 16.2359 12C16.2359 12.3183 16.1056 12.6235 15.8736 12.8485C15.6417 13.0736 15.3271 13.2 14.999 13.2ZM14.999 11.4C14.8779 11.4001 14.7595 11.4347 14.6585 11.4995C14.5575 11.5644 14.4783 11.6565 14.4308 11.7646C14.3833 11.8727 14.3695 11.9919 14.3912 12.1075C14.4129 12.2231 14.4691 12.3299 14.5528 12.4148C14.6365 12.4997 14.7441 12.5589 14.8622 12.585C14.9803 12.6111 15.1037 12.603 15.217 12.5617C15.3304 12.5204 15.4288 12.4477 15.5 12.3527C15.5712 12.2576 15.612 12.1444 15.6175 12.027V12.147V12C15.6175 11.8409 15.5523 11.6883 15.4363 11.5757C15.3203 11.4632 15.163 11.4 14.999 11.4Z" fill="#132E3F"/>
<path d="M15.563 15H14.4375C14.3669 15 14.2985 14.9766 14.2436 14.9337C14.1886 14.8909 14.1504 14.831 14.1354 14.7642L14.0095 14.199C13.8416 14.1276 13.6824 14.0384 13.5348 13.9329L12.9668 14.1084C12.8996 14.1292 12.827 14.1271 12.7612 14.1023C12.6954 14.0776 12.6403 14.0318 12.605 13.9725L12.041 13.0272C12.0061 12.9678 11.993 12.8987 12.0038 12.8312C12.0147 12.7637 12.0488 12.7017 12.1007 12.6555L12.5413 12.2655C12.5213 12.0888 12.5213 11.9106 12.5413 11.7339L12.1007 11.3448C12.0487 11.2985 12.0145 11.2365 12.0037 11.1689C11.9929 11.1013 12.006 11.0322 12.041 10.9728L12.6038 10.0269C12.639 9.96759 12.6941 9.92178 12.76 9.89706C12.8258 9.87234 12.8983 9.8702 12.9656 9.891L13.5336 10.0665C13.6091 10.0125 13.6876 9.9621 13.7686 9.9165C13.8468 9.8739 13.9272 9.8352 14.0095 9.8007L14.1357 9.2361C14.1507 9.16926 14.1888 9.10941 14.2437 9.06646C14.2986 9.02352 14.3669 9.00007 14.4375 9H15.563C15.6336 9.00007 15.7019 9.02352 15.7568 9.06646C15.8117 9.10941 15.8498 9.16926 15.8648 9.2361L15.9922 9.801C16.16 9.87237 16.3191 9.96162 16.4666 10.0671L17.0349 9.8916C17.1021 9.87087 17.1746 9.87305 17.2404 9.89777C17.3061 9.92249 17.3612 9.96826 17.3964 10.0275L17.9592 10.9734C18.031 11.0955 18.0062 11.25 17.8995 11.3451L17.4589 11.7351C17.4789 11.9118 17.4789 12.09 17.4589 12.2667L17.8995 12.6567C18.0062 12.7521 18.031 12.9063 17.9592 13.0284L17.3964 13.9743C17.3612 14.0336 17.306 14.0794 17.2402 14.1041C17.1744 14.1289 17.1019 14.131 17.0346 14.1102L16.4666 13.9347C16.3191 14.0401 16.16 14.1293 15.9922 14.2005L15.8648 14.7642C15.8498 14.831 15.8116 14.8908 15.7567 14.9337C15.7018 14.9765 15.6335 14.9999 15.563 15ZM13.6458 13.2687L13.8994 13.4487C13.9566 13.4895 14.016 13.527 14.0778 13.5612C14.136 13.5939 14.1953 13.6233 14.2569 13.65L14.5454 13.7727L14.6867 14.4H15.3144L15.4557 13.7724L15.7442 13.6497C15.8701 13.5957 15.9898 13.5288 16.1008 13.4499L16.3543 13.2699L16.9858 13.4649L17.2996 12.9375L16.8101 12.5046L16.8448 12.201C16.8602 12.0681 16.8602 11.934 16.8448 11.8014L16.8101 11.4978L17.2999 11.064L16.9858 10.5363L16.3546 10.7313L16.1008 10.5513C15.9897 10.472 15.8702 10.4045 15.7442 10.35L15.4557 10.2273L15.3144 9.6H14.6867L14.5445 10.2276L14.2569 10.35C14.1308 10.4036 14.0112 10.4706 13.9003 10.5498L13.6465 10.7298L13.0157 10.5348L12.7012 11.064L13.1907 11.4963L13.156 11.8002C13.1406 11.9331 13.1406 12.0672 13.156 12.1998L13.1907 12.5034L12.7012 12.9363L13.015 13.4637L13.6458 13.2687ZM14.999 13.2C14.671 13.2 14.3564 13.0736 14.1244 12.8485C13.8924 12.6235 13.7621 12.3183 13.7621 12C13.7621 11.6817 13.8924 11.3765 14.1244 11.1515C14.3564 10.9264 14.671 10.8 14.999 10.8C15.3271 10.8 15.6417 10.9264 15.8736 11.1515C16.1056 11.3765 16.2359 11.6817 16.2359 12C16.2359 12.3183 16.1056 12.6235 15.8736 12.8485C15.6417 13.0736 15.3271 13.2 14.999 13.2ZM14.999 11.4C14.8779 11.4001 14.7595 11.4347 14.6585 11.4995C14.5575 11.5644 14.4783 11.6565 14.4308 11.7646C14.3833 11.8727 14.3695 11.9919 14.3912 12.1075C14.4129 12.2231 14.4691 12.3299 14.5528 12.4148C14.6365 12.4997 14.7441 12.5589 14.8622 12.585C14.9803 12.6111 15.1037 12.603 15.217 12.5617C15.3304 12.5204 15.4288 12.4477 15.5 12.3527C15.5712 12.2576 15.612 12.1444 15.6175 12.027V12.147V12C15.6175 11.8409 15.5523 11.6883 15.4363 11.5757C15.3203 11.4632 15.163 11.4 14.999 11.4Z" stroke="white" stroke-width="0.2" mask="url(#path-2-outside-1_216_3040)"/>
</svg>
