<svg width="57" height="57" viewBox="0 0 57 57" fill="none" xmlns="http://www.w3.org/2000/svg">
<path fill-rule="evenodd" clip-rule="evenodd" d="M28.4167 0C12.7229 0 0 12.7229 0 28.4167C0 44.1104 12.7229 56.8333 28.4167 56.8333C44.1104 56.8333 56.8333 44.1104 56.8333 28.4167C56.8333 12.7229 44.1104 0 28.4167 0ZM31 38.75C31 39.4351 30.7278 40.0922 30.2434 40.5767C29.7589 41.0612 29.1018 41.3333 28.4167 41.3333C27.7315 41.3333 27.0744 41.0612 26.59 40.5767C26.1055 40.0922 25.8333 39.4351 25.8333 38.75V31H18.0833C17.3982 31 16.7411 30.7278 16.2566 30.2434C15.7722 29.7589 15.5 29.1018 15.5 28.4167C15.5 27.7315 15.7722 27.0744 16.2566 26.59C16.7411 26.1055 17.3982 25.8333 18.0833 25.8333H25.8333V18.0833C25.8333 17.3982 26.1055 16.7411 26.59 16.2566C27.0744 15.7722 27.7315 15.5 28.4167 15.5C29.1018 15.5 29.7589 15.7722 30.2434 16.2566C30.7278 16.7411 31 17.3982 31 18.0833V25.8333H38.75C39.4351 25.8333 40.0922 26.1055 40.5767 26.59C41.0612 27.0744 41.3333 27.7315 41.3333 28.4167C41.3333 29.1018 41.0612 29.7589 40.5767 30.2434C40.0922 30.7278 39.4351 31 38.75 31H31V38.75Z" fill="white"/>
</svg>
