<svg width="23" height="25" viewBox="0 0 23 25" fill="none" xmlns="http://www.w3.org/2000/svg">
<rect x="0.5" y="0.5" width="22" height="24" rx="9.5" stroke="#132E3F"/>
<path d="M10.4141 19.0312H11.5859C11.6901 19.0312 11.7422 18.9792 11.7422 18.875V5.125C11.7422 5.02083 11.6901 4.96875 11.5859 4.96875H10.4141C10.3099 4.96875 10.2578 5.02083 10.2578 5.125V18.875C10.2578 18.9792 10.3099 19.0312 10.4141 19.0312Z" fill="#132E3F"/>
<path d="M4.4375 12.7422H17.5625C17.6667 12.7422 17.7188 12.6901 17.7188 12.5859V11.4141C17.7188 11.3099 17.6667 11.2578 17.5625 11.2578H4.4375C4.33333 11.2578 4.28125 11.3099 4.28125 11.4141V12.5859C4.28125 12.6901 4.33333 12.7422 4.4375 12.7422Z" fill="#132E3F"/>
</svg>
