<svg width="8" height="17" viewBox="0 0 8 17" fill="none" xmlns="http://www.w3.org/2000/svg">
<path d="M6.67262 16.0043C6.50185 16.0049 6.33312 15.9672 6.17883 15.894C6.02454 15.8208 5.88861 15.714 5.78103 15.5814L0.260033 8.723C0.0919094 8.51847 0 8.26192 0 7.99716C0 7.73239 0.0919094 7.47584 0.260033 7.27131L5.97535 0.412934C6.16937 0.179502 6.44818 0.0327044 6.75043 0.00483687C7.05269 -0.0230307 7.35363 0.070314 7.58707 0.264336C7.8205 0.458358 7.9673 0.737164 7.99516 1.03942C8.02303 1.34168 7.92969 1.64262 7.73566 1.87605L2.62617 8.00287L7.5642 14.1297C7.70398 14.2975 7.79277 14.5018 7.82007 14.7185C7.84736 14.9351 7.81202 15.1551 7.71823 15.3523C7.62443 15.5495 7.47611 15.7157 7.29081 15.8313C7.1055 15.9468 6.89098 16.0069 6.67262 16.0043Z" fill="#132E3F" fill-opacity="0.5"/>
</svg>
