<svg width="17" height="20" viewBox="0 0 17 20" fill="none" xmlns="http://www.w3.org/2000/svg">
<path fill-rule="evenodd" clip-rule="evenodd" d="M13.2222 3.0349V2.02327C13.2222 1.48666 13.0232 0.972037 12.669 0.592601C12.3147 0.213165 11.8343 0 11.3333 0H5.66667C5.1657 0 4.68526 0.213165 4.33102 0.592601C3.97678 0.972037 3.77778 1.48666 3.77778 2.02327V3.0349H0.944444C0.693962 3.0349 0.453739 3.14148 0.276621 3.3312C0.0995036 3.52092 0 3.77823 0 4.04653C0 4.31483 0.0995036 4.57215 0.276621 4.76186C0.453739 4.95158 0.693962 5.05816 0.944444 5.05816H1.88889V16.1861C1.88889 16.991 2.1874 17.763 2.71875 18.3321C3.25011 18.9013 3.97078 19.221 4.72222 19.221H12.2778C13.0292 19.221 13.7499 18.9013 14.2812 18.3321C14.8126 17.763 15.1111 16.991 15.1111 16.1861V5.05816H16.0556C16.306 5.05816 16.5463 4.95158 16.7234 4.76186C16.9005 4.57215 17 4.31483 17 4.04653C17 3.77823 16.9005 3.52092 16.7234 3.3312C16.5463 3.14148 16.306 3.0349 16.0556 3.0349H13.2222ZM11.3333 2.02327H5.66667V3.0349H11.3333V2.02327ZM13.2222 5.05816H3.77778V16.1861C3.77778 16.4544 3.87728 16.7117 4.0544 16.9015C4.23152 17.0912 4.47174 17.1978 4.72222 17.1978H12.2778C12.5283 17.1978 12.7685 17.0912 12.9456 16.9015C13.1227 16.7117 13.2222 16.4544 13.2222 16.1861V5.05816Z" fill="#B50000"/>
<path d="M5.66681 7.08154H7.55572V15.1746H5.66681V7.08154Z" fill="#B50000"/>
<path d="M9.4444 7.08154H11.3333V15.1746H9.4444V7.08154Z" fill="#B50000"/>
</svg>
