<svg width="5" height="9" viewBox="0 0 5 9" fill="none" xmlns="http://www.w3.org/2000/svg">
<path d="M0.725838 0.249218C0.81921 0.2489 0.911466 0.269508 0.995828 0.309526C1.08019 0.349544 1.15451 0.407956 1.21334 0.480468L4.23209 4.23047C4.32401 4.3423 4.37427 4.48258 4.37427 4.62734C4.37427 4.77211 4.32401 4.91238 4.23209 5.02422L1.10709 8.77422C1.001 8.90185 0.848556 8.98212 0.68329 8.99735C0.518023 9.01259 0.353472 8.96155 0.225837 8.85547C0.0982013 8.74938 0.0179363 8.59694 0.00269895 8.43167C-0.0125384 8.2664 0.0385004 8.10185 0.144587 7.97422L2.93834 4.62422L0.238338 1.27422C0.161911 1.18248 0.113363 1.07076 0.098438 0.952296C0.0835135 0.833829 0.102836 0.713564 0.154121 0.605734C0.205406 0.497903 0.286506 0.407021 0.387825 0.34384C0.489144 0.280659 0.606442 0.247823 0.725838 0.249218Z" fill="#132E3F"/>
</svg>
