<svg width="25" height="24" viewBox="0 0 25 24" fill="none" xmlns="http://www.w3.org/2000/svg">
<path d="M13.7656 4.01966H7.37891C6.30859 4.01966 6.25 4.41523 6.25 5.87692V14.3429C6.25 15.7132 6.25 15.7132 7.37891 15.7132H22.7422C23.9453 15.7132 23.9453 15.7132 23.9453 14.3429V5.87692C23.9453 4.01966 23.9453 4.01966 22.7422 4.01966H15.6406V8.68337L16.5391 7.62821C16.9063 7.20341 17.5 7.20341 17.832 7.62821C18.2305 8.05759 18.2305 8.75189 17.832 9.14015L15.332 12.0635C15 12.5295 14.4062 12.5295 14.0391 12.0635L11.5391 9.14015C11.1758 8.75189 11.1758 8.05759 11.5391 7.62821C11.9062 7.20341 12.5 7.20341 12.832 7.62821L13.7656 8.68337V4.01966Z" fill="white"/>
<path d="M23.75 17.5403H5V2.92339C5 1.31552 3.875 0 2.5 0H1.21484C0.5625 0 0 0.657762 0 1.46169C0 2.26562 0.5625 2.92339 1.21484 2.92339H1.875C2.22031 2.92339 2.5 3.25044 2.5 3.65423V18.9609C2.5 19.7648 3.0625 20.4226 3.75 20.4226H6.36406C6.29297 20.6921 6.25 20.9388 6.25 21.1946C6.25 22.405 7.08984 23.3871 8.125 23.3871C9.16016 23.3871 10 22.405 10 21.1946C10 20.9369 9.95586 20.6935 9.88605 20.4637H17.6165C17.5467 20.6933 17.5021 20.9369 17.5021 21.1946C17.5 22.405 18.3398 23.3871 19.375 23.3871C20.4105 23.3871 21.2504 22.4055 21.2504 21.2357C21.2504 20.978 21.2066 20.7346 21.1368 20.5048H23.7493C24.4375 20.4637 25 19.8059 25 18.9609C25 18.1981 24.4375 17.5403 23.75 17.5403Z" fill="white"/>
</svg>
