<svg width="155" height="155" viewBox="0 0 155 155" fill="none" xmlns="http://www.w3.org/2000/svg">
<g filter="url(#filter0_d_212_2348)">
<rect x="4.5" y="8.5" width="139" height="138" stroke="#C3BFBF"/>
<mask id="mask0_212_2348" style="mask-type:alpha" maskUnits="userSpaceOnUse" x="2" y="0" width="153" height="153">
<rect x="2" width="153" height="153" fill="#C3BFBF"/>
</mask>
<g mask="url(#mask0_212_2348)">
<circle cx="74.1011" cy="77.3597" r="36.1011" fill="#D2D2D2" fill-opacity="0.6"/>
<path d="M87.9438 67.045H83.4982L78.8446 62.3914C78.6852 62.2314 78.4958 62.1046 78.2872 62.0182C78.0786 61.9317 77.855 61.8874 77.6292 61.8877H70.7528C70.527 61.8874 70.3034 61.9317 70.0948 62.0182C69.8862 62.1046 69.6968 62.2314 69.5374 62.3914L64.8838 67.045H60.4382C58.542 67.045 57 68.587 57 70.4832V89.3933C57 91.2895 58.542 92.8315 60.4382 92.8315H87.9438C89.84 92.8315 91.382 91.2895 91.382 89.3933V70.4832C91.382 68.587 89.84 67.045 87.9438 67.045ZM74.191 87.6742C69.5322 87.6742 65.5955 83.7375 65.5955 79.0787C65.5955 74.4182 69.5322 70.4832 74.191 70.4832C78.8498 70.4832 82.7865 74.4182 82.7865 79.0787C82.7865 83.7375 78.8498 87.6742 74.191 87.6742Z" fill="#C4BFBF"/>
</g>
</g>
<defs>
<filter id="filter0_d_212_2348" x="0" y="8" width="148" height="147" filterUnits="userSpaceOnUse" color-interpolation-filters="sRGB">
<feFlood flood-opacity="0" result="BackgroundImageFix"/>
<feColorMatrix in="SourceAlpha" type="matrix" values="0 0 0 0 0 0 0 0 0 0 0 0 0 0 0 0 0 0 127 0" result="hardAlpha"/>
<feOffset dy="4"/>
<feGaussianBlur stdDeviation="2"/>
<feComposite in2="hardAlpha" operator="out"/>
<feColorMatrix type="matrix" values="0 0 0 0 0 0 0 0 0 0 0 0 0 0 0 0 0 0 0.25 0"/>
<feBlend mode="normal" in2="BackgroundImageFix" result="effect1_dropShadow_212_2348"/>
<feBlend mode="normal" in="SourceGraphic" in2="effect1_dropShadow_212_2348" result="shape"/>
</filter>
</defs>
</svg>
