<svg width="16" height="15" viewBox="0 0 16 15" fill="none" xmlns="http://www.w3.org/2000/svg">
<path d="M14.433 0H6.18557V2.57732H7.2165V1.03093H14.433C14.7423 1.03093 14.9485 1.23711 14.9485 1.54639V7.2165C14.9485 7.52577 14.7423 7.73196 14.433 7.73196H7.73196V11.3402H5L3.09278 12.8351V11.3402H1.54639C1.23711 11.3402 1.03093 11.134 1.03093 10.8247V5.15464C1.03093 4.84536 1.23711 4.63918 1.54639 4.63918H8.24742V3.60825H1.54639C0.670103 3.60825 0 4.27835 0 5.15464V10.8247C0 11.701 0.670103 12.3711 1.54639 12.3711H2.06186V15L5.30928 12.3711H8.76289V8.76289H14.433C15.3093 8.76289 15.9794 8.09278 15.9794 7.2165V1.54639C15.9794 0.670103 15.3093 0 14.433 0Z" fill="#132E3F"/>
<path d="M2.16492 10.2578H3.40203L3.71131 9.43305H5.30925L5.61853 10.2578H6.85564L5.10306 5.67017H3.86595L2.16492 10.2578ZM4.4845 6.95883L4.99997 8.55676H3.96904L4.4845 6.95883Z" fill="#132E3F"/>
<path d="M9.27832 7.21649C9.84533 7.21649 10.6185 7.06185 11.3402 6.70103C12.0618 7.06185 12.8866 7.21649 13.402 7.21649V6.18556C13.402 6.18556 12.8866 6.18556 12.3196 5.97938C12.9381 5.36082 13.402 4.43298 13.402 3.09278V2.57731H11.8556V1.54639H10.8247V2.57731H9.27832V3.60824H12.3196C12.2165 4.53608 11.8041 5.10309 11.3402 5.46391C11.0309 5.20618 10.7216 4.84536 10.5154 4.38144H9.43296C9.63914 5.05154 9.94842 5.56701 10.3608 5.97938C9.84533 6.18556 9.38141 6.18556 9.27832 6.18556V7.21649Z" fill="#132E3F"/>
</svg>
