<svg width="22" height="11" viewBox="0 0 22 11" fill="none" xmlns="http://www.w3.org/2000/svg">
<path d="M21.9999 1.82515C22.0007 2.05996 21.9489 2.29196 21.8483 2.50411C21.7477 2.71626 21.6008 2.90316 21.4185 3.05109L11.9908 10.6425C11.7097 10.8736 11.357 11 10.9931 11C10.6291 11 10.2765 10.8736 9.99531 10.6425L0.567629 2.7839C0.246747 2.51712 0.0449563 2.13376 0.00664887 1.71816C-0.0316585 1.30255 0.0966553 0.888752 0.363362 0.567782C0.630069 0.246813 1.01332 0.0449677 1.42881 0.00664902C1.8443 -0.0316687 2.25799 0.0966797 2.57887 0.36346L11.0009 7.38901L19.423 0.599217C19.6536 0.407023 19.9345 0.284938 20.2323 0.247406C20.5302 0.209875 20.8325 0.258467 21.1036 0.387435C21.3747 0.516403 21.6032 0.720348 21.762 0.97514C21.9208 1.22993 22.0034 1.5249 21.9999 1.82515Z" fill="#132E3F"/>
</svg>
