<svg width="65" height="57" viewBox="0 0 65 57" fill="none" xmlns="http://www.w3.org/2000/svg">
<path d="M65 9C65 4.038 60.6255 0 55.25 0H9.75C4.3745 0 0 4.038 0 9V17.493C0 20.652 1.2415 23.523 3.25 25.731V51C3.25 54.309 6.16525 57 9.75 57H55.25C58.8348 57 61.75 54.309 61.75 51V25.728C63.7585 23.523 65 20.652 65 17.49V9ZM58.5 9V17.493C58.5 20.913 55.7407 23.829 52.3542 23.994L52 24C48.4152 24 45.5 21.309 45.5 18V6H55.25C57.044 6 58.5 7.347 58.5 9ZM26 6H39V18C39 21.309 36.0848 24 32.5 24C28.9153 24 26 21.309 26 18V6ZM6.5 9C6.5 7.347 7.956 6 9.75 6H19.5V18C19.5 21.309 16.5847 24 13 24L12.6457 23.991C9.25925 23.829 6.5 20.913 6.5 17.493V9ZM26 51V42H39V51H26ZM45.5 51V42C45.5 38.691 42.5848 36 39 36H26C22.4153 36 19.5 38.691 19.5 42V51H9.75V29.607C10.5755 29.808 11.4303 29.94 12.3078 29.982C14.2671 30.0802 16.2251 29.7664 18.0339 29.0643C19.8428 28.3622 21.4554 27.2902 22.75 25.929C25.1322 28.425 28.6227 30 32.5 30C36.3773 30 39.8677 28.425 42.25 25.929C43.5446 27.2902 45.1572 28.3622 46.966 29.0643C48.7749 29.7664 50.7329 30.0802 52.6922 29.982C53.573 29.94 54.4245 29.808 55.25 29.607V51H45.5Z" fill="#F3F6F8"/>
</svg>
