<svg width="40" height="40" viewBox="0 0 40 40" fill="none" xmlns="http://www.w3.org/2000/svg">
<g clip-path="url(#clip0_216_3091)">
<path d="M34.1719 5.81282C30.7566 2.41139 26.2159 0.361618 21.3954 0.0451876C16.5748 -0.271243 11.8031 1.16724 7.96869 4.09277C4.13429 7.0183 1.49859 11.2315 0.552399 15.9477C-0.393789 20.664 0.41403 25.5618 2.82543 29.7292L0 40L10.558 37.244C13.4782 38.8271 16.7502 39.6566 20.0753 39.6568H20.0838C24.0223 39.6565 27.8723 38.4937 31.1471 36.3155C34.422 34.1373 36.9746 31.0414 38.4824 27.4192C39.9902 23.797 40.3855 19.8111 39.6183 15.9653C38.851 12.1195 36.9557 8.58648 34.1719 5.81282ZM20.0838 36.3092H20.0773C17.1129 36.3094 14.2029 35.5161 11.6521 34.0124L11.0474 33.6556L4.78137 35.2908L6.45405 29.2108L6.05989 28.5876C4.109 25.4928 3.24652 21.8403 3.60804 18.2043C3.96956 14.5683 5.53457 11.155 8.05704 8.50102C10.5795 5.847 13.9164 4.10277 17.5432 3.54251C21.1699 2.98225 24.8809 3.63774 28.0927 5.40594C31.3044 7.17413 33.8349 9.95476 35.2862 13.3107C36.7376 16.6666 37.0275 20.4076 36.1104 23.9454C35.1934 27.4833 33.1213 30.6174 30.22 32.8552C27.3188 35.0929 23.7527 36.3074 20.0826 36.3076L20.0838 36.3092Z" fill="#E0E0E0"/>
<path d="M0.914062 38.8604L3.61051 29.0572C1.52161 25.4489 0.686836 21.2553 1.23562 17.1266C1.7844 12.9979 3.68608 9.16477 6.64581 6.22153C9.60554 3.27828 13.458 1.38934 17.6058 0.847578C21.7536 0.305815 25.9651 1.14149 29.5874 3.22505C33.2096 5.3086 36.0401 8.52363 37.6401 12.3717C39.2402 16.2197 39.5203 20.4857 38.437 24.5084C37.3538 28.531 34.9678 32.0855 31.6488 34.6208C28.3299 37.156 24.2635 38.5304 20.0801 38.5308H20.0717C16.8993 38.5302 13.7775 37.7388 10.9911 36.2288L0.91567 38.8588L0.914062 38.8604Z" fill="url(#paint0_linear_216_3091)"/>
<path fill-rule="evenodd" clip-rule="evenodd" d="M15.1622 11.4052C14.7937 10.5896 14.4056 10.5732 14.0552 10.5592C13.7683 10.5468 13.4401 10.5476 13.1126 10.5476C12.8633 10.5542 12.6181 10.612 12.3923 10.7175C12.1665 10.8229 11.9651 10.9737 11.8007 11.1604C11.2445 11.6847 10.8041 12.3187 10.5076 13.0218C10.2111 13.725 10.065 14.4819 10.0786 15.2444C10.0786 17.654 11.8417 19.9824 12.0876 20.3092C12.3335 20.636 15.4908 25.7384 20.4908 27.7012C24.6462 29.3324 25.4919 29.008 26.394 28.9264C27.296 28.8448 29.3042 27.742 29.7144 26.5984C30.1246 25.4548 30.1242 24.4748 30.0013 24.27C29.8783 24.0652 29.5505 23.9436 29.0583 23.6984C28.5661 23.4532 26.1481 22.2684 25.6968 22.1052C25.2456 21.942 24.9178 21.8604 24.5899 22.3508C24.262 22.8412 23.3198 23.9432 23.0325 24.2708C22.7453 24.5984 22.4584 24.6388 21.9666 24.394C20.5164 23.8185 19.1778 22.9961 18.0109 21.9636C16.9353 20.9741 16.0131 19.8313 15.2743 18.5724C14.9874 18.0828 15.2433 17.8172 15.4904 17.5724C15.7114 17.3532 15.9822 17.0008 16.2285 16.7148C16.4304 16.4673 16.5959 16.1924 16.7199 15.8984C16.7854 15.7634 16.8161 15.6142 16.8091 15.4643C16.802 15.3145 16.7576 15.1688 16.6797 15.0404C16.5556 14.7952 15.5993 12.3736 15.1622 11.4052Z" fill="white"/>
<path d="M34.0092 5.74967C30.6338 2.38498 26.1449 0.356648 21.3788 0.0425771C16.6126 -0.271493 11.8943 1.15012 8.10296 4.04255C4.31161 6.93498 1.70581 11.1009 0.771077 15.7642C-0.163657 20.4275 0.636426 25.2701 3.02225 29.3897L0.22937 39.5445L10.666 36.8201C13.5527 38.385 16.7872 39.2051 20.0741 39.2053H20.0825C23.9761 39.2056 27.7824 38.0565 31.02 35.9034C34.2577 33.7503 36.7814 30.6898 38.272 27.1089C39.7626 23.5281 40.1532 19.5876 39.3945 15.7857C38.6357 11.9838 36.7616 8.49128 34.0092 5.74967ZM20.0825 35.8961H20.0781C17.1476 35.8963 14.2709 35.1122 11.7493 33.6257L11.1514 33.2729L4.9565 34.8893L6.60989 28.8781L6.22055 28.2621C4.29212 25.2026 3.43964 21.592 3.79712 17.9977C4.15461 14.4033 5.70179 11.0292 8.19544 8.40568C10.6891 5.78215 13.9878 4.058 17.573 3.50426C21.1582 2.95052 24.8266 3.5986 28.0016 5.34662C31.1765 7.09464 33.6779 9.84347 35.1125 13.161C36.5471 16.4785 36.8336 20.1766 35.927 23.6739C35.0204 27.1712 32.972 30.2694 30.1039 32.4814C27.2358 34.6935 23.7106 35.8939 20.0825 35.8941V35.8961Z" fill="white"/>
</g>
<defs>
<linearGradient id="paint0_linear_216_3091" x1="19.9997" y1="38.8604" x2="19.9997" y2="0.686768" gradientUnits="userSpaceOnUse">
<stop stop-color="#20B038"/>
<stop offset="1" stop-color="#60D66A"/>
</linearGradient>
<clipPath id="clip0_216_3091">
<rect width="40" height="40" fill="white"/>
</clipPath>
</defs>
</svg>
